<?xml version="1.0" encoding="UTF-8"?><svg id="_лой_2" xmlns="http://www.w3.org/2000/svg" viewBox="0 0 31 31"><defs><style>.cls-1{fill:silver;}.cls-1,.cls-2,.cls-3,.cls-4,.cls-5,.cls-6,.cls-7,.cls-8,.cls-9,.cls-10,.cls-11,.cls-12,.cls-13,.cls-14,.cls-15,.cls-16,.cls-17,.cls-18,.cls-19{stroke:#e2e2e2;stroke-width:.5px;}.cls-1,.cls-2,.cls-3,.cls-4,.cls-6,.cls-7,.cls-8,.cls-9,.cls-10,.cls-11,.cls-12,.cls-13,.cls-14,.cls-15,.cls-16,.cls-17,.cls-18,.cls-19{stroke-miterlimit:10;}.cls-2{fill:#b6b6b6;}.cls-3,.cls-20{fill:#a8a8a8;}.cls-4{fill:#c4c4c4;}.cls-5{stroke-miterlimit:10;}.cls-5,.cls-15{fill:#b5b5b5;}.cls-6{fill:#b8b8b8;}.cls-7{fill:#c2c2c2;}.cls-8{fill:#c3c3c3;}.cls-9{fill:#bababa;}.cls-10{fill:none;}.cls-11{fill:#b7b7b7;}.cls-12{fill:#c1c1c1;}.cls-13{fill:#bebebe;}.cls-14{fill:#b9b9b9;}.cls-21{fill:#ccc;}.cls-16{fill:#bfbfbf;}.cls-17{fill:#bdbdbd;}.cls-18{fill:#bcbcbc;}.cls-19{fill:#bbb;}</style></defs><g id="_лой_1-2"><rect class="cls-20" width="31" height="31"/><circle class="cls-21" cx="14.55" cy="14.55" r="9.77"/><circle class="cls-10" cx="14.5" cy="14.5" r="9.77"/><g><g><path class="cls-10" d="M21.41,7.59c-2.25-2.25-7.07,2.57-4.82,4.82"/><path class="cls-10" d="M24.27,14.5c0-3.18-6.82-3.18-6.82,0"/><path class="cls-10" d="M21.41,21.41c2.25-2.25-2.57-7.07-4.82-4.82"/><path class="cls-10" d="M14.5,24.27c3.18,0,3.18-6.82,0-6.82"/><path class="cls-10" d="M7.59,21.41c2.25,2.25,7.07-2.57,4.82-4.82"/></g><g><path class="cls-10" d="M21.43,7.61c-2.25-2.25-7.07,2.57-4.82,4.82"/><path class="cls-10" d="M24.29,14.52c0-3.18-6.82-3.18-6.82,0"/><path class="cls-10" d="M21.43,21.43c2.25-2.25-2.57-7.07-4.82-4.82"/><path class="cls-10" d="M14.52,24.29c3.18,0,3.18-6.82,0-6.82"/><path class="cls-10" d="M7.61,21.43c2.25,2.25,7.07-2.57,4.82-4.82"/></g><g><path class="cls-10" d="M21.45,7.63c-2.25-2.25-7.07,2.57-4.82,4.82"/><path class="cls-10" d="M24.31,14.54c0-3.18-6.82-3.18-6.82,0"/><path class="cls-10" d="M21.45,21.45c2.25-2.25-2.57-7.07-4.82-4.82"/><path class="cls-10" d="M14.54,24.31c3.18,0,3.18-6.82,0-6.82"/><path class="cls-10" d="M7.63,21.45c2.25,2.25,7.07-2.57,4.82-4.82"/></g><g><path class="cls-10" d="M21.47,7.65c-2.25-2.25-7.07,2.57-4.82,4.82"/><path class="cls-10" d="M24.33,14.56c0-3.18-6.82-3.18-6.82,0"/><path class="cls-10" d="M21.47,21.47c2.25-2.25-2.57-7.07-4.82-4.82"/><path class="cls-10" d="M14.56,24.33c3.18,0,3.18-6.82,0-6.82"/><path class="cls-10" d="M7.65,21.47c2.25,2.25,7.07-2.57,4.82-4.82"/></g><g><path class="cls-10" d="M21.49,7.67c-2.25-2.25-7.07,2.57-4.82,4.82"/><path class="cls-10" d="M24.35,14.58c0-3.18-6.82-3.18-6.82,0"/><path class="cls-10" d="M21.49,21.49c2.25-2.25-2.57-7.07-4.82-4.82"/><path class="cls-10" d="M14.58,24.35c3.18,0,3.18-6.82,0-6.82"/><path class="cls-10" d="M7.67,21.49c2.25,2.25,7.07-2.57,4.82-4.82"/></g><g><path class="cls-10" d="M21.51,7.69c-2.25-2.25-7.07,2.57-4.82,4.82"/><path class="cls-10" d="M24.37,14.6c0-3.18-6.82-3.18-6.82,0"/><path class="cls-10" d="M21.51,21.51c2.25-2.25-2.57-7.07-4.82-4.82"/><path class="cls-10" d="M14.6,24.37c3.18,0,3.18-6.82,0-6.82"/><path class="cls-10" d="M7.69,21.51c2.25,2.25,7.07-2.57,4.82-4.82"/></g><g><path class="cls-10" d="M21.53,7.71c-2.25-2.25-7.07,2.57-4.82,4.82"/><path class="cls-10" d="M24.39,14.62c0-3.18-6.82-3.18-6.82,0"/><path class="cls-10" d="M21.53,21.53c2.25-2.25-2.57-7.07-4.82-4.82"/><path class="cls-10" d="M14.62,24.39c3.18,0,3.18-6.82,0-6.82"/><path class="cls-10" d="M7.71,21.53c2.25,2.25,7.07-2.57,4.82-4.82"/></g><g><path class="cls-10" d="M21.55,7.73c-2.25-2.25-7.07,2.57-4.82,4.82"/><path class="cls-10" d="M24.41,14.64c0-3.18-6.82-3.18-6.82,0"/><path class="cls-10" d="M21.55,21.55c2.25-2.25-2.57-7.07-4.82-4.82"/><path class="cls-10" d="M14.64,24.41c3.18,0,3.18-6.82,0-6.82"/><path class="cls-10" d="M7.73,21.55c2.25,2.25,7.07-2.57,4.82-4.82"/></g><g><path class="cls-10" d="M21.57,7.75c-2.25-2.25-7.07,2.57-4.82,4.82"/><path class="cls-10" d="M24.43,14.66c0-3.18-6.82-3.18-6.82,0"/><path class="cls-10" d="M21.57,21.57c2.25-2.25-2.57-7.07-4.82-4.82"/><path class="cls-10" d="M14.66,24.43c3.18,0,3.18-6.82,0-6.82"/><path class="cls-10" d="M7.75,21.57c2.25,2.25,7.07-2.57,4.82-4.82"/></g><g><path class="cls-10" d="M21.59,7.77c-2.25-2.25-7.07,2.57-4.82,4.82"/><path class="cls-10" d="M24.45,14.68c0-3.18-6.82-3.18-6.82,0"/><path class="cls-10" d="M21.59,21.59c2.25-2.25-2.57-7.07-4.82-4.82"/><path class="cls-10" d="M14.68,24.45c3.18,0,3.18-6.82,0-6.82"/><path class="cls-10" d="M7.77,21.59c2.25,2.25,7.07-2.57,4.82-4.82"/></g><g><path class="cls-10" d="M21.61,7.79c-2.25-2.25-7.07,2.57-4.82,4.82"/><path class="cls-10" d="M24.47,14.7c0-3.18-6.82-3.18-6.82,0"/><path class="cls-10" d="M21.61,21.61c2.25-2.25-2.57-7.07-4.82-4.82"/><path class="cls-10" d="M14.7,24.47c3.18,0,3.18-6.82,0-6.82"/><path class="cls-10" d="M7.79,21.61c2.25,2.25,7.07-2.57,4.82-4.82"/></g><g><path class="cls-10" d="M21.63,7.81c-2.25-2.25-7.07,2.57-4.82,4.82"/><path class="cls-10" d="M24.49,14.72c0-3.18-6.82-3.18-6.82,0"/><path class="cls-10" d="M21.63,21.63c2.25-2.25-2.57-7.07-4.82-4.82"/><path class="cls-10" d="M14.72,24.49c3.18,0,3.18-6.82,0-6.82"/><path class="cls-10" d="M7.81,21.63c2.25,2.25,7.07-2.57,4.82-4.82"/></g><g><path class="cls-10" d="M21.65,7.83c-2.25-2.25-7.07,2.57-4.82,4.82"/><path class="cls-10" d="M24.51,14.74c0-3.18-6.82-3.18-6.82,0"/><path class="cls-10" d="M21.65,21.65c2.25-2.25-2.57-7.07-4.82-4.82"/><path class="cls-10" d="M14.74,24.51c3.18,0,3.18-6.82,0-6.82"/><path class="cls-10" d="M7.83,21.65c2.25,2.25,7.07-2.57,4.82-4.82"/></g><g><path class="cls-10" d="M21.67,7.85c-2.25-2.25-7.07,2.57-4.82,4.82"/><path class="cls-10" d="M24.53,14.76c0-3.18-6.82-3.18-6.82,0"/><path class="cls-10" d="M21.67,21.67c2.25-2.25-2.57-7.07-4.82-4.82"/><path class="cls-10" d="M14.76,24.53c3.18,0,3.18-6.82,0-6.82"/><path class="cls-10" d="M7.85,21.67c2.25,2.25,7.07-2.57,4.82-4.82"/></g><g><path class="cls-10" d="M21.69,7.87c-2.25-2.25-7.07,2.57-4.82,4.82"/><path class="cls-10" d="M24.55,14.78c0-3.18-6.82-3.18-6.82,0"/><path class="cls-10" d="M21.69,21.69c2.25-2.25-2.57-7.07-4.82-4.82"/><path class="cls-10" d="M14.78,24.55c3.18,0,3.18-6.82,0-6.82"/><path class="cls-10" d="M7.87,21.69c2.25,2.25,7.07-2.57,4.82-4.82"/></g><g><path class="cls-10" d="M21.71,7.89c-2.25-2.25-7.07,2.57-4.82,4.82"/><path class="cls-10" d="M24.57,14.8c0-3.18-6.82-3.18-6.82,0"/><path class="cls-10" d="M21.71,21.71c2.25-2.25-2.57-7.07-4.82-4.82"/><path class="cls-10" d="M14.8,24.57c3.18,0,3.18-6.82,0-6.82"/><path class="cls-10" d="M7.89,21.71c2.25,2.25,7.07-2.57,4.82-4.82"/></g><g><path class="cls-10" d="M21.73,7.91c-2.25-2.25-7.07,2.57-4.82,4.82"/><path class="cls-10" d="M24.59,14.82c0-3.18-6.82-3.18-6.82,0"/><path class="cls-10" d="M21.73,21.73c2.25-2.25-2.57-7.07-4.82-4.82"/><path class="cls-10" d="M14.82,24.59c3.18,0,3.18-6.82,0-6.82"/><path class="cls-10" d="M7.91,21.73c2.25,2.25,7.07-2.57,4.82-4.82"/></g><g><path class="cls-10" d="M21.75,7.93c-2.25-2.25-7.07,2.57-4.82,4.82"/><path class="cls-10" d="M24.61,14.84c0-3.18-6.82-3.18-6.82,0"/><path class="cls-10" d="M21.75,21.75c2.25-2.25-2.57-7.07-4.82-4.82"/><path class="cls-10" d="M14.84,24.61c3.18,0,3.18-6.82,0-6.82"/><path class="cls-10" d="M7.93,21.75c2.25,2.25,7.07-2.57,4.82-4.82"/></g><g><path class="cls-10" d="M21.77,7.95c-2.25-2.25-7.07,2.57-4.82,4.82"/><path class="cls-10" d="M24.63,14.86c0-3.18-6.82-3.18-6.82,0"/><path class="cls-10" d="M21.77,21.77c2.25-2.25-2.57-7.07-4.82-4.82"/><path class="cls-10" d="M14.86,24.63c3.18,0,3.18-6.82,0-6.82"/><path class="cls-10" d="M7.95,21.77c2.25,2.25,7.07-2.57,4.82-4.82"/></g><g><path class="cls-10" d="M21.79,7.97c-2.25-2.25-7.07,2.57-4.82,4.82"/><path class="cls-10" d="M24.65,14.88c0-3.18-6.82-3.18-6.82,0"/><path class="cls-10" d="M21.79,21.79c2.25-2.25-2.57-7.07-4.82-4.82"/><path class="cls-10" d="M14.88,24.65c3.18,0,3.18-6.82,0-6.82"/><path class="cls-10" d="M7.97,21.79c2.25,2.25,7.07-2.57,4.82-4.82"/></g><g><path class="cls-10" d="M21.81,7.99c-2.25-2.25-7.07,2.57-4.82,4.82"/><path class="cls-10" d="M24.67,14.9c0-3.18-6.82-3.18-6.82,0"/><path class="cls-10" d="M21.81,21.81c2.25-2.25-2.57-7.07-4.82-4.82"/><path class="cls-10" d="M14.9,24.67c3.18,0,3.18-6.82,0-6.82"/><path class="cls-10" d="M7.99,21.81c2.25,2.25,7.07-2.57,4.82-4.82"/></g><g><path class="cls-10" d="M21.83,8.01c-2.25-2.25-7.07,2.57-4.82,4.82"/><path class="cls-10" d="M24.69,14.92c0-3.18-6.82-3.18-6.82,0"/><path class="cls-10" d="M21.83,21.83c2.25-2.25-2.57-7.07-4.82-4.82"/><path class="cls-10" d="M14.92,24.69c3.18,0,3.18-6.82,0-6.82"/><path class="cls-10" d="M8.01,21.83c2.25,2.25,7.07-2.57,4.82-4.82"/></g><g><path class="cls-10" d="M21.85,8.03c-2.25-2.25-7.07,2.57-4.82,4.82"/><path class="cls-10" d="M24.71,14.94c0-3.18-6.82-3.18-6.82,0"/><path class="cls-10" d="M21.85,21.85c2.25-2.25-2.57-7.07-4.82-4.82"/><path class="cls-10" d="M14.94,24.71c3.18,0,3.18-6.82,0-6.82"/><path class="cls-10" d="M8.03,21.85c2.25,2.25,7.07-2.57,4.82-4.82"/></g><g><path class="cls-10" d="M21.87,8.05c-2.25-2.25-7.07,2.57-4.82,4.82"/><path class="cls-10" d="M24.73,14.96c0-3.18-6.82-3.18-6.82,0"/><path class="cls-10" d="M21.87,21.87c2.25-2.25-2.57-7.07-4.82-4.82"/><path class="cls-10" d="M14.96,24.73c3.18,0,3.18-6.82,0-6.82"/><path class="cls-10" d="M8.05,21.87c2.25,2.25,7.07-2.57,4.82-4.82"/></g><g><path class="cls-10" d="M21.89,8.06c-2.25-2.25-7.07,2.57-4.82,4.82"/><path class="cls-10" d="M24.75,14.98c0-3.18-6.82-3.18-6.82,0"/><path class="cls-10" d="M21.89,21.89c2.25-2.25-2.57-7.07-4.82-4.82"/><path class="cls-10" d="M14.98,24.75c3.18,0,3.18-6.82,0-6.82"/><path class="cls-10" d="M8.06,21.89c2.25,2.25,7.07-2.57,4.82-4.82"/></g><g><path class="cls-10" d="M21.91,8.08c-2.25-2.25-7.07,2.57-4.82,4.82"/><path class="cls-10" d="M24.77,15c0-3.18-6.82-3.18-6.82,0"/><path class="cls-10" d="M21.91,21.91c2.25-2.25-2.57-7.07-4.82-4.82"/><path class="cls-10" d="M15,24.77c3.18,0,3.18-6.82,0-6.82"/><path class="cls-10" d="M8.08,21.91c2.25,2.25,7.07-2.57,4.82-4.82"/></g><g><path class="cls-10" d="M21.93,8.1c-2.25-2.25-7.07,2.57-4.82,4.82"/><path class="cls-10" d="M24.79,15.01c0-3.18-6.82-3.18-6.82,0"/><path class="cls-10" d="M21.93,21.93c2.25-2.25-2.57-7.07-4.82-4.82"/><path class="cls-10" d="M15.01,24.79c3.18,0,3.18-6.82,0-6.82"/><path class="cls-10" d="M8.1,21.93c2.25,2.25,7.07-2.57,4.82-4.82"/></g><g><path class="cls-10" d="M21.94,8.12c-2.25-2.25-7.07,2.57-4.82,4.82"/><path class="cls-10" d="M24.81,15.03c0-3.18-6.82-3.18-6.82,0"/><path class="cls-10" d="M21.94,21.94c2.25-2.25-2.57-7.07-4.82-4.82"/><path class="cls-10" d="M15.03,24.81c3.18,0,3.18-6.82,0-6.82"/><path class="cls-10" d="M8.12,21.94c2.25,2.25,7.07-2.57,4.82-4.82"/></g><g><path class="cls-10" d="M21.96,8.14c-2.25-2.25-7.07,2.57-4.82,4.82"/><path class="cls-10" d="M24.83,15.05c0-3.18-6.82-3.18-6.82,0"/><path class="cls-10" d="M21.96,21.96c2.25-2.25-2.57-7.07-4.82-4.82"/><path class="cls-10" d="M15.05,24.83c3.18,0,3.18-6.82,0-6.82"/><path class="cls-10" d="M8.14,21.96c2.25,2.25,7.07-2.57,4.82-4.82"/></g><g><path class="cls-10" d="M21.98,8.16c-2.25-2.25-7.07,2.57-4.82,4.82"/><path class="cls-10" d="M24.85,15.07c0-3.18-6.82-3.18-6.82,0"/><path class="cls-10" d="M21.98,21.98c2.25-2.25-2.57-7.07-4.82-4.82"/><path class="cls-10" d="M15.07,24.85c3.18,0,3.18-6.82,0-6.82"/><path class="cls-10" d="M8.16,21.98c2.25,2.25,7.07-2.57,4.82-4.82"/></g><g><path class="cls-10" d="M22,8.18c-2.25-2.25-7.07,2.57-4.82,4.82"/><path class="cls-10" d="M24.87,15.09c0-3.18-6.82-3.18-6.82,0"/><path class="cls-10" d="M22,22c2.25-2.25-2.57-7.07-4.82-4.82"/><path class="cls-10" d="M15.09,24.87c3.18,0,3.18-6.82,0-6.82"/><path class="cls-10" d="M8.18,22c2.25,2.25,7.07-2.57,4.82-4.82"/></g><g><path class="cls-10" d="M22.02,8.2c-2.25-2.25-7.07,2.57-4.82,4.82"/><path class="cls-10" d="M24.89,15.11c0-3.18-6.82-3.18-6.82,0"/><path class="cls-10" d="M22.02,22.02c2.25-2.25-2.57-7.07-4.82-4.82"/><path class="cls-10" d="M15.11,24.89c3.18,0,3.18-6.82,0-6.82"/><path class="cls-10" d="M8.2,22.02c2.25,2.25,7.07-2.57,4.82-4.82"/></g><g><path class="cls-10" d="M22.04,8.22c-2.25-2.25-7.07,2.57-4.82,4.82"/><path class="cls-10" d="M24.91,15.13c0-3.18-6.82-3.18-6.82,0"/><path class="cls-10" d="M22.04,22.04c2.25-2.25-2.57-7.07-4.82-4.82"/><path class="cls-10" d="M15.13,24.91c3.18,0,3.18-6.82,0-6.82"/><path class="cls-10" d="M8.22,22.04c2.25,2.25,7.07-2.57,4.82-4.82"/></g><g><path class="cls-10" d="M22.06,8.24c-2.25-2.25-7.07,2.57-4.82,4.82"/><path class="cls-10" d="M24.93,15.15c0-3.18-6.82-3.18-6.82,0"/><path class="cls-10" d="M22.06,22.06c2.25-2.25-2.57-7.07-4.82-4.82"/><path class="cls-10" d="M15.15,24.93c3.18,0,3.18-6.82,0-6.82"/><path class="cls-10" d="M8.24,22.06c2.25,2.25,7.07-2.57,4.82-4.82"/></g><g><path class="cls-10" d="M22.08,8.26c-2.25-2.25-7.07,2.57-4.82,4.82"/><path class="cls-10" d="M24.95,15.17c0-3.18-6.82-3.18-6.82,0"/><path class="cls-10" d="M22.08,22.08c2.25-2.25-2.57-7.07-4.82-4.82"/><path class="cls-10" d="M15.17,24.95c3.18,0,3.18-6.82,0-6.82"/><path class="cls-10" d="M8.26,22.08c2.25,2.25,7.07-2.57,4.82-4.82"/></g><g><path class="cls-10" d="M22.1,8.28c-2.25-2.25-7.07,2.57-4.82,4.82"/><path class="cls-10" d="M24.97,15.19c0-3.18-6.82-3.18-6.82,0"/><path class="cls-10" d="M22.1,22.1c2.25-2.25-2.57-7.07-4.82-4.82"/><path class="cls-10" d="M15.19,24.97c3.18,0,3.18-6.82,0-6.82"/><path class="cls-10" d="M8.28,22.1c2.25,2.25,7.07-2.57,4.82-4.82"/></g><g><path class="cls-10" d="M22.12,8.3c-2.25-2.25-7.07,2.57-4.82,4.82"/><path class="cls-10" d="M24.99,15.21c0-3.18-6.82-3.18-6.82,0"/><path class="cls-10" d="M22.12,22.12c2.25-2.25-2.57-7.07-4.82-4.82"/><path class="cls-10" d="M15.21,24.99c3.18,0,3.18-6.82,0-6.82"/><path class="cls-10" d="M8.3,22.12c2.25,2.25,7.07-2.57,4.82-4.82"/></g><g><path class="cls-10" d="M22.14,8.32c-2.25-2.25-7.07,2.57-4.82,4.82"/><path class="cls-10" d="M25.01,15.23c0-3.18-6.82-3.18-6.82,0"/><path class="cls-10" d="M22.14,22.14c2.25-2.25-2.57-7.07-4.82-4.82"/><path class="cls-10" d="M15.23,25.01c3.18,0,3.18-6.82,0-6.82"/><path class="cls-10" d="M8.32,22.14c2.25,2.25,7.07-2.57,4.82-4.82"/></g><g><path class="cls-10" d="M22.16,8.34c-2.25-2.25-7.07,2.57-4.82,4.82"/><path class="cls-10" d="M25.03,15.25c0-3.18-6.82-3.18-6.82,0"/><path class="cls-10" d="M22.16,22.16c2.25-2.25-2.57-7.07-4.82-4.82"/><path class="cls-10" d="M15.25,25.03c3.18,0,3.18-6.82,0-6.82"/><path class="cls-10" d="M8.34,22.16c2.25,2.25,7.07-2.57,4.82-4.82"/></g><g><path class="cls-10" d="M22.18,8.36c-2.25-2.25-7.07,2.57-4.82,4.82"/><path class="cls-10" d="M25.04,15.27c0-3.18-6.82-3.18-6.82,0"/><path class="cls-10" d="M22.18,22.18c2.25-2.25-2.57-7.07-4.82-4.82"/><path class="cls-10" d="M15.27,25.04c3.18,0,3.18-6.82,0-6.82"/><path class="cls-10" d="M8.36,22.18c2.25,2.25,7.07-2.57,4.82-4.82"/></g><g><path class="cls-10" d="M22.2,8.38c-2.25-2.25-7.07,2.57-4.82,4.82"/><path class="cls-10" d="M25.06,15.29c0-3.18-6.82-3.18-6.82,0"/><path class="cls-10" d="M22.2,22.2c2.25-2.25-2.57-7.07-4.82-4.82"/><path class="cls-10" d="M15.29,25.06c3.18,0,3.18-6.82,0-6.82"/><path class="cls-10" d="M8.38,22.2c2.25,2.25,7.07-2.57,4.82-4.82"/></g><g><path class="cls-10" d="M22.22,8.4c-2.25-2.25-7.07,2.57-4.82,4.82"/><path class="cls-10" d="M25.08,15.31c0-3.18-6.82-3.18-6.82,0"/><path class="cls-10" d="M22.22,22.22c2.25-2.25-2.57-7.07-4.82-4.82"/><path class="cls-10" d="M15.31,25.08c3.18,0,3.18-6.82,0-6.82"/><path class="cls-10" d="M8.4,22.22c2.25,2.25,7.07-2.57,4.82-4.82"/></g><g><path class="cls-10" d="M22.24,8.42c-2.25-2.25-7.07,2.57-4.82,4.82"/><path class="cls-10" d="M25.1,15.33c0-3.18-6.82-3.18-6.82,0"/><path class="cls-10" d="M22.24,22.24c2.25-2.25-2.57-7.07-4.82-4.82"/><path class="cls-10" d="M15.33,25.1c3.18,0,3.18-6.82,0-6.82"/><path class="cls-10" d="M8.42,22.24c2.25,2.25,7.07-2.57,4.82-4.82"/></g><g><path class="cls-10" d="M22.26,8.44c-2.25-2.25-7.07,2.57-4.82,4.82"/><path class="cls-10" d="M25.12,15.35c0-3.18-6.82-3.18-6.82,0"/><path class="cls-10" d="M22.26,22.26c2.25-2.25-2.57-7.07-4.82-4.82"/><path class="cls-10" d="M15.35,25.12c3.18,0,3.18-6.82,0-6.82"/><path class="cls-10" d="M8.44,22.26c2.25,2.25,7.07-2.57,4.82-4.82"/></g><g><path class="cls-10" d="M22.28,8.46c-2.25-2.25-7.07,2.57-4.82,4.82"/><path class="cls-10" d="M25.14,15.37c0-3.18-6.82-3.18-6.82,0"/><path class="cls-10" d="M22.28,22.28c2.25-2.25-2.57-7.07-4.82-4.82"/><path class="cls-10" d="M15.37,25.14c3.18,0,3.18-6.82,0-6.82"/><path class="cls-10" d="M8.46,22.28c2.25,2.25,7.07-2.57,4.82-4.82"/></g><g><path class="cls-10" d="M22.3,8.48c-2.25-2.25-7.07,2.57-4.82,4.82"/><path class="cls-10" d="M25.16,15.39c0-3.18-6.82-3.18-6.82,0"/><path class="cls-10" d="M22.3,22.3c2.25-2.25-2.57-7.07-4.82-4.82"/><path class="cls-10" d="M15.39,25.16c3.18,0,3.18-6.82,0-6.82"/><path class="cls-10" d="M8.48,22.3c2.25,2.25,7.07-2.57,4.82-4.82"/></g><g><path class="cls-10" d="M22.32,8.5c-2.25-2.25-7.07,2.57-4.82,4.82"/><path class="cls-10" d="M25.18,15.41c0-3.18-6.82-3.18-6.82,0"/><path class="cls-10" d="M22.32,22.32c2.25-2.25-2.57-7.07-4.82-4.82"/><path class="cls-10" d="M15.41,25.18c3.18,0,3.18-6.82,0-6.82"/><path class="cls-10" d="M8.5,22.32c2.25,2.25,7.07-2.57,4.82-4.82"/></g><g><path class="cls-10" d="M22.34,8.52c-2.25-2.25-7.07,2.57-4.82,4.82"/><path class="cls-10" d="M25.2,15.43c0-3.18-6.82-3.18-6.82,0"/><path class="cls-10" d="M22.34,22.34c2.25-2.25-2.57-7.07-4.82-4.82"/><path class="cls-10" d="M15.43,25.2c3.18,0,3.18-6.82,0-6.82"/><path class="cls-10" d="M8.52,22.34c2.25,2.25,7.07-2.57,4.82-4.82"/></g><g><path class="cls-10" d="M22.36,8.54c-2.25-2.25-7.07,2.57-4.82,4.82"/><path class="cls-10" d="M25.22,15.45c0-3.18-6.82-3.18-6.82,0"/><path class="cls-10" d="M22.36,22.36c2.25-2.25-2.57-7.07-4.82-4.82"/><path class="cls-10" d="M15.45,25.22c3.18,0,3.18-6.82,0-6.82"/><path class="cls-10" d="M8.54,22.36c2.25,2.25,7.07-2.57,4.82-4.82"/></g><g><path class="cls-10" d="M22.38,8.56c-2.25-2.25-7.07,2.57-4.82,4.82"/><path class="cls-10" d="M25.24,15.47c0-3.18-6.82-3.18-6.82,0"/><path class="cls-10" d="M22.38,22.38c2.25-2.25-2.57-7.07-4.82-4.82"/><path class="cls-10" d="M15.47,25.24c3.18,0,3.18-6.82,0-6.82"/><path class="cls-10" d="M8.56,22.38c2.25,2.25,7.07-2.57,4.82-4.82"/></g><g><path class="cls-10" d="M22.4,8.58c-2.25-2.25-7.07,2.57-4.82,4.82"/><path class="cls-10" d="M25.26,15.49c0-3.18-6.82-3.18-6.82,0"/><path class="cls-10" d="M22.4,22.4c2.25-2.25-2.57-7.07-4.82-4.82"/><path class="cls-10" d="M15.49,25.26c3.18,0,3.18-6.82,0-6.82"/><path class="cls-10" d="M8.58,22.4c2.25,2.25,7.07-2.57,4.82-4.82"/></g><g><path class="cls-10" d="M22.42,8.6c-2.25-2.25-7.07,2.57-4.82,4.82"/><path class="cls-10" d="M25.28,15.51c0-3.18-6.82-3.18-6.82,0"/><path class="cls-10" d="M22.42,22.42c2.25-2.25-2.57-7.07-4.82-4.82"/><path class="cls-10" d="M15.51,25.28c3.18,0,3.18-6.82,0-6.82"/><path class="cls-10" d="M8.6,22.42c2.25,2.25,7.07-2.57,4.82-4.82"/></g><g><path class="cls-10" d="M22.44,8.62c-2.25-2.25-7.07,2.57-4.82,4.82"/><path class="cls-10" d="M25.3,15.53c0-3.18-6.82-3.18-6.82,0"/><path class="cls-10" d="M22.44,22.44c2.25-2.25-2.57-7.07-4.82-4.82"/><path class="cls-10" d="M15.53,25.3c3.18,0,3.18-6.82,0-6.82"/><path class="cls-10" d="M8.62,22.44c2.25,2.25,7.07-2.57,4.82-4.82"/></g><g><path class="cls-10" d="M22.46,8.64c-2.25-2.25-7.07,2.57-4.82,4.82"/><path class="cls-10" d="M25.32,15.55c0-3.18-6.82-3.18-6.82,0"/><path class="cls-10" d="M22.46,22.46c2.25-2.25-2.57-7.07-4.82-4.82"/><path class="cls-10" d="M15.55,25.32c3.18,0,3.18-6.82,0-6.82"/><path class="cls-10" d="M8.64,22.46c2.25,2.25,7.07-2.57,4.82-4.82"/></g><g><path class="cls-10" d="M22.48,8.66c-2.25-2.25-7.07,2.57-4.82,4.82"/><path class="cls-10" d="M25.34,15.57c0-3.18-6.82-3.18-6.82,0"/><path class="cls-10" d="M22.48,22.48c2.25-2.25-2.57-7.07-4.82-4.82"/><path class="cls-10" d="M15.57,25.34c3.18,0,3.18-6.82,0-6.82"/><path class="cls-10" d="M8.66,22.48c2.25,2.25,7.07-2.57,4.82-4.82"/></g><g><path class="cls-10" d="M22.5,8.68c-2.25-2.25-7.07,2.57-4.82,4.82"/><path class="cls-10" d="M25.36,15.59c0-3.18-6.82-3.18-6.82,0"/><path class="cls-10" d="M22.5,22.5c2.25-2.25-2.57-7.07-4.82-4.82"/><path class="cls-10" d="M15.59,25.36c3.18,0,3.18-6.82,0-6.82"/><path class="cls-10" d="M8.68,22.5c2.25,2.25,7.07-2.57,4.82-4.82"/></g><g><path class="cls-10" d="M22.52,8.7c-2.25-2.25-7.07,2.57-4.82,4.82"/><path class="cls-10" d="M25.38,15.61c0-3.18-6.82-3.18-6.82,0"/><path class="cls-10" d="M22.52,22.52c2.25-2.25-2.57-7.07-4.82-4.82"/><path class="cls-10" d="M15.61,25.38c3.18,0,3.18-6.82,0-6.82"/><path class="cls-10" d="M8.7,22.52c2.25,2.25,7.07-2.57,4.82-4.82"/></g><g><path class="cls-10" d="M22.54,8.72c-2.25-2.25-7.07,2.57-4.82,4.82"/><path class="cls-10" d="M25.4,15.63c0-3.18-6.82-3.18-6.82,0"/><path class="cls-10" d="M22.54,22.54c2.25-2.25-2.57-7.07-4.82-4.82"/><path class="cls-10" d="M15.63,25.4c3.18,0,3.18-6.82,0-6.82"/><path class="cls-10" d="M8.72,22.54c2.25,2.25,7.07-2.57,4.82-4.82"/></g><g><path class="cls-10" d="M22.56,8.74c-2.25-2.25-7.07,2.57-4.82,4.82"/><path class="cls-10" d="M25.42,15.65c0-3.18-6.82-3.18-6.82,0"/><path class="cls-10" d="M22.56,22.56c2.25-2.25-2.57-7.07-4.82-4.82"/><path class="cls-10" d="M15.65,25.42c3.18,0,3.18-6.82,0-6.82"/><path class="cls-10" d="M8.74,22.56c2.25,2.25,7.07-2.57,4.82-4.82"/></g><g><path class="cls-10" d="M22.58,8.76c-2.25-2.25-7.07,2.57-4.82,4.82"/><path class="cls-10" d="M25.44,15.67c0-3.18-6.82-3.18-6.82,0"/><path class="cls-10" d="M22.58,22.58c2.25-2.25-2.57-7.07-4.82-4.82"/><path class="cls-10" d="M15.67,25.44c3.18,0,3.18-6.82,0-6.82"/><path class="cls-10" d="M8.76,22.58c2.25,2.25,7.07-2.57,4.82-4.82"/></g><g><path class="cls-10" d="M22.6,8.78c-2.25-2.25-7.07,2.57-4.82,4.82"/><path class="cls-10" d="M25.46,15.69c0-3.18-6.82-3.18-6.82,0"/><path class="cls-10" d="M22.6,22.6c2.25-2.25-2.57-7.07-4.82-4.82"/><path class="cls-10" d="M15.69,25.46c3.18,0,3.18-6.82,0-6.82"/><path class="cls-10" d="M8.78,22.6c2.25,2.25,7.07-2.57,4.82-4.82"/></g><g><path class="cls-10" d="M22.62,8.8c-2.25-2.25-7.07,2.57-4.82,4.82"/><path class="cls-10" d="M25.48,15.71c0-3.18-6.82-3.18-6.82,0"/><path class="cls-10" d="M22.62,22.62c2.25-2.25-2.57-7.07-4.82-4.82"/><path class="cls-10" d="M15.71,25.48c3.18,0,3.18-6.82,0-6.82"/><path class="cls-10" d="M8.8,22.62c2.25,2.25,7.07-2.57,4.82-4.82"/></g><g><path class="cls-10" d="M22.64,8.82c-2.25-2.25-7.07,2.57-4.82,4.82"/><path class="cls-10" d="M25.5,15.73c0-3.18-6.82-3.18-6.82,0"/><path class="cls-10" d="M22.64,22.64c2.25-2.25-2.57-7.07-4.82-4.82"/><path class="cls-10" d="M15.73,25.5c3.18,0,3.18-6.82,0-6.82"/><path class="cls-10" d="M8.82,22.64c2.25,2.25,7.07-2.57,4.82-4.82"/></g><g><path class="cls-10" d="M22.66,8.84c-2.25-2.25-7.07,2.57-4.82,4.82"/><path class="cls-10" d="M25.52,15.75c0-3.18-6.82-3.18-6.82,0"/><path class="cls-10" d="M22.66,22.66c2.25-2.25-2.57-7.07-4.82-4.82"/><path class="cls-10" d="M15.75,25.52c3.18,0,3.18-6.82,0-6.82"/><path class="cls-10" d="M8.84,22.66c2.25,2.25,7.07-2.57,4.82-4.82"/></g><g><path class="cls-10" d="M22.68,8.86c-2.25-2.25-7.07,2.57-4.82,4.82"/><path class="cls-10" d="M25.54,15.77c0-3.18-6.82-3.18-6.82,0"/><path class="cls-10" d="M22.68,22.68c2.25-2.25-2.57-7.07-4.82-4.82"/><path class="cls-10" d="M15.77,25.54c3.18,0,3.18-6.82,0-6.82"/><path class="cls-10" d="M8.86,22.68c2.25,2.25,7.07-2.57,4.82-4.82"/></g><g><path class="cls-10" d="M22.7,8.88c-2.25-2.25-7.07,2.57-4.82,4.82"/><path class="cls-10" d="M25.56,15.79c0-3.18-6.82-3.18-6.82,0"/><path class="cls-10" d="M22.7,22.7c2.25-2.25-2.57-7.07-4.82-4.82"/><path class="cls-10" d="M15.79,25.56c3.18,0,3.18-6.82,0-6.82"/><path class="cls-10" d="M8.88,22.7c2.25,2.25,7.07-2.57,4.82-4.82"/></g><g><path class="cls-10" d="M22.72,8.9c-2.25-2.25-7.07,2.57-4.82,4.82"/><path class="cls-10" d="M25.58,15.81c0-3.18-6.82-3.18-6.82,0"/><path class="cls-10" d="M22.72,22.72c2.25-2.25-2.57-7.07-4.82-4.82"/><path class="cls-10" d="M15.81,25.58c3.18,0,3.18-6.82,0-6.82"/><path class="cls-10" d="M8.9,22.72c2.25,2.25,7.07-2.57,4.82-4.82"/></g><g><path class="cls-10" d="M22.74,8.92c-2.25-2.25-7.07,2.57-4.82,4.82"/><path class="cls-10" d="M25.6,15.83c0-3.18-6.82-3.18-6.82,0"/><path class="cls-10" d="M22.74,22.74c2.25-2.25-2.57-7.07-4.82-4.82"/><path class="cls-10" d="M15.83,25.6c3.18,0,3.18-6.82,0-6.82"/><path class="cls-10" d="M8.92,22.74c2.25,2.25,7.07-2.57,4.82-4.82"/></g><g><path class="cls-10" d="M22.76,8.94c-2.25-2.25-7.07,2.57-4.82,4.82"/><path class="cls-10" d="M25.62,15.85c0-3.18-6.82-3.18-6.82,0"/><path class="cls-10" d="M22.76,22.76c2.25-2.25-2.57-7.07-4.82-4.82"/><path class="cls-10" d="M15.85,25.62c3.18,0,3.18-6.82,0-6.82"/><path class="cls-10" d="M8.94,22.76c2.25,2.25,7.07-2.57,4.82-4.82"/></g><g><path class="cls-10" d="M22.78,8.96c-2.25-2.25-7.07,2.57-4.82,4.82"/><path class="cls-10" d="M25.64,15.87c0-3.18-6.82-3.18-6.82,0"/><path class="cls-10" d="M22.78,22.78c2.25-2.25-2.57-7.07-4.82-4.82"/><path class="cls-10" d="M15.87,25.64c3.18,0,3.18-6.82,0-6.82"/><path class="cls-10" d="M8.96,22.78c2.25,2.25,7.07-2.57,4.82-4.82"/></g><g><path class="cls-10" d="M22.8,8.98c-2.25-2.25-7.07,2.57-4.82,4.82"/><path class="cls-10" d="M25.66,15.89c0-3.18-6.82-3.18-6.82,0"/><path class="cls-10" d="M22.8,22.8c2.25-2.25-2.57-7.07-4.82-4.82"/><path class="cls-10" d="M15.89,25.66c3.18,0,3.18-6.82,0-6.82"/><path class="cls-10" d="M8.98,22.8c2.25,2.25,7.07-2.57,4.82-4.82"/></g><g><path class="cls-10" d="M22.82,9c-2.25-2.25-7.07,2.57-4.82,4.82"/><path class="cls-10" d="M25.68,15.91c0-3.18-6.82-3.18-6.82,0"/><path class="cls-10" d="M22.82,22.82c2.25-2.25-2.57-7.07-4.82-4.82"/><path class="cls-10" d="M15.91,25.68c3.18,0,3.18-6.82,0-6.82"/><path class="cls-10" d="M9,22.82c2.25,2.25,7.07-2.57,4.82-4.82"/></g><g><path class="cls-10" d="M22.84,9.02c-2.25-2.25-7.07,2.57-4.82,4.82"/><path class="cls-10" d="M25.7,15.93c0-3.18-6.82-3.18-6.82,0"/><path class="cls-10" d="M22.84,22.84c2.25-2.25-2.57-7.07-4.82-4.82"/><path class="cls-10" d="M15.93,25.7c3.18,0,3.18-6.82,0-6.82"/><path class="cls-10" d="M9.02,22.84c2.25,2.25,7.07-2.57,4.82-4.82"/></g><g><path class="cls-10" d="M22.86,9.04c-2.25-2.25-7.07,2.57-4.82,4.82"/><path class="cls-10" d="M25.72,15.95c0-3.18-6.82-3.18-6.82,0"/><path class="cls-10" d="M22.86,22.86c2.25-2.25-2.57-7.07-4.82-4.82"/><path class="cls-10" d="M15.95,25.72c3.18,0,3.18-6.82,0-6.82"/><path class="cls-10" d="M9.04,22.86c2.25,2.25,7.07-2.57,4.82-4.82"/></g><g><path class="cls-10" d="M22.88,9.06c-2.25-2.25-7.07,2.57-4.82,4.82"/><path class="cls-10" d="M25.74,15.97c0-3.18-6.82-3.18-6.82,0"/><path class="cls-10" d="M22.88,22.88c2.25-2.25-2.57-7.07-4.82-4.82"/><path class="cls-10" d="M15.97,25.74c3.18,0,3.18-6.82,0-6.82"/><path class="cls-10" d="M9.06,22.88c2.25,2.25,7.07-2.57,4.82-4.82"/></g><g><path class="cls-10" d="M22.9,9.07c-2.25-2.25-7.07,2.57-4.82,4.82"/><path class="cls-10" d="M25.76,15.99c0-3.18-6.82-3.18-6.82,0"/><path class="cls-10" d="M22.9,22.9c2.25-2.25-2.57-7.07-4.82-4.82"/><path class="cls-10" d="M15.99,25.76c3.18,0,3.18-6.82,0-6.82"/><path class="cls-10" d="M9.07,22.9c2.25,2.25,7.07-2.57,4.82-4.82"/></g><g><path class="cls-10" d="M22.92,9.09c-2.25-2.25-7.07,2.57-4.82,4.82"/><path class="cls-10" d="M25.78,16c0-3.18-6.82-3.18-6.82,0"/><path class="cls-10" d="M22.92,22.92c2.25-2.25-2.57-7.07-4.82-4.82"/><path class="cls-10" d="M16,25.78c3.18,0,3.18-6.82,0-6.82"/><path class="cls-10" d="M9.09,22.92c2.25,2.25,7.07-2.57,4.82-4.82"/></g><g><path class="cls-10" d="M22.94,9.11c-2.25-2.25-7.07,2.57-4.82,4.82"/><path class="cls-10" d="M25.8,16.02c0-3.18-6.82-3.18-6.82,0"/><path class="cls-10" d="M22.94,22.94c2.25-2.25-2.57-7.07-4.82-4.82"/><path class="cls-10" d="M16.02,25.8c3.18,0,3.18-6.82,0-6.82"/><path class="cls-10" d="M9.11,22.94c2.25,2.25,7.07-2.57,4.82-4.82"/></g><g><path class="cls-10" d="M22.95,9.13c-2.25-2.25-7.07,2.57-4.82,4.82"/><path class="cls-10" d="M25.82,16.04c0-3.18-6.82-3.18-6.82,0"/><path class="cls-10" d="M22.95,22.95c2.25-2.25-2.57-7.07-4.82-4.82"/><path class="cls-10" d="M16.04,25.82c3.18,0,3.18-6.82,0-6.82"/><path class="cls-10" d="M9.13,22.95c2.25,2.25,7.07-2.57,4.82-4.82"/></g><g><path class="cls-10" d="M22.97,9.15c-2.25-2.25-7.07,2.57-4.82,4.82"/><path class="cls-10" d="M25.84,16.06c0-3.18-6.82-3.18-6.82,0"/><path class="cls-10" d="M22.97,22.97c2.25-2.25-2.57-7.07-4.82-4.82"/><path class="cls-10" d="M16.06,25.84c3.18,0,3.18-6.82,0-6.82"/><path class="cls-10" d="M9.15,22.97c2.25,2.25,7.07-2.57,4.82-4.82"/></g><g><path class="cls-10" d="M22.99,9.17c-2.25-2.25-7.07,2.57-4.82,4.82"/><path class="cls-10" d="M25.86,16.08c0-3.18-6.82-3.18-6.82,0"/><path class="cls-10" d="M22.99,22.99c2.25-2.25-2.57-7.07-4.82-4.82"/><path class="cls-10" d="M16.08,25.86c3.18,0,3.18-6.82,0-6.82"/><path class="cls-10" d="M9.17,22.99c2.25,2.25,7.07-2.57,4.82-4.82"/></g><g><path class="cls-10" d="M23.01,9.19c-2.25-2.25-7.07,2.57-4.82,4.82"/><path class="cls-10" d="M25.88,16.1c0-3.18-6.82-3.18-6.82,0"/><path class="cls-10" d="M23.01,23.01c2.25-2.25-2.57-7.07-4.82-4.82"/><path class="cls-10" d="M16.1,25.88c3.18,0,3.18-6.82,0-6.82"/><path class="cls-10" d="M9.19,23.01c2.25,2.25,7.07-2.57,4.82-4.82"/></g><g><path class="cls-10" d="M23.03,9.21c-2.25-2.25-7.07,2.57-4.82,4.82"/><path class="cls-10" d="M25.9,16.12c0-3.18-6.82-3.18-6.82,0"/><path class="cls-10" d="M23.03,23.03c2.25-2.25-2.57-7.07-4.82-4.82"/><path class="cls-10" d="M16.12,25.9c3.18,0,3.18-6.82,0-6.82"/><path class="cls-10" d="M9.21,23.03c2.25,2.25,7.07-2.57,4.82-4.82"/></g><g><path class="cls-10" d="M23.05,9.23c-2.25-2.25-7.07,2.57-4.82,4.82"/><path class="cls-10" d="M25.92,16.14c0-3.18-6.82-3.18-6.82,0"/><path class="cls-10" d="M23.05,23.05c2.25-2.25-2.57-7.07-4.82-4.82"/><path class="cls-10" d="M16.14,25.92c3.18,0,3.18-6.82,0-6.82"/><path class="cls-10" d="M9.23,23.05c2.25,2.25,7.07-2.57,4.82-4.82"/></g><g><path class="cls-10" d="M23.07,9.25c-2.25-2.25-7.07,2.57-4.82,4.82"/><path class="cls-10" d="M25.94,16.16c0-3.18-6.82-3.18-6.82,0"/><path class="cls-10" d="M23.07,23.07c2.25-2.25-2.57-7.07-4.82-4.82"/><path class="cls-10" d="M16.16,25.94c3.18,0,3.18-6.82,0-6.82"/><path class="cls-10" d="M9.25,23.07c2.25,2.25,7.07-2.57,4.82-4.82"/></g><g><path class="cls-10" d="M23.09,9.27c-2.25-2.25-7.07,2.57-4.82,4.82"/><path class="cls-10" d="M25.96,16.18c0-3.18-6.82-3.18-6.82,0"/><path class="cls-10" d="M23.09,23.09c2.25-2.25-2.57-7.07-4.82-4.82"/><path class="cls-10" d="M16.18,25.96c3.18,0,3.18-6.82,0-6.82"/><path class="cls-10" d="M9.27,23.09c2.25,2.25,7.07-2.57,4.82-4.82"/></g><g><path class="cls-10" d="M23.11,9.29c-2.25-2.25-7.07,2.57-4.82,4.82"/><path class="cls-10" d="M25.98,16.2c0-3.18-6.82-3.18-6.82,0"/><path class="cls-10" d="M23.11,23.11c2.25-2.25-2.57-7.07-4.82-4.82"/><path class="cls-10" d="M16.2,25.98c3.18,0,3.18-6.82,0-6.82"/><path class="cls-10" d="M9.29,23.11c2.25,2.25,7.07-2.57,4.82-4.82"/></g><g><path class="cls-10" d="M23.13,9.31c-2.25-2.25-7.07,2.57-4.82,4.82"/><path class="cls-10" d="M26,16.22c0-3.18-6.82-3.18-6.82,0"/><path class="cls-10" d="M23.13,23.13c2.25-2.25-2.57-7.07-4.82-4.82"/><path class="cls-10" d="M16.22,26c3.18,0,3.18-6.82,0-6.82"/><path class="cls-10" d="M9.31,23.13c2.25,2.25,7.07-2.57,4.82-4.82"/></g><g><path class="cls-10" d="M23.15,9.33c-2.25-2.25-7.07,2.57-4.82,4.82"/><path class="cls-10" d="M26.02,16.24c0-3.18-6.82-3.18-6.82,0"/><path class="cls-10" d="M23.15,23.15c2.25-2.25-2.57-7.07-4.82-4.82"/><path class="cls-10" d="M16.24,26.02c3.18,0,3.18-6.82,0-6.82"/><path class="cls-10" d="M9.33,23.15c2.25,2.25,7.07-2.57,4.82-4.82"/></g><g><path class="cls-10" d="M23.17,9.35c-2.25-2.25-7.07,2.57-4.82,4.82"/><path class="cls-10" d="M26.04,16.26c0-3.18-6.82-3.18-6.82,0"/><path class="cls-10" d="M23.17,23.17c2.25-2.25-2.57-7.07-4.82-4.82"/><path class="cls-10" d="M16.26,26.04c3.18,0,3.18-6.82,0-6.82"/><path class="cls-10" d="M9.35,23.17c2.25,2.25,7.07-2.57,4.82-4.82"/></g><g><path class="cls-10" d="M23.19,9.37c-2.25-2.25-7.07,2.57-4.82,4.82"/><path class="cls-10" d="M26.05,16.28c0-3.18-6.82-3.18-6.82,0"/><path class="cls-10" d="M23.19,23.19c2.25-2.25-2.57-7.07-4.82-4.82"/><path class="cls-10" d="M16.28,26.05c3.18,0,3.18-6.82,0-6.82"/><path class="cls-10" d="M9.37,23.19c2.25,2.25,7.07-2.57,4.82-4.82"/></g><g><path class="cls-10" d="M23.21,9.39c-2.25-2.25-7.07,2.57-4.82,4.82"/><path class="cls-10" d="M26.07,16.3c0-3.18-6.82-3.18-6.82,0"/><path class="cls-10" d="M23.21,23.21c2.25-2.25-2.57-7.07-4.82-4.82"/><path class="cls-10" d="M16.3,26.07c3.18,0,3.18-6.82,0-6.82"/><path class="cls-10" d="M9.39,23.21c2.25,2.25,7.07-2.57,4.82-4.82"/></g><g><path class="cls-10" d="M23.23,9.41c-2.25-2.25-7.07,2.57-4.82,4.82"/><path class="cls-10" d="M26.09,16.32c0-3.18-6.82-3.18-6.82,0"/><path class="cls-10" d="M23.23,23.23c2.25-2.25-2.57-7.07-4.82-4.82"/><path class="cls-10" d="M16.32,26.09c3.18,0,3.18-6.82,0-6.82"/><path class="cls-10" d="M9.41,23.23c2.25,2.25,7.07-2.57,4.82-4.82"/></g><g><path class="cls-10" d="M23.25,9.43c-2.25-2.25-7.07,2.57-4.82,4.82"/><path class="cls-10" d="M26.11,16.34c0-3.18-6.82-3.18-6.82,0"/><path class="cls-10" d="M23.25,23.25c2.25-2.25-2.57-7.07-4.82-4.82"/><path class="cls-10" d="M16.34,26.11c3.18,0,3.18-6.82,0-6.82"/><path class="cls-10" d="M9.43,23.25c2.25,2.25,7.07-2.57,4.82-4.82"/></g><g><path class="cls-10" d="M23.27,9.45c-2.25-2.25-7.07,2.57-4.82,4.82"/><path class="cls-10" d="M26.13,16.36c0-3.18-6.82-3.18-6.82,0"/><path class="cls-10" d="M23.27,23.27c2.25-2.25-2.57-7.07-4.82-4.82"/><path class="cls-10" d="M16.36,26.13c3.18,0,3.18-6.82,0-6.82"/><path class="cls-10" d="M9.45,23.27c2.25,2.25,7.07-2.57,4.82-4.82"/></g><g><path class="cls-10" d="M23.29,9.47c-2.25-2.25-7.07,2.57-4.82,4.82"/><path class="cls-10" d="M26.15,16.38c0-3.18-6.82-3.18-6.82,0"/><path class="cls-10" d="M23.29,23.29c2.25-2.25-2.57-7.07-4.82-4.82"/><path class="cls-10" d="M16.38,26.15c3.18,0,3.18-6.82,0-6.82"/><path class="cls-10" d="M9.47,23.29c2.25,2.25,7.07-2.57,4.82-4.82"/></g><g><path class="cls-10" d="M23.31,9.49c-2.25-2.25-7.07,2.57-4.82,4.82"/><path class="cls-10" d="M26.17,16.4c0-3.18-6.82-3.18-6.82,0"/><path class="cls-10" d="M23.31,23.31c2.25-2.25-2.57-7.07-4.82-4.82"/><path class="cls-10" d="M16.4,26.17c3.18,0,3.18-6.82,0-6.82"/><path class="cls-10" d="M9.49,23.31c2.25,2.25,7.07-2.57,4.82-4.82"/></g><g><path class="cls-10" d="M23.33,9.51c-2.25-2.25-7.07,2.57-4.82,4.82"/><path class="cls-10" d="M26.19,16.42c0-3.18-6.82-3.18-6.82,0"/><path class="cls-10" d="M23.33,23.33c2.25-2.25-2.57-7.07-4.82-4.82"/><path class="cls-10" d="M16.42,26.19c3.18,0,3.18-6.82,0-6.82"/><path class="cls-10" d="M9.51,23.33c2.25,2.25,7.07-2.57,4.82-4.82"/></g><g><path class="cls-10" d="M23.35,9.53c-2.25-2.25-7.07,2.57-4.82,4.82"/><path class="cls-10" d="M26.21,16.44c0-3.18-6.82-3.18-6.82,0"/><path class="cls-10" d="M23.35,23.35c2.25-2.25-2.57-7.07-4.82-4.82"/><path class="cls-10" d="M16.44,26.21c3.18,0,3.18-6.82,0-6.82"/><path class="cls-10" d="M9.53,23.35c2.25,2.25,7.07-2.57,4.82-4.82"/></g><g><path class="cls-10" d="M23.37,9.55c-2.25-2.25-7.07,2.57-4.82,4.82"/><path class="cls-10" d="M26.23,16.46c0-3.18-6.82-3.18-6.82,0"/><path class="cls-10" d="M23.37,23.37c2.25-2.25-2.57-7.07-4.82-4.82"/><path class="cls-10" d="M16.46,26.23c3.18,0,3.18-6.82,0-6.82"/><path class="cls-10" d="M9.55,23.37c2.25,2.25,7.07-2.57,4.82-4.82"/></g><g><path class="cls-10" d="M23.39,9.57c-2.25-2.25-7.07,2.57-4.82,4.82"/><path class="cls-10" d="M26.25,16.48c0-3.18-6.82-3.18-6.82,0"/><path class="cls-10" d="M23.39,23.39c2.25-2.25-2.57-7.07-4.82-4.82"/><path class="cls-10" d="M16.48,26.25c3.18,0,3.18-6.82,0-6.82"/><path class="cls-10" d="M9.57,23.39c2.25,2.25,7.07-2.57,4.82-4.82"/></g><g><path class="cls-10" d="M23.41,9.59c-2.25-2.25-7.07,2.57-4.82,4.82"/><path class="cls-10" d="M26.27,16.5c0-3.18-6.82-3.18-6.82,0"/><path class="cls-10" d="M23.41,23.41c2.25-2.25-2.57-7.07-4.82-4.82"/><path class="cls-10" d="M16.5,26.27c3.18,0,3.18-6.82,0-6.82"/><path class="cls-10" d="M9.59,23.41c2.25,2.25,7.07-2.57,4.82-4.82"/></g></g><g><circle class="cls-15" cx="14.55" cy="14.55" r="3"/><circle class="cls-15" cx="14.56" cy="14.56" r="3"/><circle class="cls-15" cx="14.58" cy="14.58" r="3"/><circle class="cls-5" cx="14.6" cy="14.6" r="3"/><circle class="cls-2" cx="14.62" cy="14.62" r="3"/><circle class="cls-2" cx="14.64" cy="14.64" r="3"/><circle class="cls-2" cx="14.66" cy="14.66" r="3"/><circle class="cls-2" cx="14.68" cy="14.68" r="3"/><circle class="cls-2" cx="14.7" cy="14.7" r="3"/><circle class="cls-2" cx="14.72" cy="14.72" r="3"/><circle class="cls-2" cx="14.74" cy="14.74" r="3"/><circle class="cls-11" cx="14.76" cy="14.76" r="3"/><circle class="cls-11" cx="14.78" cy="14.78" r="3"/><circle class="cls-11" cx="14.8" cy="14.8" r="3"/><circle class="cls-11" cx="14.82" cy="14.82" r="3"/><circle class="cls-11" cx="14.84" cy="14.84" r="3"/><circle class="cls-11" cx="14.86" cy="14.86" r="3"/><circle class="cls-6" cx="14.87" cy="14.87" r="3"/><circle class="cls-6" cx="14.89" cy="14.89" r="3"/><circle class="cls-6" cx="14.91" cy="14.91" r="3"/><circle class="cls-6" cx="14.93" cy="14.93" r="3"/><circle class="cls-6" cx="14.95" cy="14.95" r="3"/><circle class="cls-6" cx="14.97" cy="14.97" r="3"/><circle class="cls-6" cx="14.99" cy="14.99" r="3"/><circle class="cls-14" cx="15.01" cy="15.01" r="3"/><circle class="cls-14" cx="15.03" cy="15.03" r="3"/><circle class="cls-14" cx="15.05" cy="15.05" r="3"/><circle class="cls-14" cx="15.07" cy="15.07" r="3"/><circle class="cls-14" cx="15.09" cy="15.09" r="3"/><circle class="cls-14" cx="15.11" cy="15.11" r="3"/><circle class="cls-14" cx="15.13" cy="15.13" r="3"/><circle class="cls-9" cx="15.15" cy="15.15" r="3"/><circle class="cls-9" cx="15.16" cy="15.16" r="3"/><circle class="cls-9" cx="15.18" cy="15.18" r="3"/><circle class="cls-9" cx="15.2" cy="15.2" r="3"/><circle class="cls-9" cx="15.22" cy="15.22" r="3"/><circle class="cls-9" cx="15.24" cy="15.24" r="3"/><circle class="cls-9" cx="15.26" cy="15.26" r="3"/><circle class="cls-19" cx="15.28" cy="15.28" r="3"/><circle class="cls-19" cx="15.3" cy="15.3" r="3"/><circle class="cls-19" cx="15.32" cy="15.32" r="3"/><circle class="cls-19" cx="15.34" cy="15.34" r="3"/><circle class="cls-19" cx="15.36" cy="15.36" r="3"/><circle class="cls-19" cx="15.38" cy="15.38" r="3"/><circle class="cls-18" cx="15.4" cy="15.4" r="3"/><circle class="cls-18" cx="15.42" cy="15.42" r="3"/><circle class="cls-18" cx="15.44" cy="15.44" r="3"/><circle class="cls-18" cx="15.45" cy="15.45" r="3"/><circle class="cls-18" cx="15.47" cy="15.47" r="3"/><circle class="cls-18" cx="15.49" cy="15.49" r="3"/><circle class="cls-18" cx="15.51" cy="15.51" r="3"/><circle class="cls-17" cx="15.53" cy="15.53" r="3"/><circle class="cls-17" cx="15.55" cy="15.55" r="3"/><circle class="cls-17" cx="15.57" cy="15.57" r="3"/><circle class="cls-17" cx="15.59" cy="15.59" r="3"/><circle class="cls-17" cx="15.61" cy="15.61" r="3"/><circle class="cls-17" cx="15.63" cy="15.63" r="3"/><circle class="cls-17" cx="15.65" cy="15.65" r="3"/><circle class="cls-13" cx="15.67" cy="15.67" r="3"/><circle class="cls-13" cx="15.69" cy="15.69" r="3"/><circle class="cls-13" cx="15.71" cy="15.71" r="3"/><circle class="cls-13" cx="15.73" cy="15.73" r="3"/><circle class="cls-13" cx="15.75" cy="15.75" r="3"/><circle class="cls-13" cx="15.76" cy="15.76" r="3"/><circle class="cls-16" cx="15.78" cy="15.78" r="3"/><circle class="cls-16" cx="15.8" cy="15.8" r="3"/><circle class="cls-16" cx="15.82" cy="15.82" r="3"/><circle class="cls-16" cx="15.84" cy="15.84" r="3"/><circle class="cls-16" cx="15.86" cy="15.86" r="3"/><circle class="cls-16" cx="15.88" cy="15.88" r="3"/><circle class="cls-16" cx="15.9" cy="15.9" r="3"/><circle class="cls-1" cx="15.92" cy="15.92" r="3"/><circle class="cls-1" cx="15.94" cy="15.94" r="3"/><circle class="cls-1" cx="15.96" cy="15.96" r="3"/><circle class="cls-1" cx="15.98" cy="15.98" r="3"/><circle class="cls-1" cx="16" cy="16" r="3"/><circle class="cls-1" cx="16.02" cy="16.02" r="3"/><circle class="cls-1" cx="16.04" cy="16.04" r="3"/><circle class="cls-12" cx="16.05" cy="16.05" r="3"/><circle class="cls-12" cx="16.07" cy="16.07" r="3"/><circle class="cls-12" cx="16.09" cy="16.09" r="3"/><circle class="cls-12" cx="16.11" cy="16.11" r="3"/><circle class="cls-12" cx="16.13" cy="16.13" r="3"/><circle class="cls-12" cx="16.15" cy="16.15" r="3"/><circle class="cls-12" cx="16.17" cy="16.17" r="3"/><circle class="cls-7" cx="16.19" cy="16.19" r="3"/><circle class="cls-7" cx="16.21" cy="16.21" r="3"/><circle class="cls-7" cx="16.23" cy="16.23" r="3"/><circle class="cls-7" cx="16.25" cy="16.25" r="3"/><circle class="cls-7" cx="16.27" cy="16.27" r="3"/><circle class="cls-7" cx="16.29" cy="16.29" r="3"/><circle class="cls-8" cx="16.31" cy="16.31" r="3"/><circle class="cls-8" cx="16.33" cy="16.33" r="3"/><circle class="cls-8" cx="16.35" cy="16.35" r="3"/><circle class="cls-8" cx="16.36" cy="16.36" r="3"/><circle class="cls-8" cx="16.38" cy="16.38" r="3"/><circle class="cls-8" cx="16.4" cy="16.4" r="3"/><circle class="cls-8" cx="16.42" cy="16.42" r="3"/><circle class="cls-4" cx="16.44" cy="16.44" r="3"/><circle class="cls-4" cx="16.46" cy="16.46" r="3"/><circle class="cls-4" cx="16.48" cy="16.48" r="3"/><circle class="cls-4" cx="16.5" cy="16.5" r="3"/></g><g><g><path class="cls-10" d="M4.73,14.5c0,3.18,6.82,3.18,6.82,0"/><path class="cls-10" d="M7.59,7.59c-2.25,2.25,2.57,7.07,4.82,4.82"/><path class="cls-10" d="M14.5,4.73c-3.18,0-3.18,6.82,0,6.82"/></g><g><path class="cls-10" d="M4.75,14.52c0,3.18,6.82,3.18,6.82,0"/><path class="cls-10" d="M7.61,7.61c-2.25,2.25,2.57,7.07,4.82,4.82"/><path class="cls-10" d="M14.52,4.75c-3.18,0-3.18,6.82,0,6.82"/></g><g><path class="cls-10" d="M4.77,14.54c0,3.18,6.82,3.18,6.82,0"/><path class="cls-10" d="M7.63,7.63c-2.25,2.25,2.57,7.07,4.82,4.82"/><path class="cls-10" d="M14.54,4.77c-3.18,0-3.18,6.82,0,6.82"/></g><g><path class="cls-10" d="M4.79,14.56c0,3.18,6.82,3.18,6.82,0"/><path class="cls-10" d="M7.65,7.65c-2.25,2.25,2.57,7.07,4.82,4.82"/><path class="cls-10" d="M14.56,4.79c-3.18,0-3.18,6.82,0,6.82"/></g><g><path class="cls-10" d="M4.81,14.58c0,3.18,6.82,3.18,6.82,0"/><path class="cls-10" d="M7.67,7.67c-2.25,2.25,2.57,7.07,4.82,4.82"/><path class="cls-10" d="M14.58,4.81c-3.18,0-3.18,6.82,0,6.82"/></g><g><path class="cls-10" d="M4.83,14.6c0,3.18,6.82,3.18,6.82,0"/><path class="cls-10" d="M7.69,7.69c-2.25,2.25,2.57,7.07,4.82,4.82"/><path class="cls-10" d="M14.6,4.83c-3.18,0-3.18,6.82,0,6.82"/></g><g><path class="cls-10" d="M4.85,14.62c0,3.18,6.82,3.18,6.82,0"/><path class="cls-10" d="M7.71,7.71c-2.25,2.25,2.57,7.07,4.82,4.82"/><path class="cls-10" d="M14.62,4.85c-3.18,0-3.18,6.82,0,6.82"/></g><g><path class="cls-10" d="M4.87,14.64c0,3.18,6.82,3.18,6.82,0"/><path class="cls-10" d="M7.73,7.73c-2.25,2.25,2.57,7.07,4.82,4.82"/><path class="cls-10" d="M14.64,4.87c-3.18,0-3.18,6.82,0,6.82"/></g><g><path class="cls-10" d="M4.89,14.66c0,3.18,6.82,3.18,6.82,0"/><path class="cls-10" d="M7.75,7.75c-2.25,2.25,2.57,7.07,4.82,4.82"/><path class="cls-10" d="M14.66,4.89c-3.18,0-3.18,6.82,0,6.82"/></g><g><path class="cls-10" d="M4.91,14.68c0,3.18,6.82,3.18,6.82,0"/><path class="cls-10" d="M7.77,7.77c-2.25,2.25,2.57,7.07,4.82,4.82"/><path class="cls-10" d="M14.68,4.91c-3.18,0-3.18,6.82,0,6.82"/></g><g><path class="cls-10" d="M4.93,14.7c0,3.18,6.82,3.18,6.82,0"/><path class="cls-10" d="M7.79,7.79c-2.25,2.25,2.57,7.07,4.82,4.82"/><path class="cls-10" d="M14.7,4.93c-3.18,0-3.18,6.82,0,6.82"/></g><g><path class="cls-10" d="M4.95,14.72c0,3.18,6.82,3.18,6.82,0"/><path class="cls-10" d="M7.81,7.81c-2.25,2.25,2.57,7.07,4.82,4.82"/><path class="cls-10" d="M14.72,4.95c-3.18,0-3.18,6.82,0,6.82"/></g><g><path class="cls-10" d="M4.96,14.74c0,3.18,6.82,3.18,6.82,0"/><path class="cls-10" d="M7.83,7.83c-2.25,2.25,2.57,7.07,4.82,4.82"/><path class="cls-10" d="M14.74,4.96c-3.18,0-3.18,6.82,0,6.82"/></g><g><path class="cls-10" d="M4.98,14.76c0,3.18,6.82,3.18,6.82,0"/><path class="cls-10" d="M7.85,7.85c-2.25,2.25,2.57,7.07,4.82,4.82"/><path class="cls-10" d="M14.76,4.98c-3.18,0-3.18,6.82,0,6.82"/></g><g><path class="cls-10" d="M5,14.78c0,3.18,6.82,3.18,6.82,0"/><path class="cls-10" d="M7.87,7.87c-2.25,2.25,2.57,7.07,4.82,4.82"/><path class="cls-10" d="M14.78,5c-3.18,0-3.18,6.82,0,6.82"/></g><g><path class="cls-10" d="M5.02,14.8c0,3.18,6.82,3.18,6.82,0"/><path class="cls-10" d="M7.89,7.89c-2.25,2.25,2.57,7.07,4.82,4.82"/><path class="cls-10" d="M14.8,5.02c-3.18,0-3.18,6.82,0,6.82"/></g><g><path class="cls-10" d="M5.04,14.82c0,3.18,6.82,3.18,6.82,0"/><path class="cls-10" d="M7.91,7.91c-2.25,2.25,2.57,7.07,4.82,4.82"/><path class="cls-10" d="M14.82,5.04c-3.18,0-3.18,6.82,0,6.82"/></g><g><path class="cls-10" d="M5.06,14.84c0,3.18,6.82,3.18,6.82,0"/><path class="cls-10" d="M7.93,7.93c-2.25,2.25,2.57,7.07,4.82,4.82"/><path class="cls-10" d="M14.84,5.06c-3.18,0-3.18,6.82,0,6.82"/></g><g><path class="cls-10" d="M5.08,14.86c0,3.18,6.82,3.18,6.82,0"/><path class="cls-10" d="M7.95,7.95c-2.25,2.25,2.57,7.07,4.82,4.82"/><path class="cls-10" d="M14.86,5.08c-3.18,0-3.18,6.82,0,6.82"/></g><g><path class="cls-10" d="M5.1,14.88c0,3.18,6.82,3.18,6.82,0"/><path class="cls-10" d="M7.97,7.97c-2.25,2.25,2.57,7.07,4.82,4.82"/><path class="cls-10" d="M14.88,5.1c-3.18,0-3.18,6.82,0,6.82"/></g><g><path class="cls-10" d="M5.12,14.9c0,3.18,6.82,3.18,6.82,0"/><path class="cls-10" d="M7.99,7.99c-2.25,2.25,2.57,7.07,4.82,4.82"/><path class="cls-10" d="M14.9,5.12c-3.18,0-3.18,6.82,0,6.82"/></g><g><path class="cls-10" d="M5.14,14.92c0,3.18,6.82,3.18,6.82,0"/><path class="cls-10" d="M8.01,8.01c-2.25,2.25,2.57,7.07,4.82,4.82"/><path class="cls-10" d="M14.92,5.14c-3.18,0-3.18,6.82,0,6.82"/></g><g><path class="cls-10" d="M5.16,14.94c0,3.18,6.82,3.18,6.82,0"/><path class="cls-10" d="M8.03,8.03c-2.25,2.25,2.57,7.07,4.82,4.82"/><path class="cls-10" d="M14.94,5.16c-3.18,0-3.18,6.82,0,6.82"/></g><g><path class="cls-10" d="M5.18,14.96c0,3.18,6.82,3.18,6.82,0"/><path class="cls-10" d="M8.05,8.05c-2.25,2.25,2.57,7.07,4.82,4.82"/><path class="cls-10" d="M14.96,5.18c-3.18,0-3.18,6.82,0,6.82"/></g><g><path class="cls-10" d="M5.2,14.98c0,3.18,6.82,3.18,6.82,0"/><path class="cls-10" d="M8.06,8.06c-2.25,2.25,2.57,7.07,4.82,4.82"/><path class="cls-10" d="M14.98,5.2c-3.18,0-3.18,6.82,0,6.82"/></g><g><path class="cls-10" d="M5.22,15c0,3.18,6.82,3.18,6.82,0"/><path class="cls-10" d="M8.08,8.08c-2.25,2.25,2.57,7.07,4.82,4.82"/><path class="cls-10" d="M15,5.22c-3.18,0-3.18,6.82,0,6.82"/></g><g><path class="cls-10" d="M5.24,15.01c0,3.18,6.82,3.18,6.82,0"/><path class="cls-10" d="M8.1,8.1c-2.25,2.25,2.57,7.07,4.82,4.82"/><path class="cls-10" d="M15.01,5.24c-3.18,0-3.18,6.82,0,6.82"/></g><g><path class="cls-10" d="M5.26,15.03c0,3.18,6.82,3.18,6.82,0"/><path class="cls-10" d="M8.12,8.12c-2.25,2.25,2.57,7.07,4.82,4.82"/><path class="cls-10" d="M15.03,5.26c-3.18,0-3.18,6.82,0,6.82"/></g><g><path class="cls-10" d="M5.28,15.05c0,3.18,6.82,3.18,6.82,0"/><path class="cls-10" d="M8.14,8.14c-2.25,2.25,2.57,7.07,4.82,4.82"/><path class="cls-10" d="M15.05,5.28c-3.18,0-3.18,6.82,0,6.82"/></g><g><path class="cls-10" d="M5.3,15.07c0,3.18,6.82,3.18,6.82,0"/><path class="cls-10" d="M8.16,8.16c-2.25,2.25,2.57,7.07,4.82,4.82"/><path class="cls-10" d="M15.07,5.3c-3.18,0-3.18,6.82,0,6.82"/></g><g><path class="cls-10" d="M5.32,15.09c0,3.18,6.82,3.18,6.82,0"/><path class="cls-10" d="M8.18,8.18c-2.25,2.25,2.57,7.07,4.82,4.82"/><path class="cls-10" d="M15.09,5.32c-3.18,0-3.18,6.82,0,6.82"/></g><g><path class="cls-10" d="M5.34,15.11c0,3.18,6.82,3.18,6.82,0"/><path class="cls-10" d="M8.2,8.2c-2.25,2.25,2.57,7.07,4.82,4.82"/><path class="cls-10" d="M15.11,5.34c-3.18,0-3.18,6.82,0,6.82"/></g><g><path class="cls-10" d="M5.36,15.13c0,3.18,6.82,3.18,6.82,0"/><path class="cls-10" d="M8.22,8.22c-2.25,2.25,2.57,7.07,4.82,4.82"/><path class="cls-10" d="M15.13,5.36c-3.18,0-3.18,6.82,0,6.82"/></g><g><path class="cls-10" d="M5.38,15.15c0,3.18,6.82,3.18,6.82,0"/><path class="cls-10" d="M8.24,8.24c-2.25,2.25,2.57,7.07,4.82,4.82"/><path class="cls-10" d="M15.15,5.38c-3.18,0-3.18,6.82,0,6.82"/></g><g><path class="cls-10" d="M5.4,15.17c0,3.18,6.82,3.18,6.82,0"/><path class="cls-10" d="M8.26,8.26c-2.25,2.25,2.57,7.07,4.82,4.82"/><path class="cls-10" d="M15.17,5.4c-3.18,0-3.18,6.82,0,6.82"/></g><g><path class="cls-10" d="M5.42,15.19c0,3.18,6.82,3.18,6.82,0"/><path class="cls-10" d="M8.28,8.28c-2.25,2.25,2.57,7.07,4.82,4.82"/><path class="cls-10" d="M15.19,5.42c-3.18,0-3.18,6.82,0,6.82"/></g><g><path class="cls-10" d="M5.44,15.21c0,3.18,6.82,3.18,6.82,0"/><path class="cls-10" d="M8.3,8.3c-2.25,2.25,2.57,7.07,4.82,4.82"/><path class="cls-10" d="M15.21,5.44c-3.18,0-3.18,6.82,0,6.82"/></g><g><path class="cls-10" d="M5.46,15.23c0,3.18,6.82,3.18,6.82,0"/><path class="cls-10" d="M8.32,8.32c-2.25,2.25,2.57,7.07,4.82,4.82"/><path class="cls-10" d="M15.23,5.46c-3.18,0-3.18,6.82,0,6.82"/></g><g><path class="cls-10" d="M5.48,15.25c0,3.18,6.82,3.18,6.82,0"/><path class="cls-10" d="M8.34,8.34c-2.25,2.25,2.57,7.07,4.82,4.82"/><path class="cls-10" d="M15.25,5.48c-3.18,0-3.18,6.82,0,6.82"/></g><g><path class="cls-10" d="M5.5,15.27c0,3.18,6.82,3.18,6.82,0"/><path class="cls-10" d="M8.36,8.36c-2.25,2.25,2.57,7.07,4.82,4.82"/><path class="cls-10" d="M15.27,5.5c-3.18,0-3.18,6.82,0,6.82"/></g><g><path class="cls-10" d="M5.52,15.29c0,3.18,6.82,3.18,6.82,0"/><path class="cls-10" d="M8.38,8.38c-2.25,2.25,2.57,7.07,4.82,4.82"/><path class="cls-10" d="M15.29,5.52c-3.18,0-3.18,6.82,0,6.82"/></g><g><path class="cls-10" d="M5.54,15.31c0,3.18,6.82,3.18,6.82,0"/><path class="cls-10" d="M8.4,8.4c-2.25,2.25,2.57,7.07,4.82,4.82"/><path class="cls-10" d="M15.31,5.54c-3.18,0-3.18,6.82,0,6.82"/></g><g><path class="cls-10" d="M5.56,15.33c0,3.18,6.82,3.18,6.82,0"/><path class="cls-10" d="M8.42,8.42c-2.25,2.25,2.57,7.07,4.82,4.82"/><path class="cls-10" d="M15.33,5.56c-3.18,0-3.18,6.82,0,6.82"/></g><g><path class="cls-10" d="M5.58,15.35c0,3.18,6.82,3.18,6.82,0"/><path class="cls-10" d="M8.44,8.44c-2.25,2.25,2.57,7.07,4.82,4.82"/><path class="cls-10" d="M15.35,5.58c-3.18,0-3.18,6.82,0,6.82"/></g><g><path class="cls-10" d="M5.6,15.37c0,3.18,6.82,3.18,6.82,0"/><path class="cls-10" d="M8.46,8.46c-2.25,2.25,2.57,7.07,4.82,4.82"/><path class="cls-10" d="M15.37,5.6c-3.18,0-3.18,6.82,0,6.82"/></g><g><path class="cls-10" d="M5.62,15.39c0,3.18,6.82,3.18,6.82,0"/><path class="cls-10" d="M8.48,8.48c-2.25,2.25,2.57,7.07,4.82,4.82"/><path class="cls-10" d="M15.39,5.62c-3.18,0-3.18,6.82,0,6.82"/></g><g><path class="cls-10" d="M5.64,15.41c0,3.18,6.82,3.18,6.82,0"/><path class="cls-10" d="M8.5,8.5c-2.25,2.25,2.57,7.07,4.82,4.82"/><path class="cls-10" d="M15.41,5.64c-3.18,0-3.18,6.82,0,6.82"/></g><g><path class="cls-10" d="M5.66,15.43c0,3.18,6.82,3.18,6.82,0"/><path class="cls-10" d="M8.52,8.52c-2.25,2.25,2.57,7.07,4.82,4.82"/><path class="cls-10" d="M15.43,5.66c-3.18,0-3.18,6.82,0,6.82"/></g><g><path class="cls-10" d="M5.68,15.45c0,3.18,6.82,3.18,6.82,0"/><path class="cls-10" d="M8.54,8.54c-2.25,2.25,2.57,7.07,4.82,4.82"/><path class="cls-10" d="M15.45,5.68c-3.18,0-3.18,6.82,0,6.82"/></g><g><path class="cls-10" d="M5.7,15.47c0,3.18,6.82,3.18,6.82,0"/><path class="cls-10" d="M8.56,8.56c-2.25,2.25,2.57,7.07,4.82,4.82"/><path class="cls-10" d="M15.47,5.7c-3.18,0-3.18,6.82,0,6.82"/></g><g><path class="cls-10" d="M5.72,15.49c0,3.18,6.82,3.18,6.82,0"/><path class="cls-10" d="M8.58,8.58c-2.25,2.25,2.57,7.07,4.82,4.82"/><path class="cls-10" d="M15.49,5.72c-3.18,0-3.18,6.82,0,6.82"/></g><g><path class="cls-10" d="M5.74,15.51c0,3.18,6.82,3.18,6.82,0"/><path class="cls-10" d="M8.6,8.6c-2.25,2.25,2.57,7.07,4.82,4.82"/><path class="cls-10" d="M15.51,5.74c-3.18,0-3.18,6.82,0,6.82"/></g><g><path class="cls-10" d="M5.76,15.53c0,3.18,6.82,3.18,6.82,0"/><path class="cls-10" d="M8.62,8.62c-2.25,2.25,2.57,7.07,4.82,4.82"/><path class="cls-10" d="M15.53,5.76c-3.18,0-3.18,6.82,0,6.82"/></g><g><path class="cls-10" d="M5.78,15.55c0,3.18,6.82,3.18,6.82,0"/><path class="cls-10" d="M8.64,8.64c-2.25,2.25,2.57,7.07,4.82,4.82"/><path class="cls-10" d="M15.55,5.78c-3.18,0-3.18,6.82,0,6.82"/></g><g><path class="cls-10" d="M5.8,15.57c0,3.18,6.82,3.18,6.82,0"/><path class="cls-10" d="M8.66,8.66c-2.25,2.25,2.57,7.07,4.82,4.82"/><path class="cls-10" d="M15.57,5.8c-3.18,0-3.18,6.82,0,6.82"/></g><g><path class="cls-10" d="M5.82,15.59c0,3.18,6.82,3.18,6.82,0"/><path class="cls-10" d="M8.68,8.68c-2.25,2.25,2.57,7.07,4.82,4.82"/><path class="cls-10" d="M15.59,5.82c-3.18,0-3.18,6.82,0,6.82"/></g><g><path class="cls-10" d="M5.84,15.61c0,3.18,6.82,3.18,6.82,0"/><path class="cls-10" d="M8.7,8.7c-2.25,2.25,2.57,7.07,4.82,4.82"/><path class="cls-10" d="M15.61,5.84c-3.18,0-3.18,6.82,0,6.82"/></g><g><path class="cls-10" d="M5.86,15.63c0,3.18,6.82,3.18,6.82,0"/><path class="cls-10" d="M8.72,8.72c-2.25,2.25,2.57,7.07,4.82,4.82"/><path class="cls-10" d="M15.63,5.86c-3.18,0-3.18,6.82,0,6.82"/></g><g><path class="cls-10" d="M5.88,15.65c0,3.18,6.82,3.18,6.82,0"/><path class="cls-10" d="M8.74,8.74c-2.25,2.25,2.57,7.07,4.82,4.82"/><path class="cls-10" d="M15.65,5.88c-3.18,0-3.18,6.82,0,6.82"/></g><g><path class="cls-10" d="M5.9,15.67c0,3.18,6.82,3.18,6.82,0"/><path class="cls-10" d="M8.76,8.76c-2.25,2.25,2.57,7.07,4.82,4.82"/><path class="cls-10" d="M15.67,5.9c-3.18,0-3.18,6.82,0,6.82"/></g><g><path class="cls-10" d="M5.92,15.69c0,3.18,6.82,3.18,6.82,0"/><path class="cls-10" d="M8.78,8.78c-2.25,2.25,2.57,7.07,4.82,4.82"/><path class="cls-10" d="M15.69,5.92c-3.18,0-3.18,6.82,0,6.82"/></g><g><path class="cls-10" d="M5.94,15.71c0,3.18,6.82,3.18,6.82,0"/><path class="cls-10" d="M8.8,8.8c-2.25,2.25,2.57,7.07,4.82,4.82"/><path class="cls-10" d="M15.71,5.94c-3.18,0-3.18,6.82,0,6.82"/></g><g><path class="cls-10" d="M5.96,15.73c0,3.18,6.82,3.18,6.82,0"/><path class="cls-10" d="M8.82,8.82c-2.25,2.25,2.57,7.07,4.82,4.82"/><path class="cls-10" d="M15.73,5.96c-3.18,0-3.18,6.82,0,6.82"/></g><g><path class="cls-10" d="M5.97,15.75c0,3.18,6.82,3.18,6.82,0"/><path class="cls-10" d="M8.84,8.84c-2.25,2.25,2.57,7.07,4.82,4.82"/><path class="cls-10" d="M15.75,5.97c-3.18,0-3.18,6.82,0,6.82"/></g><g><path class="cls-10" d="M5.99,15.77c0,3.18,6.82,3.18,6.82,0"/><path class="cls-10" d="M8.86,8.86c-2.25,2.25,2.57,7.07,4.82,4.82"/><path class="cls-10" d="M15.77,5.99c-3.18,0-3.18,6.82,0,6.82"/></g><g><path class="cls-10" d="M6.01,15.79c0,3.18,6.82,3.18,6.82,0"/><path class="cls-10" d="M8.88,8.88c-2.25,2.25,2.57,7.07,4.82,4.82"/><path class="cls-10" d="M15.79,6.01c-3.18,0-3.18,6.82,0,6.82"/></g><g><path class="cls-10" d="M6.03,15.81c0,3.18,6.82,3.18,6.82,0"/><path class="cls-10" d="M8.9,8.9c-2.25,2.25,2.57,7.07,4.82,4.82"/><path class="cls-10" d="M15.81,6.03c-3.18,0-3.18,6.82,0,6.82"/></g><g><path class="cls-10" d="M6.05,15.83c0,3.18,6.82,3.18,6.82,0"/><path class="cls-10" d="M8.92,8.92c-2.25,2.25,2.57,7.07,4.82,4.82"/><path class="cls-10" d="M15.83,6.05c-3.18,0-3.18,6.82,0,6.82"/></g><g><path class="cls-10" d="M6.07,15.85c0,3.18,6.82,3.18,6.82,0"/><path class="cls-10" d="M8.94,8.94c-2.25,2.25,2.57,7.07,4.82,4.82"/><path class="cls-10" d="M15.85,6.07c-3.18,0-3.18,6.82,0,6.82"/></g><g><path class="cls-10" d="M6.09,15.87c0,3.18,6.82,3.18,6.82,0"/><path class="cls-10" d="M8.96,8.96c-2.25,2.25,2.57,7.07,4.82,4.82"/><path class="cls-10" d="M15.87,6.09c-3.18,0-3.18,6.82,0,6.82"/></g><g><path class="cls-10" d="M6.11,15.89c0,3.18,6.82,3.18,6.82,0"/><path class="cls-10" d="M8.98,8.98c-2.25,2.25,2.57,7.07,4.82,4.82"/><path class="cls-10" d="M15.89,6.11c-3.18,0-3.18,6.82,0,6.82"/></g><g><path class="cls-10" d="M6.13,15.91c0,3.18,6.82,3.18,6.82,0"/><path class="cls-10" d="M9,9c-2.25,2.25,2.57,7.07,4.82,4.82"/><path class="cls-10" d="M15.91,6.13c-3.18,0-3.18,6.82,0,6.82"/></g><g><path class="cls-10" d="M6.15,15.93c0,3.18,6.82,3.18,6.82,0"/><path class="cls-10" d="M9.02,9.02c-2.25,2.25,2.57,7.07,4.82,4.82"/><path class="cls-10" d="M15.93,6.15c-3.18,0-3.18,6.82,0,6.82"/></g><g><path class="cls-10" d="M6.17,15.95c0,3.18,6.82,3.18,6.82,0"/><path class="cls-10" d="M9.04,9.04c-2.25,2.25,2.57,7.07,4.82,4.82"/><path class="cls-10" d="M15.95,6.17c-3.18,0-3.18,6.82,0,6.82"/></g><g><path class="cls-10" d="M6.19,15.97c0,3.18,6.82,3.18,6.82,0"/><path class="cls-10" d="M9.06,9.06c-2.25,2.25,2.57,7.07,4.82,4.82"/><path class="cls-10" d="M15.97,6.19c-3.18,0-3.18,6.82,0,6.82"/></g><g><path class="cls-10" d="M6.21,15.99c0,3.18,6.82,3.18,6.82,0"/><path class="cls-10" d="M9.07,9.07c-2.25,2.25,2.57,7.07,4.82,4.82"/><path class="cls-10" d="M15.99,6.21c-3.18,0-3.18,6.82,0,6.82"/></g><g><path class="cls-10" d="M6.23,16c0,3.18,6.82,3.18,6.82,0"/><path class="cls-10" d="M9.09,9.09c-2.25,2.25,2.57,7.07,4.82,4.82"/><path class="cls-10" d="M16,6.23c-3.18,0-3.18,6.82,0,6.82"/></g><g><path class="cls-10" d="M6.25,16.02c0,3.18,6.82,3.18,6.82,0"/><path class="cls-10" d="M9.11,9.11c-2.25,2.25,2.57,7.07,4.82,4.82"/><path class="cls-10" d="M16.02,6.25c-3.18,0-3.18,6.82,0,6.82"/></g><g><path class="cls-10" d="M6.27,16.04c0,3.18,6.82,3.18,6.82,0"/><path class="cls-10" d="M9.13,9.13c-2.25,2.25,2.57,7.07,4.82,4.82"/><path class="cls-10" d="M16.04,6.27c-3.18,0-3.18,6.82,0,6.82"/></g><g><path class="cls-10" d="M6.29,16.06c0,3.18,6.82,3.18,6.82,0"/><path class="cls-10" d="M9.15,9.15c-2.25,2.25,2.57,7.07,4.82,4.82"/><path class="cls-10" d="M16.06,6.29c-3.18,0-3.18,6.82,0,6.82"/></g><g><path class="cls-10" d="M6.31,16.08c0,3.18,6.82,3.18,6.82,0"/><path class="cls-10" d="M9.17,9.17c-2.25,2.25,2.57,7.07,4.82,4.82"/><path class="cls-10" d="M16.08,6.31c-3.18,0-3.18,6.82,0,6.82"/></g><g><path class="cls-10" d="M6.33,16.1c0,3.18,6.82,3.18,6.82,0"/><path class="cls-10" d="M9.19,9.19c-2.25,2.25,2.57,7.07,4.82,4.82"/><path class="cls-10" d="M16.1,6.33c-3.18,0-3.18,6.82,0,6.82"/></g><g><path class="cls-10" d="M6.35,16.12c0,3.18,6.82,3.18,6.82,0"/><path class="cls-10" d="M9.21,9.21c-2.25,2.25,2.57,7.07,4.82,4.82"/><path class="cls-10" d="M16.12,6.35c-3.18,0-3.18,6.82,0,6.82"/></g><g><path class="cls-10" d="M6.37,16.14c0,3.18,6.82,3.18,6.82,0"/><path class="cls-10" d="M9.23,9.23c-2.25,2.25,2.57,7.07,4.82,4.82"/><path class="cls-10" d="M16.14,6.37c-3.18,0-3.18,6.82,0,6.82"/></g><g><path class="cls-10" d="M6.39,16.16c0,3.18,6.82,3.18,6.82,0"/><path class="cls-10" d="M9.25,9.25c-2.25,2.25,2.57,7.07,4.82,4.82"/><path class="cls-10" d="M16.16,6.39c-3.18,0-3.18,6.82,0,6.82"/></g><g><path class="cls-10" d="M6.41,16.18c0,3.18,6.82,3.18,6.82,0"/><path class="cls-10" d="M9.27,9.27c-2.25,2.25,2.57,7.07,4.82,4.82"/><path class="cls-10" d="M16.18,6.41c-3.18,0-3.18,6.82,0,6.82"/></g><g><path class="cls-10" d="M6.43,16.2c0,3.18,6.82,3.18,6.82,0"/><path class="cls-10" d="M9.29,9.29c-2.25,2.25,2.57,7.07,4.82,4.82"/><path class="cls-10" d="M16.2,6.43c-3.18,0-3.18,6.82,0,6.82"/></g><g><path class="cls-10" d="M6.45,16.22c0,3.18,6.82,3.18,6.82,0"/><path class="cls-10" d="M9.31,9.31c-2.25,2.25,2.57,7.07,4.82,4.82"/><path class="cls-10" d="M16.22,6.45c-3.18,0-3.18,6.82,0,6.82"/></g><g><path class="cls-10" d="M6.47,16.24c0,3.18,6.82,3.18,6.82,0"/><path class="cls-10" d="M9.33,9.33c-2.25,2.25,2.57,7.07,4.82,4.82"/><path class="cls-10" d="M16.24,6.47c-3.18,0-3.18,6.82,0,6.82"/></g><g><path class="cls-10" d="M6.49,16.26c0,3.18,6.82,3.18,6.82,0"/><path class="cls-10" d="M9.35,9.35c-2.25,2.25,2.57,7.07,4.82,4.82"/><path class="cls-10" d="M16.26,6.49c-3.18,0-3.18,6.82,0,6.82"/></g><g><path class="cls-10" d="M6.51,16.28c0,3.18,6.82,3.18,6.82,0"/><path class="cls-10" d="M9.37,9.37c-2.25,2.25,2.57,7.07,4.82,4.82"/><path class="cls-10" d="M16.28,6.51c-3.18,0-3.18,6.82,0,6.82"/></g><g><path class="cls-10" d="M6.53,16.3c0,3.18,6.82,3.18,6.82,0"/><path class="cls-10" d="M9.39,9.39c-2.25,2.25,2.57,7.07,4.82,4.82"/><path class="cls-10" d="M16.3,6.53c-3.18,0-3.18,6.82,0,6.82"/></g><g><path class="cls-10" d="M6.55,16.32c0,3.18,6.82,3.18,6.82,0"/><path class="cls-10" d="M9.41,9.41c-2.25,2.25,2.57,7.07,4.82,4.82"/><path class="cls-10" d="M16.32,6.55c-3.18,0-3.18,6.82,0,6.82"/></g><g><path class="cls-10" d="M6.57,16.34c0,3.18,6.82,3.18,6.82,0"/><path class="cls-10" d="M9.43,9.43c-2.25,2.25,2.57,7.07,4.82,4.82"/><path class="cls-10" d="M16.34,6.57c-3.18,0-3.18,6.82,0,6.82"/></g><g><path class="cls-10" d="M6.59,16.36c0,3.18,6.82,3.18,6.82,0"/><path class="cls-10" d="M9.45,9.45c-2.25,2.25,2.57,7.07,4.82,4.82"/><path class="cls-10" d="M16.36,6.59c-3.18,0-3.18,6.82,0,6.82"/></g><g><path class="cls-10" d="M6.61,16.38c0,3.18,6.82,3.18,6.82,0"/><path class="cls-10" d="M9.47,9.47c-2.25,2.25,2.57,7.07,4.82,4.82"/><path class="cls-10" d="M16.38,6.61c-3.18,0-3.18,6.82,0,6.82"/></g><g><path class="cls-10" d="M6.63,16.4c0,3.18,6.82,3.18,6.82,0"/><path class="cls-10" d="M9.49,9.49c-2.25,2.25,2.57,7.07,4.82,4.82"/><path class="cls-10" d="M16.4,6.63c-3.18,0-3.18,6.82,0,6.82"/></g><g><path class="cls-10" d="M6.65,16.42c0,3.18,6.82,3.18,6.82,0"/><path class="cls-10" d="M9.51,9.51c-2.25,2.25,2.57,7.07,4.82,4.82"/><path class="cls-10" d="M16.42,6.65c-3.18,0-3.18,6.82,0,6.82"/></g><g><path class="cls-10" d="M6.67,16.44c0,3.18,6.82,3.18,6.82,0"/><path class="cls-10" d="M9.53,9.53c-2.25,2.25,2.57,7.07,4.82,4.82"/><path class="cls-10" d="M16.44,6.67c-3.18,0-3.18,6.82,0,6.82"/></g><g><path class="cls-10" d="M6.69,16.46c0,3.18,6.82,3.18,6.82,0"/><path class="cls-10" d="M9.55,9.55c-2.25,2.25,2.57,7.07,4.82,4.82"/><path class="cls-10" d="M16.46,6.69c-3.18,0-3.18,6.82,0,6.82"/></g><g><path class="cls-10" d="M6.71,16.48c0,3.18,6.82,3.18,6.82,0"/><path class="cls-10" d="M9.57,9.57c-2.25,2.25,2.57,7.07,4.82,4.82"/><path class="cls-10" d="M16.48,6.71c-3.18,0-3.18,6.82,0,6.82"/></g><g><path class="cls-10" d="M6.73,16.5c0,3.18,6.82,3.18,6.82,0"/><path class="cls-10" d="M9.59,9.59c-2.25,2.25,2.57,7.07,4.82,4.82"/><path class="cls-10" d="M16.5,6.73c-3.18,0-3.18,6.82,0,6.82"/></g></g><circle class="cls-10" cx="16.5" cy="16.5" r="3"/><path class="cls-3" d="M13.5,16.5c0,.3,.06,.59,.14,.86,.27,.08,.56,.14,.86,.14,1.66,0,3-1.34,3-3,0-.3-.06-.59-.14-.86-.27-.08-.56-.14-.86-.14-1.66,0-3,1.34-3,3Z"/></g></svg>