<?xml version="1.0" encoding="UTF-8"?><svg id="_лой_2" xmlns="http://www.w3.org/2000/svg" viewBox="0 0 19.25 19.25"><defs><style>.cls-1{fill:none;stroke:#000;stroke-miterlimit:10;stroke-width:.25px;}</style></defs><g id="_лой_1-2"><rect class="cls-1" x=".12" y=".12" width="19" height="19"/><g><g><circle class="cls-1" cx="10.23" cy="10.23" r="5.93"/><circle class="cls-1" cx="10.23" cy="10.23" r="5.93"/></g><path class="cls-1" d="M4.3,10.23c0-3.27,2.65-5.93,5.93-5.93,1.33,0,2.55,.44,3.54,1.18-1.08-1.45-2.8-2.39-4.75-2.39-3.27,0-5.93,2.65-5.93,5.93,0,1.95,.94,3.67,2.39,4.75-.74-.99-1.18-2.21-1.18-3.54Z"/><circle class="cls-1" cx="10.23" cy="10.23" r="1.82"/><path class="cls-1" d="M8.41,10.23c0,.18,.04,.36,.09,.52,.17,.05,.34,.09,.52,.09,1.01,0,1.82-.81,1.82-1.82,0-.18-.04-.36-.09-.52-.17-.05-.34-.09-.52-.09-1.01,0-1.82,.81-1.82,1.82Z"/></g></g></svg>