<?xml version="1.0" encoding="UTF-8"?><svg id="_лой_2" xmlns="http://www.w3.org/2000/svg" viewBox="0 0 19.25 19.25"><defs><style>.cls-1,.cls-2{fill:none;stroke:#000;stroke-miterlimit:10;}.cls-2{stroke-width:.25px;}</style></defs><g id="_лой_1-2"><g><polyline class="cls-1" points="3.88 8.14 2.38 9.64 3.84 11.1"/><polyline class="cls-1" points="15.37 11.1 16.87 9.6 15.41 8.14"/><g><line class="cls-1" x1="2.78" y1="9.62" x2="6.48" y2="9.62"/><line class="cls-1" x1="12.78" y1="9.62" x2="16.48" y2="9.62"/></g><path d="M11.9,12.08h-1.31l-.84-1.6c-.03-.06-.07-.17-.1-.33h-.01c-.02,.07-.05,.19-.11,.34l-.85,1.58h-1.32l1.56-2.45-1.43-2.45h1.34l.7,1.47c.05,.12,.1,.25,.15,.41h.01c.03-.1,.08-.24,.15-.43l.78-1.46h1.23l-1.47,2.43,1.51,2.47Z"/></g><rect class="cls-2" x=".12" y=".12" width="19" height="19"/></g></svg>