<?xml version="1.0" encoding="UTF-8"?><svg id="_лой_2" xmlns="http://www.w3.org/2000/svg" viewBox="0 0 19.25 19.25"><defs><style>.cls-1,.cls-2{fill:none;stroke:#000;stroke-miterlimit:10;}.cls-2{stroke-width:.25px;}</style></defs><g id="_лой_1-2"><rect class="cls-2" x=".12" y=".12" width="19" height="19"/><path d="M11.9,12.08h-1.31l-.84-1.6c-.03-.06-.07-.17-.1-.33h-.01c-.02,.07-.05,.19-.11,.34l-.85,1.58h-1.32l1.56-2.45-1.43-2.45h1.34l.7,1.47c.05,.12,.1,.25,.15,.41h.01c.03-.1,.08-.24,.15-.43l.78-1.46h1.23l-1.47,2.43,1.51,2.47Z"/><polygon class="cls-1" points="16.62 13.63 13.63 5.63 2.63 5.62 5.62 13.62 16.62 13.63"/></g></svg>