<?xml version="1.0" encoding="UTF-8"?><svg id="_лой_2" xmlns="http://www.w3.org/2000/svg" viewBox="0 0 19.25 19.25"><defs><style>.cls-1{fill:none;stroke:#000;stroke-miterlimit:10;stroke-width:.25px;}</style></defs><g id="_лой_1-2"><g><path d="M10.43,11.91l-.22,.14c.07,.26,.11,.55,.11,.82,0,.52-.12,1-.34,1.36-.17,.27-.47,.59-.98,.59v.25l1.24,1.21c.49,0,.9-.24,1.19-.71,.25-.39,.38-.92,.38-1.49,0-.99-.43-2.05-1.38-2.18Z"/><path d="M14.88,13.3h0c-.01-.06-.02-.13-.04-.19-.11-.41-.35-.81-.67-1.15h0l-1.17-1.17c-.09-.11-.2-.21-.3-.3h0c-.19-.17-.39-.31-.6-.42-.16-.08-.23,.16-.08,.24,.04,.02,.07,.04,.11,.06l-.17,.71c-.2,.06-.29,.27-.45,.43l.08,.08c.37-.38,.84-.35,1.16-.26h0c.31,.08,.55,.32,.63,.63h0c.09,.33,.11,.79-.26,1.17l.1,.1-.07,.09,1.18,1.02h0l.18,.18c.32-.32,.45-.74,.37-1.21Z"/><path d="M12.77,7.44c-.69,.02-1.39,.25-1.78,.72-.19,.23,.04,.36,.19,.17l.86,1.33c-.09,.17-.09,.37-.09,.59h.2c0-.91,1.01-1.32,1.94-1.32s1.94,.41,1.94,1.32h.25c.08-1.02-1.62-2.94-3.52-2.81Z"/><path d="M14.33,6.13c-.36-.36-.8-.35-1.11-.28-.41,.1-.83,.35-1.2,.72s-.62,.79-.72,1.2c-.07,.31-.08,.75,.28,1.11l-.11,.13c-.35-.35-.53-.77-.41-1.3,.11-.45,.38-.92,.78-1.32s.87-.68,1.32-.78c.53-.12,.99,0,1.34,.34l-.18,.18Z"/><rect class="cls-1" x=".12" y=".12" width="19" height="19"/><circle class="cls-1" cx="9.05" cy="9.05" r="5.93"/><circle class="cls-1" cx="9.02" cy="9.02" r="5.93"/><path d="M13.12,4.92c-.37-.37-.84-.35-1.16-.26-.8,.21-1.63,1.04-1.85,1.85-.09,.32-.11,.79,.26,1.16l-.18,.18c-.36-.36-.48-.85-.33-1.4,.24-.9,1.13-1.79,2.02-2.02,.55-.15,1.04-.04,1.4,.33"/><path d="M13.3,4.74c-.36-.36-.85-.48-1.4-.33-.9,.24-1.79,1.13-2.02,2.02-.15,.56-.04,1.04,.33,1.4l1.28,1.17,.11-.13c-.36-.36-.35-.8-.28-1.11,.1-.41,.35-.83,.72-1.2,.37-.37,.79-.62,1.2-.72,.31-.07,.75-.08,1.11,.28l.18-.18-1.21-1.21Z"/><circle class="cls-1" cx="10.23" cy="10.23" r="1.82"/><g><g><path d="M5.16,10.59c-1.06,0-2.19-.49-2.19-1.57h.25c0,.91,1.01,1.32,1.94,1.32s1.94-.41,1.94-1.32h.25c0,1.08-1.14,1.57-2.19,1.57Z"/><path d="M6.89,8.23c-.15,0-.3-.02-.46-.06-.9-.24-1.78-1.13-2.02-2.02-.15-.56-.04-1.04,.33-1.4l.18,.18c-.37,.37-.35,.84-.26,1.16,.22,.8,1.04,1.63,1.85,1.85,.32,.09,.79,.11,1.16-.26l.18,.18c-.26,.26-.58,.39-.95,.39Z"/><path d="M9.02,7.35c-1.08,0-1.57-1.14-1.57-2.19,0-.56,.14-1.09,.38-1.49,.29-.46,.7-.71,1.19-.71v.25c-.51,0-.81,.32-.98,.59-.22,.36-.34,.84-.34,1.36,0,.94,.41,1.94,1.32,1.94v.25Z"/></g><g><path d="M5.17,10.6c-1.06,0-2.19-.49-2.19-1.57h.25c0,.91,1.01,1.32,1.94,1.32s1.94-.41,1.94-1.32h.25c0,1.08-1.14,1.57-2.19,1.57Z"/><path d="M6.91,8.24c-.15,0-.3-.02-.46-.06-.9-.24-1.78-1.13-2.02-2.02-.15-.56-.04-1.04,.33-1.4l.18,.18c-.37,.37-.35,.84-.26,1.16,.22,.8,1.04,1.63,1.85,1.85,.32,.09,.79,.11,1.16-.26l.18,.18c-.26,.26-.58,.39-.95,.39Z"/><path d="M9.03,7.36c-1.08,0-1.57-1.14-1.57-2.19,0-.56,.14-1.09,.38-1.49,.29-.46,.7-.71,1.19-.71v.25c-.51,0-.81,.32-.98,.59-.22,.36-.34,.84-.34,1.36,0,.94,.41,1.94,1.32,1.94v.25Z"/></g><g><path d="M5.18,10.61c-1.06,0-2.19-.49-2.19-1.57h.25c0,.91,1.01,1.32,1.94,1.32s1.94-.41,1.94-1.32h.25c0,1.08-1.14,1.57-2.19,1.57Z"/><path d="M6.92,8.25c-.15,0-.3-.02-.46-.06-.9-.24-1.78-1.13-2.02-2.02-.15-.56-.04-1.04,.33-1.4l.18,.18c-.37,.37-.35,.84-.26,1.16,.22,.8,1.04,1.63,1.85,1.85,.32,.09,.79,.11,1.16-.26l.18,.18c-.26,.26-.58,.39-.94,.39Z"/><path d="M9.04,7.37c-1.08,0-1.57-1.14-1.57-2.19,0-.56,.14-1.09,.38-1.49,.29-.46,.7-.71,1.19-.71v.25c-.51,0-.81,.32-.98,.59-.22,.36-.34,.84-.34,1.36,0,.94,.41,1.94,1.32,1.94v.25Z"/></g><g><path d="M5.19,10.63c-1.06,0-2.19-.49-2.19-1.57h.25c0,.91,1.01,1.32,1.94,1.32s1.94-.41,1.94-1.32h.25c0,1.08-1.14,1.57-2.19,1.57Z"/><path d="M6.93,8.27c-.15,0-.3-.02-.46-.06-.9-.24-1.78-1.13-2.02-2.02-.15-.56-.04-1.04,.33-1.4l.18,.18c-.37,.37-.35,.84-.26,1.16,.22,.8,1.04,1.63,1.85,1.85,.32,.09,.79,.11,1.16-.26l.17,.18c-.26,.26-.58,.39-.94,.39Z"/><path d="M9.05,7.39c-1.08,0-1.57-1.14-1.57-2.19,0-.56,.14-1.09,.38-1.49,.29-.46,.7-.71,1.19-.71v.25c-.51,0-.81,.32-.98,.59-.22,.36-.34,.84-.34,1.36,0,.94,.41,1.94,1.32,1.94v.25Z"/></g><g><path d="M5.21,10.64c-1.06,0-2.19-.49-2.19-1.57h.25c0,.91,1.01,1.32,1.94,1.32s1.94-.41,1.94-1.32h.25c0,1.08-1.13,1.57-2.19,1.57Z"/><path d="M6.94,8.28c-.15,0-.3-.02-.46-.06-.9-.24-1.78-1.13-2.02-2.02-.15-.56-.04-1.04,.33-1.4l.18,.18c-.37,.37-.35,.84-.26,1.16,.22,.8,1.04,1.63,1.85,1.85,.32,.09,.79,.11,1.16-.26l.17,.18c-.26,.26-.58,.39-.94,.39Z"/><path d="M9.07,7.4c-1.08,0-1.57-1.13-1.57-2.19,0-.56,.14-1.09,.38-1.49,.29-.46,.7-.71,1.19-.71v.25c-.51,0-.81,.32-.98,.59-.22,.36-.34,.84-.34,1.36,0,.94,.41,1.94,1.32,1.94v.25Z"/></g><g><path d="M5.22,10.65c-1.06,0-2.19-.49-2.19-1.57h.25c0,.91,1.01,1.32,1.94,1.32s1.94-.41,1.94-1.32h.25c0,1.08-1.13,1.57-2.19,1.57Z"/><path d="M6.95,8.29c-.15,0-.3-.02-.46-.06-.9-.24-1.78-1.13-2.02-2.02-.15-.56-.04-1.04,.33-1.4l.18,.18c-.37,.37-.35,.84-.26,1.16,.22,.8,1.04,1.63,1.85,1.85,.32,.09,.79,.11,1.16-.26l.17,.18c-.26,.26-.58,.39-.94,.39Z"/><path d="M9.08,7.41c-1.08,0-1.57-1.13-1.57-2.19,0-.56,.14-1.09,.38-1.49,.29-.46,.7-.71,1.19-.71v.25c-.51,0-.81,.32-.98,.59-.22,.36-.34,.84-.34,1.36,0,.94,.41,1.94,1.32,1.94v.25Z"/></g><g><path d="M5.23,10.66c-1.06,0-2.19-.49-2.19-1.57h.25c0,.91,1.01,1.32,1.94,1.32s1.94-.41,1.94-1.32h.25c0,1.08-1.13,1.57-2.19,1.57Z"/><path d="M6.97,8.3c-.15,0-.3-.02-.46-.06-.9-.24-1.78-1.13-2.02-2.02-.15-.56-.04-1.04,.33-1.4l.18,.18c-.37,.37-.35,.84-.26,1.16,.22,.8,1.04,1.63,1.85,1.85,.32,.09,.79,.11,1.16-.26l.17,.18c-.26,.26-.58,.39-.94,.39Z"/><path d="M9.09,7.42c-1.08,0-1.57-1.13-1.57-2.19,0-.56,.14-1.09,.38-1.49,.29-.46,.7-.71,1.19-.71v.25c-.51,0-.81,.32-.98,.59-.22,.36-.34,.84-.34,1.36,0,.94,.41,1.94,1.32,1.94v.25Z"/></g><g><path d="M5.24,10.67c-1.06,0-2.19-.49-2.19-1.57h.25c0,.91,1.01,1.32,1.94,1.32s1.94-.41,1.94-1.32h.25c0,1.08-1.13,1.57-2.19,1.57Z"/><path d="M6.98,8.31c-.15,0-.3-.02-.46-.06-.9-.24-1.78-1.13-2.02-2.02-.15-.56-.04-1.04,.33-1.4l.18,.18c-.37,.37-.35,.84-.26,1.16,.22,.8,1.04,1.63,1.85,1.85,.32,.09,.79,.11,1.16-.26l.17,.18c-.26,.26-.58,.39-.94,.39Z"/><path d="M9.1,7.43c-1.08,0-1.57-1.13-1.57-2.19,0-.56,.14-1.09,.38-1.49,.29-.46,.7-.71,1.19-.71v.25c-.51,0-.81,.32-.98,.59-.22,.36-.34,.84-.34,1.36,0,.94,.41,1.94,1.32,1.94v.25Z"/></g><g><path d="M5.25,10.69c-1.06,0-2.19-.49-2.19-1.57h.25c0,.91,1.01,1.32,1.94,1.32s1.94-.41,1.94-1.32h.25c0,1.08-1.13,1.57-2.19,1.57Z"/><path d="M6.99,8.33c-.15,0-.3-.02-.46-.06-.9-.24-1.78-1.13-2.02-2.02-.15-.56-.04-1.04,.33-1.4l.18,.18c-.37,.37-.35,.84-.26,1.16,.22,.8,1.04,1.63,1.85,1.85,.32,.09,.79,.11,1.16-.26l.17,.18c-.26,.26-.58,.39-.94,.39Z"/><path d="M9.12,7.44c-1.08,0-1.57-1.13-1.57-2.19,0-.56,.14-1.09,.38-1.49,.29-.46,.7-.71,1.19-.71v.25c-.51,0-.81,.32-.98,.59-.22,.36-.34,.84-.34,1.36,0,.94,.41,1.94,1.32,1.94v.25Z"/></g><g><path d="M5.27,10.7c-1.06,0-2.19-.49-2.19-1.57h.25c0,.91,1.01,1.32,1.94,1.32s1.94-.41,1.94-1.32h.25c0,1.08-1.13,1.57-2.19,1.57Z"/><path d="M7,8.34c-.15,0-.3-.02-.46-.06-.9-.24-1.78-1.13-2.02-2.02-.15-.56-.04-1.04,.33-1.4l.18,.18c-.37,.37-.35,.84-.26,1.16,.22,.8,1.04,1.63,1.85,1.85,.32,.09,.79,.11,1.16-.26l.17,.18c-.26,.26-.57,.39-.94,.39Z"/><path d="M9.13,7.45c-1.08,0-1.57-1.13-1.57-2.19,0-.56,.14-1.09,.38-1.49,.29-.46,.7-.71,1.19-.71v.25c-.51,0-.81,.32-.98,.59-.22,.36-.34,.84-.34,1.36,0,.94,.41,1.94,1.32,1.94v.25Z"/></g><g><path d="M5.28,10.71c-1.06,0-2.19-.49-2.19-1.57h.25c0,.91,1.01,1.32,1.94,1.32s1.94-.41,1.94-1.32h.24c0,1.08-1.13,1.57-2.19,1.57Z"/><path d="M7.01,8.35c-.15,0-.3-.02-.46-.06-.9-.24-1.78-1.13-2.02-2.02-.15-.56-.04-1.04,.33-1.4l.18,.18c-.37,.37-.35,.84-.26,1.16,.22,.8,1.04,1.63,1.85,1.85,.32,.09,.79,.11,1.16-.26l.17,.17c-.26,.26-.57,.39-.94,.39Z"/><path d="M9.14,7.47c-1.08,0-1.57-1.13-1.57-2.19,0-.56,.14-1.09,.38-1.49,.29-.46,.7-.71,1.19-.71v.25c-.51,0-.81,.32-.98,.59-.22,.36-.34,.84-.34,1.36,0,.94,.41,1.94,1.32,1.94v.24Z"/></g><g><path d="M5.29,10.72c-1.06,0-2.19-.49-2.19-1.57h.25c0,.91,1.01,1.32,1.94,1.32s1.94-.41,1.94-1.32h.24c0,1.08-1.13,1.57-2.19,1.57Z"/><path d="M7.03,8.36c-.15,0-.3-.02-.46-.06-.9-.24-1.78-1.13-2.02-2.02-.15-.56-.04-1.04,.33-1.4l.18,.18c-.37,.37-.35,.84-.26,1.16,.22,.8,1.04,1.63,1.85,1.85,.32,.09,.79,.11,1.16-.26l.17,.17c-.26,.26-.57,.39-.94,.39Z"/><path d="M9.15,7.48c-1.08,0-1.57-1.13-1.57-2.19,0-.56,.14-1.09,.38-1.49,.29-.46,.7-.71,1.19-.71v.25c-.51,0-.81,.32-.98,.59-.22,.36-.34,.84-.34,1.36,0,.94,.41,1.94,1.32,1.94v.24Z"/></g><g><path d="M5.3,10.73c-1.06,0-2.19-.49-2.19-1.57h.25c0,.91,1.01,1.32,1.94,1.32s1.94-.41,1.94-1.32h.24c0,1.08-1.13,1.57-2.19,1.57Z"/><path d="M7.04,8.37c-.15,0-.3-.02-.46-.06-.9-.24-1.78-1.13-2.02-2.02-.15-.56-.04-1.04,.33-1.4l.18,.18c-.37,.37-.35,.84-.26,1.16,.22,.8,1.04,1.63,1.85,1.85,.32,.09,.79,.11,1.16-.26l.17,.17c-.26,.26-.57,.39-.94,.39Z"/><path d="M9.16,7.49c-1.08,0-1.57-1.13-1.57-2.19,0-.56,.14-1.09,.38-1.49,.29-.46,.7-.71,1.19-.71v.25c-.51,0-.81,.32-.98,.59-.22,.36-.34,.84-.34,1.36,0,.94,.41,1.94,1.32,1.94v.24Z"/></g><g><path d="M5.31,10.75c-1.06,0-2.19-.49-2.19-1.57h.25c0,.91,1.01,1.32,1.94,1.32s1.94-.41,1.94-1.32h.24c0,1.08-1.13,1.57-2.19,1.57Z"/><path d="M7.05,8.39c-.15,0-.3-.02-.46-.06-.9-.24-1.78-1.13-2.02-2.02-.15-.56-.04-1.04,.33-1.4l.18,.18c-.37,.37-.35,.84-.26,1.16,.22,.8,1.04,1.63,1.85,1.85,.32,.09,.79,.11,1.16-.26l.17,.17c-.26,.26-.57,.39-.94,.39Z"/><path d="M9.18,7.5c-1.08,0-1.57-1.13-1.57-2.19,0-.56,.14-1.09,.38-1.49,.29-.46,.7-.71,1.19-.71v.25c-.51,0-.81,.32-.98,.59-.22,.36-.34,.84-.34,1.36,0,.94,.41,1.94,1.32,1.94v.24Z"/></g><g><path d="M5.33,10.76c-1.06,0-2.19-.49-2.19-1.57h.25c0,.91,1.01,1.32,1.94,1.32s1.94-.41,1.94-1.32h.24c0,1.08-1.13,1.57-2.19,1.57Z"/><path d="M7.06,8.4c-.15,0-.3-.02-.46-.06-.9-.24-1.78-1.13-2.02-2.02-.15-.56-.04-1.04,.33-1.4l.18,.18c-.37,.37-.35,.84-.26,1.16,.22,.8,1.04,1.63,1.85,1.85,.32,.09,.79,.11,1.16-.26l.17,.17c-.26,.26-.57,.39-.94,.39Z"/><path d="M9.19,7.51c-1.08,0-1.57-1.13-1.57-2.19,0-.56,.14-1.09,.38-1.49,.29-.46,.7-.71,1.19-.71v.25c-.51,0-.81,.32-.98,.59-.22,.36-.34,.84-.34,1.36,0,.94,.41,1.94,1.32,1.94v.24Z"/></g><g><path d="M5.34,10.77c-1.06,0-2.19-.49-2.19-1.57h.25c0,.91,1.01,1.32,1.94,1.32s1.94-.41,1.94-1.32h.24c0,1.08-1.13,1.57-2.19,1.57Z"/><path d="M7.07,8.41c-.15,0-.3-.02-.46-.06-.9-.24-1.78-1.13-2.02-2.02-.15-.56-.04-1.04,.33-1.4l.18,.18c-.37,.37-.35,.84-.26,1.16,.22,.8,1.04,1.63,1.85,1.85,.32,.09,.79,.11,1.16-.26l.17,.17c-.26,.26-.57,.39-.94,.39Z"/><path d="M9.2,7.52c-1.08,0-1.57-1.13-1.57-2.19,0-.56,.14-1.09,.38-1.49,.29-.46,.7-.71,1.19-.71v.25c-.51,0-.81,.32-.98,.59-.22,.36-.34,.84-.34,1.36,0,.94,.41,1.94,1.32,1.94v.24Z"/></g><g><path d="M5.35,10.78c-1.06,0-2.19-.49-2.19-1.57h.25c0,.91,1.01,1.32,1.94,1.32s1.94-.41,1.94-1.32h.24c0,1.08-1.13,1.57-2.18,1.57Z"/><path d="M7.09,8.42c-.15,0-.3-.02-.46-.06-.9-.24-1.78-1.13-2.02-2.02-.15-.56-.04-1.04,.33-1.4l.18,.18c-.37,.37-.35,.84-.26,1.16,.22,.8,1.04,1.63,1.85,1.85,.32,.09,.79,.11,1.16-.26l.17,.17c-.26,.26-.57,.39-.93,.39Z"/><path d="M9.21,7.54c-1.08,0-1.57-1.13-1.57-2.18,0-.56,.14-1.09,.38-1.49,.29-.46,.7-.71,1.19-.71v.25c-.51,0-.81,.32-.98,.59-.22,.36-.34,.84-.34,1.36,0,.94,.41,1.94,1.32,1.94v.24Z"/></g><g><path d="M5.36,10.79c-1.06,0-2.19-.49-2.19-1.57h.25c0,.91,1.01,1.32,1.94,1.32s1.94-.41,1.94-1.32h.24c0,1.08-1.13,1.57-2.18,1.57Z"/><path d="M7.1,8.43c-.15,0-.3-.02-.46-.06-.9-.24-1.78-1.13-2.02-2.02-.15-.56-.04-1.04,.33-1.4l.18,.18c-.37,.37-.35,.84-.26,1.16,.22,.8,1.04,1.63,1.85,1.85,.32,.09,.79,.11,1.16-.26l.16,.17c-.26,.26-.57,.39-.93,.39Z"/><path d="M9.22,7.55c-1.08,0-1.57-1.13-1.57-2.18,0-.56,.14-1.09,.38-1.49,.29-.46,.7-.71,1.19-.71v.25c-.51,0-.81,.32-.98,.59-.22,.36-.34,.84-.34,1.36,0,.94,.41,1.94,1.32,1.94v.24Z"/></g><g><path d="M5.37,10.81c-1.06,0-2.19-.49-2.19-1.57h.25c0,.91,1.01,1.32,1.94,1.32s1.94-.41,1.94-1.32h.24c0,1.08-1.13,1.57-2.18,1.57Z"/><path d="M7.11,8.45c-.15,0-.3-.02-.46-.06-.9-.24-1.78-1.13-2.02-2.02-.15-.56-.04-1.04,.33-1.4l.18,.18c-.37,.37-.35,.84-.26,1.16,.22,.8,1.04,1.63,1.85,1.85,.32,.09,.79,.11,1.16-.26l.16,.17c-.26,.26-.57,.39-.93,.39Z"/><path d="M9.24,7.56c-1.08,0-1.57-1.13-1.57-2.18,0-.56,.14-1.09,.38-1.49,.29-.46,.7-.71,1.19-.71v.25c-.51,0-.81,.32-.98,.59-.22,.36-.34,.84-.34,1.36,0,.94,.41,1.94,1.32,1.94v.24Z"/></g><g><path d="M5.39,10.82c-1.06,0-2.19-.49-2.19-1.57h.25c0,.91,1.01,1.32,1.94,1.32s1.94-.41,1.94-1.32h.24c0,1.08-1.13,1.57-2.18,1.57Z"/><path d="M7.12,8.46c-.15,0-.3-.02-.46-.06-.9-.24-1.78-1.13-2.02-2.02-.15-.56-.04-1.04,.33-1.4l.18,.18c-.37,.37-.35,.84-.26,1.16,.22,.8,1.04,1.63,1.85,1.85,.32,.09,.79,.11,1.16-.26l.16,.17c-.26,.26-.57,.39-.93,.39Z"/><path d="M9.25,7.57c-1.08,0-1.57-1.13-1.57-2.18,0-.56,.14-1.09,.38-1.49,.29-.46,.7-.71,1.19-.71v.25c-.51,0-.81,.32-.98,.59-.22,.36-.34,.84-.34,1.36,0,.94,.41,1.94,1.32,1.94v.24Z"/></g><g><path d="M5.4,10.83c-1.06,0-2.19-.49-2.19-1.57h.25c0,.91,1.01,1.32,1.94,1.32s1.94-.41,1.94-1.32h.24c0,1.08-1.13,1.57-2.18,1.57Z"/><path d="M7.13,8.47c-.15,0-.3-.02-.46-.06-.9-.24-1.78-1.13-2.02-2.02-.15-.56-.04-1.04,.33-1.4l.18,.18c-.37,.37-.35,.84-.26,1.16,.22,.8,1.04,1.63,1.85,1.85,.32,.09,.79,.11,1.16-.26l.16,.17c-.26,.26-.57,.39-.93,.39Z"/><path d="M9.26,7.58c-1.08,0-1.57-1.13-1.57-2.18,0-.56,.14-1.09,.38-1.49,.29-.46,.7-.71,1.19-.71v.25c-.51,0-.81,.32-.98,.59-.22,.36-.34,.84-.34,1.36,0,.94,.41,1.94,1.32,1.94v.24Z"/></g><g><path d="M5.41,10.84c-1.06,0-2.19-.49-2.19-1.57h.25c0,.91,1.01,1.32,1.94,1.32s1.94-.41,1.94-1.32h.24c0,1.08-1.13,1.57-2.18,1.57Z"/><path d="M7.15,8.48c-.15,0-.3-.02-.46-.06-.9-.24-1.78-1.13-2.02-2.02-.15-.56-.04-1.04,.33-1.4l.18,.18c-.37,.37-.35,.84-.26,1.16,.22,.8,1.04,1.63,1.85,1.85,.32,.09,.79,.11,1.16-.26l.16,.17c-.26,.26-.57,.39-.93,.39Z"/><path d="M9.27,7.59c-1.08,0-1.57-1.13-1.57-2.18,0-.56,.14-1.09,.38-1.49,.29-.46,.7-.71,1.19-.71v.25c-.51,0-.81,.32-.98,.59-.22,.36-.34,.84-.34,1.36,0,.94,.41,1.94,1.32,1.94v.24Z"/></g><g><path d="M5.42,10.85c-1.06,0-2.19-.49-2.19-1.57h.25c0,.91,1.01,1.32,1.94,1.32s1.94-.41,1.94-1.32h.24c0,1.08-1.13,1.57-2.18,1.57Z"/><path d="M7.16,8.49c-.15,0-.3-.02-.46-.06-.9-.24-1.78-1.13-2.02-2.02-.15-.56-.04-1.04,.33-1.4l.18,.18c-.37,.37-.35,.84-.26,1.16,.22,.8,1.04,1.63,1.85,1.85,.32,.09,.79,.11,1.16-.26l.16,.17c-.26,.26-.57,.4-.93,.4Z"/><path d="M9.29,7.6c-1.08,0-1.57-1.13-1.57-2.18,0-.56,.14-1.09,.38-1.49,.29-.46,.7-.71,1.19-.71v.25c-.51,0-.81,.32-.98,.59-.22,.36-.34,.84-.34,1.36,0,.94,.41,1.94,1.32,1.94v.24Z"/></g><g><path d="M5.43,10.87c-1.06,0-2.19-.49-2.19-1.57h.25c0,.91,1.01,1.32,1.94,1.32s1.94-.41,1.94-1.32h.24c0,1.08-1.12,1.57-2.18,1.57Z"/><path d="M7.17,8.51c-.15,0-.3-.02-.46-.06-.9-.24-1.78-1.13-2.02-2.02-.15-.56-.04-1.04,.33-1.4l.18,.18c-.37,.37-.35,.84-.26,1.16,.22,.8,1.04,1.63,1.85,1.85,.32,.09,.79,.11,1.16-.26l.16,.17c-.26,.26-.56,.4-.93,.4Z"/><path d="M9.3,7.62c-1.08,0-1.57-1.12-1.57-2.18,0-.56,.14-1.09,.38-1.49,.29-.46,.7-.71,1.19-.71v.25c-.51,0-.81,.32-.98,.59-.22,.36-.34,.84-.34,1.36,0,.94,.41,1.94,1.32,1.94v.24Z"/></g><g><path d="M5.45,10.88c-1.06,0-2.19-.49-2.19-1.57h.25c0,.91,1.01,1.32,1.94,1.32s1.94-.41,1.94-1.32h.24c0,1.08-1.12,1.57-2.18,1.57Z"/><path d="M7.18,8.52c-.15,0-.3-.02-.46-.06-.9-.24-1.78-1.13-2.02-2.02-.15-.56-.04-1.04,.33-1.4l.18,.18c-.37,.37-.35,.84-.26,1.16,.22,.8,1.04,1.63,1.85,1.85,.32,.09,.79,.11,1.16-.26l.16,.17c-.26,.26-.56,.4-.93,.4Z"/><path d="M9.31,7.63c-1.08,0-1.57-1.12-1.57-2.18,0-.56,.14-1.09,.38-1.49,.29-.46,.7-.71,1.19-.71v.25c-.51,0-.81,.32-.98,.59-.22,.36-.34,.84-.34,1.36,0,.94,.41,1.94,1.32,1.94v.24Z"/></g><g><path d="M5.46,10.89c-1.06,0-2.19-.49-2.19-1.57h.25c0,.91,1.01,1.32,1.94,1.32s1.94-.41,1.94-1.32h.24c0,1.08-1.12,1.57-2.18,1.57Z"/><path d="M7.19,8.53c-.15,0-.3-.02-.46-.06-.9-.24-1.78-1.13-2.02-2.02-.15-.56-.04-1.04,.33-1.4l.18,.18c-.37,.37-.35,.84-.26,1.16,.22,.8,1.04,1.63,1.85,1.85,.32,.09,.79,.11,1.16-.26l.16,.17c-.26,.26-.56,.4-.93,.4Z"/><path d="M9.32,7.64c-1.08,0-1.57-1.12-1.57-2.18,0-.56,.14-1.09,.38-1.49,.29-.46,.7-.71,1.19-.71v.25c-.51,0-.81,.32-.98,.59-.22,.36-.34,.84-.34,1.36,0,.94,.41,1.94,1.32,1.94v.24Z"/></g><g><path d="M5.47,10.9c-1.06,0-2.19-.49-2.19-1.57h.25c0,.91,1.01,1.32,1.94,1.32s1.94-.41,1.94-1.32h.24c0,1.08-1.12,1.57-2.18,1.57Z"/><path d="M7.21,8.54c-.15,0-.3-.02-.46-.06-.9-.24-1.78-1.13-2.02-2.02-.15-.56-.04-1.04,.33-1.4l.18,.18c-.37,.37-.35,.84-.26,1.16,.22,.8,1.04,1.63,1.85,1.85,.32,.09,.79,.11,1.16-.26l.16,.17c-.26,.26-.56,.4-.93,.4Z"/><path d="M9.33,7.65c-1.08,0-1.57-1.12-1.57-2.18,0-.56,.14-1.09,.38-1.49,.29-.46,.7-.71,1.19-.71v.25c-.51,0-.81,.32-.98,.59-.22,.36-.34,.84-.34,1.36,0,.94,.41,1.94,1.32,1.94v.24Z"/></g><g><path d="M5.48,10.91c-1.06,0-2.19-.49-2.19-1.57h.25c0,.91,1.01,1.32,1.94,1.32s1.94-.41,1.94-1.32h.24c0,1.08-1.12,1.57-2.18,1.57Z"/><path d="M7.22,8.55c-.15,0-.3-.02-.46-.06-.9-.24-1.78-1.13-2.02-2.02-.15-.56-.04-1.04,.33-1.4l.18,.18c-.37,.37-.35,.84-.26,1.16,.22,.8,1.04,1.63,1.85,1.85,.32,.09,.79,.11,1.16-.26l.16,.17c-.26,.26-.56,.4-.93,.4Z"/><path d="M9.35,7.66c-1.08,0-1.57-1.12-1.57-2.18,0-.56,.14-1.09,.38-1.49,.29-.46,.7-.71,1.19-.71v.25c-.51,0-.81,.32-.98,.59-.22,.36-.34,.84-.34,1.36,0,.94,.41,1.94,1.32,1.94v.24Z"/></g><g><path d="M5.49,10.93c-1.06,0-2.19-.49-2.19-1.57h.25c0,.91,1.01,1.32,1.94,1.32s1.94-.41,1.94-1.32h.24c0,1.08-1.12,1.57-2.18,1.57Z"/><path d="M7.23,8.57c-.15,0-.3-.02-.46-.06-.9-.24-1.78-1.13-2.02-2.02-.15-.56-.04-1.04,.33-1.4l.18,.18c-.37,.37-.35,.84-.26,1.16,.22,.8,1.04,1.63,1.85,1.85,.32,.09,.79,.11,1.16-.26l.16,.17c-.26,.26-.56,.4-.93,.4Z"/><path d="M9.36,7.67c-1.08,0-1.57-1.12-1.57-2.18,0-.56,.14-1.09,.38-1.49,.29-.46,.7-.71,1.19-.71v.25c-.51,0-.81,.32-.98,.59-.22,.36-.34,.84-.34,1.36,0,.94,.41,1.94,1.32,1.94v.24Z"/></g><g><path d="M5.51,10.94c-1.06,0-2.19-.49-2.19-1.57h.25c0,.91,1.01,1.32,1.94,1.32s1.94-.41,1.94-1.32h.24c0,1.08-1.12,1.57-2.18,1.57Z"/><path d="M7.24,8.58c-.15,0-.3-.02-.46-.06-.9-.24-1.78-1.13-2.02-2.02-.15-.56-.04-1.04,.33-1.4l.18,.18c-.37,.37-.35,.84-.26,1.16,.22,.8,1.04,1.63,1.85,1.85,.32,.09,.79,.11,1.16-.26l.16,.17c-.26,.26-.56,.4-.93,.4Z"/><path d="M9.37,7.68c-1.08,0-1.57-1.12-1.57-2.18,0-.56,.14-1.09,.38-1.49,.29-.46,.7-.71,1.19-.71v.25c-.51,0-.81,.32-.98,.59-.22,.36-.34,.84-.34,1.36,0,.94,.41,1.94,1.32,1.94v.24Z"/></g><g><path d="M5.52,10.95c-1.06,0-2.19-.49-2.19-1.57h.25c0,.91,1.01,1.32,1.94,1.32s1.94-.41,1.94-1.32h.23c0,1.08-1.12,1.57-2.18,1.57Z"/><path d="M7.25,8.59c-.15,0-.3-.02-.46-.06-.9-.24-1.78-1.13-2.02-2.02-.15-.56-.04-1.04,.33-1.4l.18,.18c-.37,.37-.35,.84-.26,1.16,.22,.8,1.04,1.63,1.85,1.85,.32,.09,.79,.11,1.16-.26l.16,.17c-.26,.26-.56,.4-.92,.4Z"/><path d="M9.38,7.7c-1.08,0-1.58-1.12-1.58-2.18,0-.56,.14-1.09,.38-1.49,.29-.46,.7-.71,1.19-.71v.25c-.51,0-.81,.32-.98,.59-.22,.36-.34,.84-.34,1.36,0,.94,.41,1.94,1.32,1.94v.23Z"/></g><g><path d="M5.53,10.96c-1.06,0-2.19-.49-2.19-1.57h.25c0,.91,1.01,1.32,1.94,1.32s1.94-.41,1.94-1.32h.23c0,1.08-1.12,1.57-2.18,1.57Z"/><path d="M7.27,8.6c-.15,0-.3-.02-.46-.06-.9-.24-1.78-1.13-2.02-2.02-.15-.56-.04-1.04,.33-1.4l.18,.18c-.37,.37-.35,.84-.26,1.16,.22,.8,1.04,1.63,1.85,1.85,.32,.09,.79,.11,1.16-.26l.15,.17c-.26,.26-.56,.4-.92,.4Z"/><path d="M9.39,7.71c-1.08,0-1.58-1.12-1.58-2.18,0-.56,.14-1.09,.38-1.49,.29-.46,.7-.71,1.19-.71v.25c-.51,0-.81,.32-.98,.59-.22,.36-.34,.84-.34,1.36,0,.94,.41,1.94,1.32,1.94v.23Z"/></g><g><path d="M5.54,10.97c-1.06,0-2.19-.49-2.19-1.57h.25c0,.91,1.01,1.32,1.94,1.32s1.94-.41,1.94-1.32h.23c0,1.08-1.12,1.57-2.18,1.57Z"/><path d="M7.28,8.61c-.15,0-.3-.02-.46-.06-.9-.24-1.78-1.13-2.02-2.02-.15-.56-.04-1.04,.33-1.4l.18,.18c-.37,.37-.35,.84-.26,1.16,.22,.8,1.04,1.63,1.85,1.85,.32,.09,.79,.11,1.16-.26l.15,.17c-.26,.26-.56,.4-.92,.4Z"/><path d="M9.41,7.72c-1.08,0-1.58-1.12-1.58-2.18,0-.56,.14-1.09,.38-1.49,.29-.46,.7-.71,1.19-.71v.25c-.51,0-.81,.32-.98,.59-.22,.36-.34,.84-.34,1.36,0,.94,.41,1.94,1.32,1.94v.23Z"/></g><g><path d="M5.55,10.99c-1.06,0-2.19-.49-2.19-1.57h.25c0,.91,1.01,1.32,1.94,1.32s1.94-.41,1.94-1.32h.23c0,1.08-1.12,1.57-2.18,1.57Z"/><path d="M7.29,8.63c-.15,0-.3-.02-.46-.06-.9-.24-1.78-1.13-2.02-2.02-.15-.56-.04-1.04,.33-1.4l.18,.18c-.37,.37-.35,.84-.26,1.16,.22,.8,1.04,1.63,1.85,1.85,.32,.09,.79,.11,1.16-.26l.15,.17c-.26,.26-.56,.4-.92,.4Z"/><path d="M9.42,7.73c-1.08,0-1.58-1.12-1.58-2.18,0-.56,.14-1.09,.38-1.49,.29-.46,.7-.71,1.19-.71v.25c-.51,0-.81,.32-.98,.59-.22,.36-.34,.84-.34,1.36,0,.94,.41,1.94,1.32,1.94v.23Z"/></g><g><path d="M5.57,11c-1.06,0-2.19-.49-2.19-1.57h.25c0,.91,1.01,1.32,1.94,1.32s1.94-.41,1.94-1.32h.23c0,1.08-1.12,1.57-2.18,1.57Z"/><path d="M7.3,8.64c-.15,0-.3-.02-.46-.06-.9-.24-1.78-1.13-2.02-2.02-.15-.56-.04-1.04,.33-1.4l.18,.18c-.37,.37-.35,.84-.26,1.16,.22,.8,1.04,1.63,1.85,1.85,.32,.09,.79,.11,1.16-.26l.15,.17c-.26,.26-.56,.4-.92,.4Z"/><path d="M9.43,7.74c-1.08,0-1.58-1.12-1.58-2.18,0-.56,.14-1.09,.38-1.49,.29-.46,.7-.71,1.19-.71v.25c-.51,0-.81,.32-.98,.59-.22,.36-.34,.84-.34,1.36,0,.94,.41,1.94,1.32,1.94v.23Z"/></g><g><path d="M5.58,11.01c-1.06,0-2.19-.49-2.19-1.57h.25c0,.91,1.01,1.32,1.94,1.32s1.94-.41,1.94-1.32h.23c0,1.08-1.12,1.57-2.17,1.57Z"/><path d="M7.31,8.65c-.15,0-.3-.02-.46-.06-.9-.24-1.78-1.13-2.02-2.02-.15-.56-.04-1.04,.33-1.4l.18,.18c-.37,.37-.35,.84-.26,1.16,.22,.8,1.04,1.63,1.85,1.85,.32,.09,.79,.11,1.16-.26l.15,.17c-.26,.26-.56,.4-.92,.4Z"/><path d="M9.44,7.75c-1.08,0-1.58-1.12-1.58-2.17,0-.56,.14-1.09,.38-1.49,.29-.46,.7-.71,1.19-.71v.25c-.51,0-.81,.32-.98,.59-.22,.36-.34,.84-.34,1.36,0,.94,.41,1.94,1.32,1.94v.23Z"/></g><g><path d="M5.59,11.02c-1.06,0-2.19-.49-2.19-1.57h.25c0,.91,1.01,1.32,1.94,1.32s1.94-.41,1.94-1.32h.23c0,1.08-1.12,1.57-2.17,1.57Z"/><path d="M7.33,8.66c-.15,0-.3-.02-.46-.06-.9-.24-1.78-1.13-2.02-2.02-.15-.56-.04-1.04,.33-1.4l.18,.18c-.37,.37-.35,.84-.26,1.16,.22,.8,1.04,1.63,1.85,1.85,.32,.09,.79,.11,1.16-.26l.15,.17c-.26,.26-.56,.4-.92,.4Z"/><path d="M9.45,7.77c-1.08,0-1.58-1.12-1.58-2.17,0-.56,.14-1.09,.38-1.49,.29-.46,.7-.71,1.19-.71v.25c-.51,0-.81,.32-.98,.59-.22,.36-.34,.84-.34,1.36,0,.94,.41,1.94,1.32,1.94v.23Z"/></g><g><path d="M5.6,11.03c-1.06,0-2.19-.49-2.19-1.57h.25c0,.91,1.01,1.32,1.94,1.32s1.94-.41,1.94-1.32h.23c0,1.08-1.12,1.57-2.17,1.57Z"/><path d="M7.34,8.67c-.15,0-.3-.02-.46-.06-.9-.24-1.78-1.13-2.02-2.02-.15-.56-.04-1.04,.33-1.4l.18,.18c-.37,.37-.35,.84-.26,1.16,.22,.8,1.04,1.63,1.85,1.85,.32,.09,.79,.11,1.16-.26l.15,.17c-.26,.26-.55,.4-.92,.4Z"/><path d="M9.47,7.78c-1.08,0-1.58-1.12-1.58-2.17,0-.56,.14-1.09,.38-1.49,.29-.46,.7-.71,1.19-.71v.25c-.51,0-.81,.32-.98,.59-.22,.36-.34,.84-.34,1.36,0,.94,.41,1.94,1.32,1.94v.23Z"/></g><g><path d="M5.61,11.05c-1.06,0-2.19-.49-2.19-1.57h.25c0,.91,1.01,1.32,1.94,1.32s1.94-.41,1.94-1.32h.23c0,1.08-1.12,1.57-2.17,1.57Z"/><path d="M7.35,8.69c-.15,0-.3-.02-.46-.06-.9-.24-1.78-1.13-2.02-2.02-.15-.56-.04-1.04,.33-1.4l.18,.18c-.37,.37-.35,.84-.26,1.16,.22,.8,1.04,1.63,1.85,1.85,.32,.09,.79,.11,1.16-.26l.15,.17c-.26,.26-.55,.4-.92,.4Z"/><path d="M9.48,7.79c-1.08,0-1.58-1.12-1.58-2.17,0-.56,.14-1.09,.38-1.49,.29-.46,.7-.71,1.19-.71v.25c-.51,0-.81,.32-.98,.59-.22,.36-.34,.84-.34,1.36,0,.94,.41,1.94,1.32,1.94v.23Z"/></g><g><path d="M5.63,11.06c-1.06,0-2.19-.49-2.19-1.57h.25c0,.91,1.01,1.32,1.94,1.32s1.94-.41,1.94-1.32h.23c0,1.08-1.12,1.57-2.17,1.57Z"/><path d="M7.36,8.7c-.15,0-.3-.02-.46-.06-.9-.24-1.78-1.13-2.02-2.02-.15-.56-.04-1.04,.33-1.4l.18,.18c-.37,.37-.35,.84-.26,1.16,.22,.8,1.04,1.63,1.85,1.85,.32,.09,.79,.11,1.16-.26l.15,.17c-.26,.26-.55,.4-.92,.4Z"/><path d="M9.49,7.8c-1.08,0-1.58-1.12-1.58-2.17,0-.56,.14-1.09,.38-1.49,.29-.46,.7-.71,1.19-.71v.25c-.51,0-.81,.32-.98,.59-.22,.36-.34,.84-.34,1.36,0,.94,.41,1.94,1.32,1.94v.23Z"/></g><g><path d="M5.64,11.07c-1.06,0-2.19-.49-2.19-1.57h.25c0,.91,1.01,1.32,1.94,1.32s1.94-.41,1.94-1.32h.23c0,1.08-1.12,1.57-2.17,1.57Z"/><path d="M7.37,8.71c-.15,0-.3-.02-.46-.06-.9-.24-1.78-1.13-2.02-2.02-.15-.56-.04-1.04,.33-1.4l.18,.18c-.37,.37-.35,.84-.26,1.16,.22,.8,1.04,1.63,1.85,1.85,.32,.09,.79,.11,1.16-.26l.15,.17c-.26,.26-.55,.4-.92,.4Z"/><path d="M9.5,7.81c-1.08,0-1.58-1.12-1.58-2.17,0-.56,.14-1.09,.38-1.49,.29-.46,.7-.71,1.19-.71v.25c-.51,0-.81,.32-.98,.59-.22,.36-.34,.84-.34,1.36,0,.94,.41,1.94,1.32,1.94v.23Z"/></g><g><path d="M5.65,11.08c-1.06,0-2.19-.49-2.19-1.57h.25c0,.91,1.01,1.32,1.94,1.32s1.94-.41,1.94-1.32h.23c0,1.08-1.12,1.57-2.17,1.57Z"/><path d="M7.39,8.72c-.15,0-.3-.02-.46-.06-.9-.24-1.78-1.13-2.02-2.02-.15-.56-.04-1.04,.33-1.4l.18,.18c-.37,.37-.35,.84-.26,1.16,.22,.8,1.04,1.63,1.85,1.85,.32,.09,.79,.11,1.16-.26l.15,.17c-.26,.26-.55,.4-.92,.4Z"/><path d="M9.52,7.82c-1.08,0-1.58-1.12-1.58-2.17,0-.56,.14-1.09,.38-1.49,.29-.46,.7-.71,1.19-.71v.25c-.51,0-.81,.32-.98,.59-.22,.36-.34,.84-.34,1.36,0,.94,.41,1.94,1.32,1.94v.23Z"/></g><g><path d="M5.66,11.09c-1.06,0-2.19-.49-2.19-1.57h.25c0,.91,1.01,1.32,1.94,1.32s1.94-.41,1.94-1.32h.23c0,1.08-1.12,1.57-2.17,1.57Z"/><path d="M7.4,8.74c-.15,0-.3-.02-.46-.06-.9-.24-1.78-1.13-2.02-2.02-.15-.56-.04-1.04,.33-1.4l.18,.18c-.37,.37-.35,.84-.26,1.16,.22,.8,1.04,1.63,1.85,1.85,.32,.09,.79,.11,1.16-.26l.15,.17c-.26,.26-.55,.4-.92,.4Z"/><path d="M9.53,7.83c-1.08,0-1.58-1.12-1.58-2.17,0-.56,.14-1.09,.38-1.49,.29-.46,.7-.71,1.19-.71v.25c-.51,0-.81,.32-.98,.59-.22,.36-.34,.84-.34,1.36,0,.94,.41,1.94,1.32,1.94v.23Z"/></g><g><path d="M5.67,11.11c-1.06,0-2.19-.49-2.19-1.57h.25c0,.91,1.01,1.32,1.94,1.32s1.94-.41,1.94-1.32h.23c0,1.08-1.11,1.57-2.17,1.57Z"/><path d="M7.41,8.75c-.15,0-.3-.02-.46-.06-.9-.24-1.78-1.13-2.02-2.02-.15-.56-.04-1.04,.33-1.4l.18,.18c-.37,.37-.35,.84-.26,1.16,.22,.8,1.04,1.63,1.85,1.85,.32,.09,.79,.11,1.16-.26l.15,.17c-.26,.26-.55,.4-.92,.4Z"/><path d="M9.54,7.85c-1.08,0-1.58-1.11-1.58-2.17,0-.56,.14-1.09,.38-1.49,.29-.46,.7-.71,1.19-.71v.25c-.51,0-.81,.32-.98,.59-.22,.36-.34,.84-.34,1.36,0,.94,.41,1.94,1.32,1.94v.23Z"/></g><g><path d="M5.69,11.12c-1.06,0-2.19-.49-2.19-1.57h.25c0,.91,1.01,1.32,1.94,1.32s1.94-.41,1.94-1.32h.23c0,1.08-1.11,1.57-2.17,1.57Z"/><path d="M7.42,8.76c-.15,0-.3-.02-.46-.06-.9-.24-1.78-1.13-2.02-2.02-.15-.56-.04-1.04,.33-1.4l.18,.18c-.37,.37-.35,.84-.26,1.16,.22,.8,1.04,1.63,1.85,1.85,.32,.09,.79,.11,1.16-.26l.14,.17c-.26,.26-.55,.4-.91,.4Z"/><path d="M9.55,7.86c-1.08,0-1.58-1.11-1.58-2.17,0-.56,.14-1.09,.38-1.49,.29-.46,.7-.71,1.19-.71v.25c-.51,0-.81,.32-.98,.59-.22,.36-.34,.84-.34,1.36,0,.94,.41,1.94,1.32,1.94v.23Z"/></g><g><path d="M5.7,11.13c-1.06,0-2.19-.49-2.19-1.57h.25c0,.91,1.01,1.32,1.94,1.32s1.94-.41,1.94-1.32h.23c0,1.08-1.11,1.57-2.17,1.57Z"/><path d="M7.43,8.77c-.15,0-.3-.02-.46-.06-.9-.24-1.78-1.13-2.02-2.02-.15-.56-.04-1.04,.33-1.4l.18,.18c-.37,.37-.35,.84-.26,1.16,.22,.8,1.04,1.63,1.85,1.85,.32,.09,.79,.11,1.16-.26l.14,.17c-.26,.26-.55,.4-.91,.4Z"/><path d="M9.56,7.87c-1.08,0-1.58-1.11-1.58-2.17,0-.56,.14-1.09,.38-1.49,.29-.46,.7-.71,1.19-.71v.25c-.51,0-.81,.32-.98,.59-.22,.36-.34,.84-.34,1.36,0,.94,.41,1.94,1.32,1.94v.23Z"/></g><g><path d="M5.71,11.14c-1.06,0-2.19-.49-2.19-1.57h.25c0,.91,1.01,1.32,1.94,1.32s1.94-.41,1.94-1.32h.23c0,1.08-1.11,1.57-2.17,1.57Z"/><path d="M7.45,8.78c-.15,0-.3-.02-.46-.06-.9-.24-1.78-1.13-2.02-2.02-.15-.56-.04-1.04,.33-1.4l.18,.18c-.37,.37-.35,.84-.26,1.16,.22,.8,1.04,1.63,1.85,1.85,.32,.09,.79,.11,1.16-.26l.14,.17c-.26,.26-.55,.4-.91,.4Z"/><path d="M9.58,7.88c-1.08,0-1.58-1.11-1.58-2.17,0-.56,.14-1.09,.38-1.49,.29-.46,.7-.71,1.19-.71v.25c-.51,0-.81,.32-.98,.59-.22,.36-.34,.84-.34,1.36,0,.94,.41,1.94,1.32,1.94v.23Z"/></g><g><path d="M5.72,11.15c-1.06,0-2.19-.49-2.19-1.57h.25c0,.91,1.01,1.32,1.94,1.32s1.94-.41,1.94-1.32h.23c0,1.08-1.11,1.57-2.17,1.57Z"/><path d="M7.46,8.8c-.15,0-.3-.02-.46-.06-.9-.24-1.78-1.13-2.02-2.02-.15-.56-.04-1.04,.33-1.4l.18,.18c-.37,.37-.35,.84-.26,1.16,.22,.8,1.04,1.63,1.85,1.85,.32,.09,.79,.11,1.16-.26l.14,.17c-.26,.26-.55,.4-.91,.4Z"/><path d="M9.59,7.89c-1.08,0-1.58-1.11-1.58-2.17,0-.56,.14-1.09,.38-1.49,.29-.46,.7-.71,1.19-.71v.25c-.51,0-.81,.32-.98,.59-.22,.36-.34,.84-.34,1.36,0,.94,.41,1.94,1.32,1.94v.23Z"/></g><g><path d="M5.73,11.17c-1.06,0-2.19-.49-2.19-1.57h.25c0,.91,1.01,1.32,1.94,1.32s1.94-.41,1.94-1.32h.23c0,1.09-1.11,1.57-2.17,1.57Z"/><path d="M7.47,8.81c-.15,0-.3-.02-.46-.06-.9-.24-1.78-1.13-2.02-2.02-.15-.56-.04-1.04,.33-1.4l.18,.18c-.37,.37-.35,.84-.26,1.16,.22,.8,1.04,1.63,1.85,1.85,.32,.09,.79,.11,1.16-.26l.14,.17c-.26,.26-.55,.4-.91,.4Z"/><path d="M9.6,7.9c-1.08,0-1.58-1.11-1.58-2.17,0-.56,.14-1.09,.38-1.49,.29-.46,.7-.71,1.19-.71v.25c-.51,0-.81,.32-.98,.59-.22,.36-.34,.84-.34,1.36,0,.94,.41,1.94,1.32,1.94v.23Z"/></g><g><path d="M5.75,11.18c-1.06,0-2.19-.49-2.19-1.57h.25c0,.91,1.01,1.32,1.94,1.32s1.94-.41,1.94-1.32h.22c0,1.09-1.11,1.57-2.17,1.57Z"/><path d="M7.48,8.82c-.15,0-.3-.02-.46-.06-.9-.24-1.78-1.13-2.02-2.02-.15-.56-.04-1.04,.33-1.4l.18,.18c-.37,.37-.35,.84-.26,1.16,.22,.8,1.04,1.63,1.85,1.85,.32,.09,.79,.11,1.16-.26l.14,.17c-.26,.26-.55,.4-.91,.4Z"/><path d="M9.61,7.91c-1.08,0-1.58-1.11-1.58-2.17,0-.56,.14-1.09,.38-1.49,.29-.46,.7-.71,1.19-.71v.25c-.51,0-.81,.32-.98,.59-.22,.36-.34,.84-.34,1.36,0,.94,.41,1.94,1.32,1.94v.22Z"/></g><g><path d="M5.76,11.19c-1.06,0-2.19-.49-2.19-1.57h.25c0,.91,1.01,1.32,1.94,1.32s1.94-.41,1.94-1.32h.22c0,1.09-1.11,1.57-2.17,1.57Z"/><path d="M7.49,8.83c-.15,0-.3-.02-.46-.06-.9-.24-1.78-1.13-2.02-2.02-.15-.56-.04-1.04,.33-1.4l.18,.18c-.37,.37-.35,.84-.26,1.16,.22,.8,1.04,1.63,1.85,1.85,.32,.09,.79,.11,1.16-.26l.14,.17c-.26,.26-.54,.4-.91,.4Z"/><path d="M9.62,7.93c-1.08,0-1.58-1.11-1.58-2.17,0-.56,.14-1.09,.38-1.49,.29-.46,.7-.71,1.19-.71v.25c-.51,0-.81,.32-.98,.59-.22,.36-.34,.84-.34,1.36,0,.94,.41,1.94,1.32,1.94v.22Z"/></g><g><path d="M5.77,11.2c-1.06,0-2.19-.49-2.19-1.57h.25c0,.91,1.01,1.32,1.94,1.32s1.94-.41,1.94-1.32h.22c0,1.09-1.11,1.57-2.17,1.57Z"/><path d="M7.51,8.84c-.15,0-.3-.02-.46-.06-.9-.24-1.78-1.13-2.02-2.02-.15-.56-.04-1.04,.33-1.4l.18,.18c-.37,.37-.35,.84-.26,1.16,.22,.8,1.04,1.63,1.85,1.85,.32,.09,.79,.11,1.16-.26l.14,.17c-.26,.26-.54,.4-.91,.4Z"/><path d="M9.64,7.94c-1.08,0-1.58-1.11-1.58-2.17,0-.56,.14-1.09,.38-1.49,.29-.46,.7-.71,1.19-.71v.25c-.51,0-.81,.32-.98,.59-.22,.36-.34,.84-.34,1.36,0,.94,.41,1.94,1.32,1.94v.22Z"/></g><g><path d="M5.78,11.21c-1.06,0-2.19-.49-2.19-1.57h.25c0,.91,1.01,1.32,1.94,1.32s1.94-.41,1.94-1.32h.22c0,1.09-1.11,1.57-2.17,1.57Z"/><path d="M7.52,8.86c-.15,0-.3-.02-.46-.06-.9-.24-1.78-1.13-2.02-2.02-.15-.56-.04-1.04,.33-1.4l.18,.18c-.37,.37-.35,.84-.26,1.16,.22,.8,1.04,1.63,1.85,1.85,.32,.09,.79,.11,1.16-.26l.14,.17c-.26,.26-.54,.4-.91,.4Z"/><path d="M9.65,7.95c-1.08,0-1.58-1.11-1.58-2.17,0-.56,.14-1.09,.38-1.49,.29-.46,.7-.71,1.19-.71v.25c-.51,0-.81,.32-.98,.59-.22,.36-.34,.84-.34,1.36,0,.94,.41,1.94,1.32,1.94v.22Z"/></g><g><path d="M5.79,11.23c-1.06,0-2.19-.49-2.19-1.57h.25c0,.91,1.01,1.32,1.94,1.32s1.94-.41,1.94-1.32h.22c0,1.09-1.11,1.57-2.17,1.57Z"/><path d="M7.53,8.87c-.15,0-.3-.02-.46-.06-.9-.24-1.78-1.13-2.02-2.02-.15-.56-.04-1.04,.33-1.4l.18,.18c-.37,.37-.35,.84-.26,1.16,.22,.8,1.04,1.63,1.85,1.85,.32,.09,.79,.11,1.16-.26l.14,.17c-.26,.26-.54,.4-.91,.4Z"/><path d="M9.66,7.96c-1.08,0-1.58-1.11-1.58-2.17,0-.56,.14-1.09,.38-1.49,.29-.46,.7-.71,1.19-.71v.25c-.51,0-.81,.32-.98,.59-.22,.36-.34,.84-.34,1.36,0,.94,.41,1.94,1.32,1.94v.22Z"/></g><g><path d="M5.81,11.24c-1.06,0-2.19-.49-2.19-1.57h.25c0,.91,1.01,1.32,1.94,1.32s1.94-.41,1.94-1.32h.22c0,1.09-1.11,1.57-2.17,1.57Z"/><path d="M7.54,8.88c-.15,0-.3-.02-.46-.06-.9-.24-1.78-1.13-2.02-2.02-.15-.56-.04-1.04,.33-1.4l.18,.18c-.37,.37-.35,.84-.26,1.16,.22,.8,1.04,1.63,1.85,1.85,.32,.09,.79,.11,1.16-.26l.14,.17c-.26,.26-.54,.4-.91,.4Z"/><path d="M9.67,7.97c-1.08,0-1.58-1.11-1.58-2.17,0-.56,.14-1.09,.38-1.49,.29-.46,.7-.71,1.19-.71v.25c-.51,0-.81,.32-.98,.59-.22,.36-.34,.84-.34,1.36,0,.94,.41,1.94,1.32,1.94v.22Z"/></g><g><path d="M5.82,11.25c-1.06,0-2.19-.49-2.19-1.57h.25c0,.91,1.01,1.32,1.94,1.32s1.94-.41,1.94-1.32h.22c0,1.09-1.11,1.57-2.16,1.57Z"/><path d="M7.55,8.89c-.15,0-.3-.02-.46-.06-.9-.24-1.78-1.13-2.02-2.02-.15-.56-.04-1.04,.33-1.4l.18,.18c-.37,.37-.35,.84-.26,1.16,.22,.8,1.04,1.63,1.85,1.85,.32,.09,.79,.11,1.16-.26l.14,.17c-.26,.26-.54,.4-.91,.4Z"/><path d="M9.69,7.98c-1.08,0-1.58-1.11-1.58-2.16,0-.56,.14-1.09,.38-1.49,.29-.46,.7-.71,1.19-.71v.25c-.51,0-.81,.32-.98,.59-.22,.36-.34,.84-.34,1.36,0,.94,.41,1.94,1.32,1.94v.22Z"/></g><g><path d="M5.83,11.26c-1.06,0-2.19-.49-2.19-1.57h.25c0,.91,1.01,1.32,1.94,1.32s1.94-.41,1.94-1.32h.22c0,1.09-1.11,1.57-2.16,1.57Z"/><path d="M7.57,8.9c-.15,0-.3-.02-.46-.06-.9-.24-1.78-1.13-2.02-2.02-.15-.56-.04-1.04,.33-1.4l.18,.18c-.37,.37-.35,.84-.26,1.16,.22,.8,1.04,1.63,1.85,1.85,.32,.09,.79,.11,1.16-.26l.14,.17c-.26,.26-.54,.4-.91,.4Z"/><path d="M9.7,8c-1.08,0-1.58-1.11-1.58-2.16,0-.56,.14-1.09,.38-1.49,.29-.46,.7-.71,1.19-.71v.25c-.51,0-.81,.32-.98,.59-.22,.36-.34,.84-.34,1.36,0,.94,.41,1.94,1.32,1.94v.22Z"/></g><g><path d="M5.84,11.27c-1.06,0-2.19-.49-2.19-1.57h.25c0,.91,1.01,1.32,1.94,1.32s1.94-.41,1.94-1.32h.22c0,1.09-1.11,1.57-2.16,1.57Z"/><path d="M7.58,8.92c-.15,0-.3-.02-.46-.06-.9-.24-1.78-1.13-2.02-2.02-.15-.56-.04-1.04,.33-1.4l.18,.18c-.37,.37-.35,.84-.26,1.16,.22,.8,1.04,1.63,1.85,1.85,.32,.09,.79,.11,1.16-.26l.14,.17c-.26,.26-.54,.4-.91,.4Z"/><path d="M9.71,8.01c-1.08,0-1.58-1.11-1.58-2.16,0-.56,.14-1.09,.38-1.49,.29-.46,.7-.71,1.19-.71v.25c-.51,0-.81,.32-.98,.59-.22,.36-.34,.84-.34,1.36,0,.94,.41,1.94,1.32,1.94v.22Z"/></g><g><path d="M5.85,11.29c-1.06,0-2.19-.49-2.19-1.57h.25c0,.91,1.01,1.32,1.94,1.32s1.94-.41,1.94-1.32h.22c0,1.09-1.11,1.57-2.16,1.57Z"/><path d="M7.59,8.93c-.15,0-.3-.02-.46-.06-.9-.24-1.78-1.13-2.02-2.02-.15-.56-.04-1.04,.33-1.4l.18,.18c-.37,.37-.35,.84-.26,1.16,.22,.8,1.04,1.63,1.85,1.85,.32,.09,.79,.11,1.16-.26l.13,.17c-.26,.26-.54,.4-.9,.4Z"/><path d="M9.72,8.02c-1.08,0-1.58-1.11-1.58-2.16,0-.56,.14-1.09,.38-1.49,.29-.46,.7-.71,1.19-.71v.25c-.51,0-.81,.32-.98,.59-.22,.36-.34,.84-.34,1.36,0,.94,.41,1.94,1.32,1.94v.22Z"/></g><g><path d="M5.87,11.3c-1.06,0-2.19-.49-2.19-1.57h.25c0,.91,1.01,1.32,1.94,1.32s1.94-.41,1.94-1.32h.22c0,1.09-1.11,1.57-2.16,1.57Z"/><path d="M7.6,8.94c-.15,0-.3-.02-.46-.06-.9-.24-1.78-1.13-2.02-2.02-.15-.56-.04-1.04,.33-1.4l.18,.18c-.37,.37-.35,.84-.26,1.16,.22,.8,1.04,1.63,1.85,1.85,.32,.09,.79,.11,1.16-.26l.13,.17c-.26,.26-.54,.4-.9,.4Z"/><path d="M9.73,8.03c-1.08,0-1.58-1.11-1.58-2.16,0-.56,.14-1.09,.38-1.49,.29-.46,.7-.71,1.19-.71v.25c-.51,0-.81,.32-.98,.59-.22,.36-.34,.84-.34,1.36,0,.94,.41,1.94,1.32,1.94v.22Z"/></g><g><path d="M5.88,11.31c-1.06,0-2.19-.49-2.19-1.57h.25c0,.91,1.01,1.32,1.94,1.32s1.94-.41,1.94-1.32h.22c0,1.09-1.11,1.57-2.16,1.57Z"/><path d="M7.61,8.95c-.15,0-.3-.02-.46-.06-.9-.24-1.78-1.13-2.02-2.02-.15-.56-.04-1.04,.33-1.4l.18,.18c-.37,.37-.35,.84-.26,1.16,.22,.8,1.04,1.63,1.85,1.85,.32,.09,.79,.11,1.16-.26l.13,.17c-.26,.26-.54,.4-.9,.4Z"/><path d="M9.75,8.04c-1.08,0-1.58-1.11-1.58-2.16,0-.56,.14-1.09,.38-1.49,.29-.46,.7-.71,1.19-.71v.25c-.51,0-.81,.32-.98,.59-.22,.36-.34,.84-.34,1.36,0,.94,.41,1.94,1.32,1.94v.22Z"/></g><g><path d="M5.89,11.32c-1.06,0-2.19-.49-2.19-1.57h.25c0,.91,1.01,1.32,1.94,1.32s1.94-.41,1.94-1.32h.22c0,1.09-1.11,1.57-2.16,1.57Z"/><path d="M7.63,8.96c-.15,0-.3-.02-.46-.06-.9-.24-1.78-1.13-2.02-2.02-.15-.56-.04-1.04,.33-1.4l.18,.18c-.37,.37-.35,.84-.26,1.16,.22,.8,1.04,1.63,1.85,1.85,.32,.09,.79,.11,1.16-.26l.13,.17c-.26,.26-.54,.4-.9,.4Z"/><path d="M9.76,8.05c-1.08,0-1.58-1.11-1.58-2.16,0-.56,.14-1.09,.38-1.49,.29-.46,.7-.71,1.19-.71v.25c-.51,0-.81,.32-.98,.59-.22,.36-.34,.84-.34,1.36,0,.94,.41,1.94,1.32,1.94v.22Z"/></g><g><path d="M5.9,11.33c-1.06,0-2.19-.49-2.19-1.57h.25c0,.91,1.01,1.32,1.94,1.32s1.94-.41,1.94-1.32h.22c0,1.09-1.11,1.57-2.16,1.57Z"/><path d="M7.64,8.98c-.15,0-.3-.02-.46-.06-.9-.24-1.78-1.13-2.02-2.02-.15-.56-.04-1.04,.33-1.4l.18,.18c-.37,.37-.35,.84-.26,1.16,.22,.8,1.04,1.63,1.85,1.85,.32,.09,.79,.11,1.16-.26l.13,.17c-.26,.26-.54,.4-.9,.4Z"/><path d="M9.77,8.06c-1.08,0-1.58-1.11-1.58-2.16,0-.56,.14-1.09,.38-1.49,.29-.46,.7-.71,1.19-.71v.25c-.51,0-.81,.32-.98,.59-.22,.36-.34,.84-.34,1.36,0,.94,.41,1.94,1.32,1.94v.22Z"/></g><g><path d="M5.92,11.35c-1.06,0-2.19-.49-2.19-1.57h.25c0,.91,1.01,1.32,1.94,1.32s1.94-.41,1.94-1.32h.22c0,1.09-1.1,1.57-2.16,1.57Z"/><path d="M7.65,8.99c-.15,0-.3-.02-.46-.06-.9-.24-1.78-1.13-2.02-2.02-.15-.56-.04-1.04,.33-1.4l.18,.18c-.37,.37-.35,.84-.26,1.16,.22,.8,1.04,1.63,1.85,1.85,.32,.09,.79,.11,1.16-.26l.13,.17c-.26,.26-.54,.4-.9,.4Z"/><path d="M9.78,8.08c-1.08,0-1.58-1.1-1.58-2.16,0-.56,.14-1.09,.38-1.49,.29-.46,.7-.71,1.19-.71v.25c-.51,0-.81,.32-.98,.59-.22,.36-.34,.84-.34,1.36,0,.94,.41,1.94,1.32,1.94v.22Z"/></g><g><path d="M5.93,11.36c-1.06,0-2.19-.49-2.19-1.57h.25c0,.91,1.01,1.32,1.94,1.32s1.94-.41,1.94-1.32h.22c0,1.09-1.1,1.57-2.16,1.57Z"/><path d="M7.66,9c-.15,0-.3-.02-.46-.06-.9-.24-1.78-1.13-2.02-2.02-.15-.56-.04-1.04,.33-1.4l.18,.18c-.37,.37-.35,.84-.26,1.16,.22,.8,1.04,1.63,1.85,1.85,.32,.09,.79,.11,1.16-.26l.13,.17c-.26,.26-.53,.4-.9,.4Z"/><path d="M9.79,8.09c-1.08,0-1.58-1.1-1.58-2.16,0-.56,.14-1.09,.38-1.49,.29-.46,.7-.71,1.19-.71v.25c-.51,0-.81,.32-.98,.59-.22,.36-.34,.84-.34,1.36,0,.94,.41,1.94,1.32,1.94v.22Z"/></g><g><path d="M5.94,11.37c-1.06,0-2.19-.49-2.19-1.57h.25c0,.91,1.01,1.32,1.94,1.32s1.94-.41,1.94-1.32h.22c0,1.09-1.1,1.57-2.16,1.57Z"/><path d="M7.67,9.01c-.15,0-.3-.02-.46-.06-.9-.24-1.78-1.13-2.02-2.02-.15-.56-.04-1.04,.33-1.4l.18,.18c-.37,.37-.35,.84-.26,1.16,.22,.8,1.04,1.63,1.85,1.85,.32,.09,.79,.11,1.16-.26l.13,.17c-.26,.26-.53,.4-.9,.4Z"/><path d="M9.81,8.1c-1.08,0-1.58-1.1-1.58-2.16,0-.56,.14-1.09,.38-1.49,.29-.46,.7-.71,1.19-.71v.25c-.51,0-.81,.32-.98,.59-.22,.36-.34,.84-.34,1.36,0,.94,.41,1.94,1.32,1.94v.22Z"/></g><g><path d="M5.95,11.38c-1.06,0-2.19-.49-2.19-1.57h.25c0,.91,1.01,1.32,1.94,1.32s1.94-.41,1.94-1.32h.22c0,1.09-1.1,1.57-2.16,1.57Z"/><path d="M7.69,9.02c-.15,0-.3-.02-.46-.06-.9-.24-1.78-1.13-2.02-2.02-.15-.56-.04-1.04,.33-1.4l.18,.18c-.37,.37-.35,.84-.26,1.16,.22,.8,1.04,1.63,1.85,1.85,.32,.09,.79,.11,1.16-.26l.13,.16c-.26,.26-.53,.4-.9,.4Z"/><path d="M9.82,8.11c-1.08,0-1.58-1.1-1.58-2.16,0-.56,.14-1.09,.38-1.49,.29-.46,.7-.71,1.19-.71v.25c-.51,0-.81,.32-.98,.59-.22,.36-.34,.84-.34,1.36,0,.94,.41,1.94,1.32,1.94v.22Z"/></g><g><path d="M5.96,11.39c-1.06,0-2.19-.49-2.19-1.57h.25c0,.91,1.01,1.32,1.94,1.32s1.94-.41,1.94-1.32h.22c0,1.09-1.1,1.57-2.16,1.57Z"/><path d="M7.7,9.04c-.15,0-.3-.02-.46-.06-.9-.24-1.78-1.13-2.02-2.02-.15-.56-.04-1.04,.33-1.4l.18,.18c-.37,.37-.35,.84-.26,1.16,.22,.8,1.04,1.63,1.85,1.85,.32,.09,.79,.11,1.16-.26l.13,.16c-.26,.26-.53,.4-.9,.4Z"/><path d="M9.83,8.12c-1.08,0-1.58-1.1-1.58-2.16,0-.56,.14-1.09,.38-1.49,.29-.46,.7-.71,1.19-.71v.25c-.51,0-.81,.32-.98,.59-.22,.36-.34,.84-.34,1.36,0,.94,.41,1.94,1.32,1.94v.22Z"/></g><g><path d="M5.98,11.41c-1.06,0-2.19-.49-2.19-1.57h.25c0,.91,1.01,1.32,1.94,1.32s1.94-.41,1.94-1.32h.22c0,1.09-1.1,1.57-2.16,1.57Z"/><path d="M7.71,9.05c-.15,0-.3-.02-.46-.06-.9-.24-1.78-1.13-2.02-2.02-.15-.56-.04-1.04,.33-1.4l.18,.18c-.37,.37-.35,.84-.26,1.16,.22,.8,1.04,1.63,1.85,1.85,.32,.09,.79,.11,1.16-.26l.13,.16c-.26,.26-.53,.4-.9,.4Z"/><path d="M9.84,8.13c-1.08,0-1.58-1.1-1.58-2.16,0-.56,.14-1.09,.38-1.49,.29-.46,.7-.71,1.19-.71v.25c-.51,0-.81,.32-.98,.59-.22,.36-.34,.84-.34,1.36,0,.94,.41,1.94,1.32,1.94v.22Z"/></g><g><path d="M5.99,11.42c-1.06,0-2.19-.49-2.19-1.57h.25c0,.91,1.01,1.32,1.94,1.32s1.94-.41,1.94-1.32h.21c0,1.09-1.1,1.57-2.16,1.57Z"/><path d="M7.72,9.06c-.15,0-.3-.02-.46-.06-.9-.24-1.78-1.13-2.02-2.02-.15-.56-.04-1.04,.33-1.4l.18,.18c-.37,.37-.35,.84-.26,1.16,.22,.8,1.04,1.63,1.85,1.85,.32,.09,.79,.11,1.16-.26l.13,.16c-.26,.26-.53,.4-.9,.4Z"/><path d="M9.85,8.14c-1.08,0-1.58-1.1-1.58-2.16,0-.56,.14-1.09,.38-1.49,.29-.46,.7-.71,1.19-.71v.25c-.51,0-.81,.32-.98,.59-.22,.36-.34,.84-.34,1.36,0,.94,.41,1.94,1.32,1.94v.21Z"/></g><g><path d="M6,11.43c-1.06,0-2.19-.49-2.19-1.57h.25c0,.91,1.01,1.32,1.94,1.32s1.94-.41,1.94-1.32h.21c0,1.09-1.1,1.57-2.16,1.57Z"/><path d="M7.73,9.07c-.15,0-.3-.02-.46-.06-.9-.24-1.78-1.13-2.02-2.02-.15-.56-.04-1.04,.33-1.4l.18,.18c-.37,.37-.35,.84-.26,1.16,.22,.8,1.04,1.63,1.85,1.85,.32,.09,.79,.11,1.16-.26l.13,.16c-.26,.26-.53,.4-.9,.4Z"/><path d="M9.87,8.16c-1.08,0-1.58-1.1-1.58-2.16,0-.56,.14-1.09,.38-1.49,.29-.46,.7-.71,1.19-.71v.25c-.51,0-.81,.32-.98,.59-.22,.36-.34,.84-.34,1.36,0,.94,.41,1.94,1.32,1.94v.21Z"/></g><g><path d="M6.01,11.44c-1.06,0-2.19-.49-2.19-1.57h.25c0,.91,1.01,1.32,1.94,1.32s1.94-.41,1.94-1.32h.21c0,1.09-1.1,1.57-2.16,1.57Z"/><path d="M7.75,9.08c-.15,0-.3-.02-.46-.06-.9-.24-1.78-1.13-2.02-2.02-.15-.56-.04-1.04,.33-1.4l.18,.18c-.37,.37-.35,.84-.26,1.16,.22,.8,1.04,1.63,1.85,1.85,.32,.09,.79,.11,1.16-.26l.13,.16c-.26,.26-.53,.4-.89,.4Z"/><path d="M9.88,8.17c-1.08,0-1.58-1.1-1.58-2.16,0-.56,.14-1.09,.38-1.49,.29-.46,.7-.71,1.19-.71v.25c-.51,0-.81,.32-.98,.59-.22,.36-.34,.84-.34,1.36,0,.94,.41,1.94,1.32,1.94v.21Z"/></g><g><path d="M6.02,11.45c-1.06,0-2.19-.49-2.19-1.57h.25c0,.91,1.01,1.32,1.94,1.32s1.94-.41,1.94-1.32h.21c0,1.09-1.1,1.57-2.16,1.57Z"/><path d="M7.76,9.1c-.15,0-.3-.02-.46-.06-.9-.24-1.78-1.13-2.02-2.02-.15-.56-.04-1.04,.33-1.4l.18,.18c-.37,.37-.35,.84-.26,1.16,.22,.8,1.04,1.63,1.85,1.85,.32,.09,.79,.11,1.16-.26l.12,.16c-.26,.26-.53,.4-.89,.4Z"/><path d="M9.89,8.18c-1.08,0-1.58-1.1-1.58-2.16,0-.56,.14-1.09,.38-1.49,.29-.46,.7-.71,1.19-.71v.25c-.51,0-.81,.32-.98,.59-.22,.36-.34,.84-.34,1.36,0,.94,.41,1.94,1.32,1.94v.21Z"/></g><g><path d="M6.04,11.47c-1.06,0-2.19-.49-2.19-1.57h.25c0,.91,1.01,1.32,1.94,1.32s1.94-.41,1.94-1.32h.21c0,1.09-1.1,1.57-2.16,1.57Z"/><path d="M7.77,9.11c-.15,0-.3-.02-.46-.06-.9-.24-1.78-1.13-2.02-2.02-.15-.56-.04-1.04,.33-1.4l.18,.18c-.37,.37-.35,.84-.26,1.16,.22,.8,1.04,1.63,1.85,1.85,.32,.09,.79,.11,1.16-.26l.12,.16c-.26,.26-.53,.4-.89,.4Z"/><path d="M9.9,8.19c-1.08,0-1.58-1.1-1.58-2.16,0-.56,.14-1.09,.38-1.49,.29-.46,.7-.71,1.19-.71v.25c-.51,0-.81,.32-.98,.59-.22,.36-.34,.84-.34,1.36,0,.94,.41,1.94,1.32,1.94v.21Z"/></g><g><path d="M6.05,11.48c-1.06,0-2.19-.49-2.19-1.57h.25c0,.91,1.01,1.32,1.94,1.32s1.94-.41,1.94-1.32h.21c0,1.09-1.1,1.57-2.16,1.57Z"/><path d="M7.78,9.12c-.15,0-.3-.02-.46-.06-.9-.24-1.78-1.13-2.02-2.02-.15-.56-.04-1.04,.33-1.4l.18,.18c-.37,.37-.35,.84-.26,1.16,.22,.8,1.04,1.63,1.85,1.85,.32,.09,.79,.11,1.16-.26l.12,.16c-.26,.26-.53,.4-.89,.4Z"/><path d="M9.92,8.2c-1.08,0-1.58-1.1-1.58-2.16,0-.56,.14-1.09,.38-1.49,.29-.46,.7-.71,1.19-.71v.25c-.51,0-.81,.32-.98,.59-.22,.36-.34,.84-.34,1.36,0,.94,.41,1.94,1.32,1.94v.21Z"/></g><g><path d="M6.06,11.49c-1.06,0-2.19-.49-2.19-1.57h.25c0,.91,1.01,1.32,1.94,1.32s1.94-.41,1.94-1.32h.21c0,1.09-1.1,1.57-2.15,1.57Z"/><path d="M7.79,9.13c-.15,0-.3-.02-.46-.06-.9-.24-1.78-1.13-2.02-2.02-.15-.56-.04-1.04,.33-1.4l.18,.18c-.37,.37-.35,.84-.26,1.16,.22,.8,1.04,1.63,1.85,1.85,.32,.09,.79,.11,1.16-.26l.12,.16c-.26,.26-.53,.4-.89,.4Z"/><path d="M9.93,8.21c-1.08,0-1.58-1.1-1.58-2.15,0-.56,.14-1.09,.38-1.49,.29-.46,.7-.71,1.19-.71v.25c-.51,0-.81,.32-.98,.59-.22,.36-.34,.84-.34,1.36,0,.94,.41,1.94,1.32,1.94v.21Z"/></g><g><path d="M6.07,11.5c-1.06,0-2.19-.49-2.19-1.57h.25c0,.91,1.01,1.32,1.94,1.32s1.94-.41,1.94-1.32h.21c0,1.09-1.1,1.57-2.15,1.57Z"/><path d="M7.81,9.14c-.15,0-.3-.02-.46-.06-.9-.24-1.78-1.13-2.02-2.02-.15-.56-.04-1.04,.33-1.4l.18,.18c-.37,.37-.35,.84-.26,1.16,.22,.8,1.04,1.63,1.85,1.85,.32,.09,.79,.11,1.16-.26l.12,.16c-.26,.26-.53,.4-.89,.4Z"/><path d="M9.94,8.23c-1.08,0-1.58-1.1-1.58-2.15,0-.56,.14-1.09,.38-1.49,.29-.46,.7-.71,1.19-.71v.25c-.51,0-.81,.32-.98,.59-.22,.36-.34,.84-.34,1.36,0,.94,.41,1.94,1.32,1.94v.21Z"/></g><g><path d="M6.08,11.51c-1.06,0-2.19-.49-2.19-1.57h.25c0,.91,1.01,1.32,1.94,1.32s1.94-.41,1.94-1.32h.21c0,1.09-1.1,1.57-2.15,1.57Z"/><path d="M7.82,9.16c-.15,0-.3-.02-.46-.06-.9-.24-1.78-1.13-2.02-2.02-.15-.56-.04-1.04,.33-1.4l.18,.18c-.37,.37-.35,.84-.26,1.16,.22,.8,1.04,1.63,1.85,1.85,.32,.09,.79,.11,1.16-.26l.12,.16c-.26,.26-.53,.4-.89,.4Z"/><path d="M9.95,8.24c-1.08,0-1.58-1.1-1.58-2.15,0-.56,.14-1.09,.38-1.49,.29-.46,.7-.71,1.19-.71v.25c-.51,0-.81,.32-.98,.59-.22,.36-.34,.84-.34,1.36,0,.94,.41,1.94,1.32,1.94v.21Z"/></g><g><path d="M6.1,11.53c-1.06,0-2.19-.49-2.19-1.57h.25c0,.91,1.01,1.32,1.94,1.32s1.94-.41,1.94-1.32h.21c0,1.09-1.1,1.57-2.15,1.57Z"/><path d="M7.83,9.17c-.15,0-.3-.02-.46-.06-.9-.24-1.78-1.13-2.02-2.02-.15-.56-.04-1.04,.33-1.4l.18,.18c-.37,.37-.35,.84-.26,1.16,.22,.8,1.04,1.63,1.85,1.85,.32,.09,.79,.11,1.16-.26l.12,.16c-.26,.26-.52,.41-.89,.41Z"/><path d="M9.96,8.25c-1.08,0-1.58-1.1-1.58-2.15,0-.56,.14-1.09,.38-1.49,.29-.46,.7-.71,1.19-.71v.25c-.51,0-.81,.32-.98,.59-.22,.36-.34,.84-.34,1.36,0,.94,.41,1.94,1.32,1.94v.21Z"/></g><g><path d="M6.11,11.54c-1.06,0-2.19-.49-2.19-1.57h.25c0,.91,1.01,1.32,1.94,1.32s1.94-.41,1.94-1.32h.21c0,1.09-1.1,1.57-2.15,1.57Z"/><path d="M7.84,9.18c-.15,0-.3-.02-.46-.06-.9-.24-1.78-1.13-2.02-2.02-.15-.56-.04-1.04,.33-1.4l.18,.18c-.37,.37-.35,.84-.26,1.16,.22,.8,1.04,1.63,1.85,1.85,.32,.09,.79,.11,1.16-.26l.12,.16c-.26,.26-.52,.41-.89,.41Z"/><path d="M9.98,8.26c-1.08,0-1.58-1.1-1.58-2.15,0-.56,.14-1.09,.38-1.49,.29-.46,.7-.71,1.19-.71v.25c-.51,0-.81,.32-.98,.59-.22,.36-.34,.84-.34,1.36,0,.94,.41,1.94,1.32,1.94v.21Z"/></g><g><path d="M6.12,11.55c-1.06,0-2.19-.49-2.19-1.57h.25c0,.91,1.01,1.32,1.94,1.32s1.94-.41,1.94-1.32h.21c0,1.09-1.1,1.57-2.15,1.57Z"/><path d="M7.85,9.19c-.15,0-.3-.02-.46-.06-.9-.24-1.78-1.13-2.02-2.02-.15-.56-.04-1.04,.33-1.4l.18,.18c-.37,.37-.35,.84-.26,1.16,.22,.8,1.04,1.63,1.85,1.85,.32,.09,.79,.11,1.16-.26l.12,.16c-.26,.26-.52,.41-.89,.41Z"/><path d="M9.99,8.27c-1.08,0-1.58-1.1-1.58-2.15,0-.56,.14-1.09,.38-1.49,.29-.46,.7-.71,1.19-.71v.25c-.51,0-.81,.32-.98,.59-.22,.36-.34,.84-.34,1.36,0,.94,.41,1.94,1.32,1.94v.21Z"/></g><g><path d="M6.13,11.56c-1.06,0-2.19-.49-2.19-1.57h.25c0,.91,1.01,1.32,1.94,1.32s1.94-.41,1.94-1.32h.21c0,1.09-1.1,1.57-2.15,1.57Z"/><path d="M7.87,9.2c-.15,0-.3-.02-.46-.06-.9-.24-1.78-1.13-2.02-2.02-.15-.56-.04-1.04,.33-1.4l.18,.18c-.37,.37-.35,.84-.26,1.16,.22,.8,1.04,1.63,1.85,1.85,.32,.09,.79,.11,1.16-.26l.12,.16c-.26,.26-.52,.41-.89,.41Z"/><path d="M10,8.28c-1.08,0-1.58-1.1-1.58-2.15,0-.56,.14-1.09,.38-1.49,.29-.46,.7-.71,1.19-.71v.25c-.51,0-.81,.32-.98,.59-.22,.36-.34,.84-.34,1.36,0,.94,.41,1.94,1.32,1.94v.21Z"/></g><g><path d="M6.14,11.57c-1.06,0-2.19-.49-2.19-1.57h.25c0,.91,1.01,1.32,1.94,1.32s1.94-.41,1.94-1.32h.21c0,1.09-1.09,1.57-2.15,1.57Z"/><path d="M7.88,9.22c-.15,0-.3-.02-.46-.06-.9-.24-1.78-1.13-2.02-2.02-.15-.56-.04-1.04,.33-1.4l.18,.18c-.37,.37-.35,.84-.26,1.16,.22,.8,1.04,1.63,1.85,1.85,.32,.09,.79,.11,1.16-.26l.12,.16c-.26,.26-.52,.41-.89,.41Z"/><path d="M10.01,8.29c-1.08,0-1.58-1.09-1.58-2.15,0-.56,.14-1.09,.38-1.49,.29-.46,.7-.71,1.19-.71v.25c-.51,0-.81,.32-.98,.59-.22,.36-.34,.84-.34,1.36,0,.94,.41,1.94,1.32,1.94v.21Z"/></g><g><path d="M6.16,11.59c-1.06,0-2.19-.49-2.19-1.57h.25c0,.91,1.01,1.32,1.94,1.32s1.94-.41,1.94-1.32h.21c0,1.09-1.09,1.57-2.15,1.57Z"/><path d="M7.89,9.23c-.15,0-.3-.02-.46-.06-.9-.24-1.78-1.13-2.02-2.02-.15-.56-.04-1.04,.33-1.4l.18,.18c-.37,.37-.35,.84-.26,1.16,.22,.8,1.04,1.63,1.85,1.85,.32,.09,.79,.11,1.16-.26l.12,.16c-.26,.26-.52,.41-.89,.41Z"/><path d="M10.02,8.31c-1.08,0-1.58-1.09-1.58-2.15,0-.56,.14-1.09,.38-1.49,.29-.46,.7-.71,1.19-.71v.25c-.51,0-.81,.32-.98,.59-.22,.36-.34,.84-.34,1.36,0,.94,.41,1.94,1.32,1.94v.21Z"/></g><g><path d="M6.17,11.6c-1.06,0-2.19-.49-2.19-1.57h.25c0,.91,1.01,1.32,1.94,1.32s1.94-.41,1.94-1.32h.21c0,1.09-1.09,1.57-2.15,1.57Z"/><path d="M7.9,9.24c-.15,0-.3-.02-.46-.06-.9-.24-1.78-1.13-2.02-2.02-.15-.56-.04-1.04,.33-1.4l.18,.18c-.37,.37-.35,.84-.26,1.16,.22,.8,1.04,1.63,1.85,1.85,.32,.09,.79,.11,1.16-.26l.12,.16c-.26,.26-.52,.41-.89,.41Z"/><path d="M10.04,8.32c-1.08,0-1.58-1.09-1.58-2.15,0-.56,.14-1.09,.38-1.49,.29-.46,.7-.71,1.19-.71v.25c-.51,0-.81,.32-.98,.59-.22,.36-.34,.84-.34,1.36,0,.94,.41,1.94,1.32,1.94v.21Z"/></g><g><path d="M6.18,11.61c-1.06,0-2.19-.49-2.19-1.57h.25c0,.91,1.01,1.32,1.94,1.32s1.94-.41,1.94-1.32h.21c0,1.09-1.09,1.57-2.15,1.57Z"/><path d="M7.91,9.25c-.15,0-.3-.02-.46-.06-.9-.24-1.78-1.13-2.02-2.02-.15-.56-.04-1.04,.33-1.4l.18,.18c-.37,.37-.35,.84-.26,1.16,.22,.8,1.04,1.63,1.85,1.85,.32,.09,.79,.11,1.16-.26l.12,.16c-.26,.26-.52,.41-.88,.41Z"/><path d="M10.05,8.33c-1.08,0-1.58-1.09-1.58-2.15,0-.56,.14-1.09,.38-1.49,.29-.46,.7-.71,1.19-.71v.25c-.51,0-.81,.32-.98,.59-.22,.36-.34,.84-.34,1.36,0,.94,.41,1.94,1.32,1.94v.21Z"/></g><g><path d="M6.19,11.62c-1.06,0-2.19-.49-2.19-1.57h.25c0,.91,1.01,1.32,1.94,1.32s1.94-.41,1.94-1.32h.21c0,1.09-1.09,1.57-2.15,1.57Z"/><path d="M7.93,9.26c-.15,0-.3-.02-.46-.06-.9-.24-1.78-1.13-2.02-2.02-.15-.56-.04-1.04,.33-1.4l.18,.18c-.37,.37-.35,.84-.26,1.16,.22,.8,1.04,1.63,1.85,1.85,.32,.09,.79,.11,1.16-.26l.11,.16c-.26,.26-.52,.41-.88,.41Z"/><path d="M10.06,8.34c-1.08,0-1.58-1.09-1.58-2.15,0-.56,.14-1.09,.38-1.49,.29-.46,.7-.71,1.19-.71v.25c-.51,0-.81,.32-.98,.59-.22,.36-.34,.84-.34,1.36,0,.94,.41,1.94,1.32,1.94v.21Z"/></g><g><path d="M6.2,11.64c-1.06,0-2.19-.49-2.19-1.57h.25c0,.91,1.01,1.32,1.94,1.32s1.94-.41,1.94-1.32h.21c0,1.09-1.09,1.57-2.15,1.57Z"/><path d="M7.94,9.28c-.15,0-.3-.02-.46-.06-.9-.24-1.78-1.13-2.02-2.02-.15-.56-.04-1.04,.33-1.4l.18,.18c-.37,.37-.35,.84-.26,1.16,.22,.8,1.04,1.63,1.85,1.85,.32,.09,.79,.11,1.16-.26l.11,.16c-.26,.26-.52,.41-.88,.41Z"/><path d="M10.07,8.35c-1.08,0-1.58-1.09-1.58-2.15,0-.56,.14-1.09,.38-1.49,.29-.46,.7-.71,1.19-.71v.25c-.51,0-.81,.32-.98,.59-.22,.36-.34,.84-.34,1.36,0,.94,.41,1.94,1.32,1.94v.21Z"/></g><g><path d="M6.22,11.65c-1.06,0-2.19-.49-2.19-1.57h.25c0,.91,1.01,1.32,1.94,1.32s1.94-.41,1.94-1.32h.21c0,1.09-1.09,1.57-2.15,1.57Z"/><path d="M7.95,9.29c-.15,0-.3-.02-.46-.06-.9-.24-1.78-1.13-2.02-2.02-.15-.56-.04-1.04,.33-1.4l.18,.18c-.37,.37-.35,.84-.26,1.16,.22,.8,1.04,1.63,1.85,1.85,.32,.09,.79,.11,1.16-.26l.11,.16c-.26,.26-.52,.41-.88,.41Z"/><path d="M10.09,8.36c-1.08,0-1.58-1.09-1.58-2.15,0-.56,.14-1.09,.38-1.49,.29-.46,.7-.71,1.19-.71v.25c-.51,0-.81,.32-.98,.59-.22,.36-.34,.84-.34,1.36,0,.94,.41,1.94,1.32,1.94v.21Z"/></g><g><path d="M6.23,11.66c-1.06,0-2.19-.49-2.19-1.57h.25c0,.91,1.01,1.32,1.94,1.32s1.94-.41,1.94-1.32h.2c0,1.09-1.09,1.57-2.15,1.57Z"/><path d="M7.96,9.3c-.15,0-.3-.02-.46-.06-.9-.24-1.78-1.13-2.02-2.02-.15-.56-.04-1.04,.33-1.4l.18,.18c-.37,.37-.35,.84-.26,1.16,.22,.8,1.04,1.63,1.85,1.85,.32,.09,.79,.11,1.16-.26l.11,.16c-.26,.26-.52,.41-.88,.41Z"/><path d="M10.1,8.37c-1.08,0-1.58-1.09-1.58-2.15,0-.56,.14-1.09,.38-1.49,.29-.46,.7-.71,1.19-.71v.25c-.51,0-.81,.32-.98,.59-.22,.36-.34,.84-.34,1.36,0,.94,.41,1.94,1.32,1.94v.2Z"/></g><g><path d="M6.24,11.67c-1.06,0-2.19-.49-2.19-1.57h.25c0,.91,1.01,1.32,1.94,1.32s1.94-.41,1.94-1.32h.2c0,1.09-1.09,1.57-2.15,1.57Z"/><path d="M7.97,9.31c-.15,0-.3-.02-.46-.06-.9-.24-1.78-1.13-2.02-2.02-.15-.56-.04-1.04,.33-1.4l.18,.18c-.37,.37-.35,.84-.26,1.16,.22,.8,1.04,1.63,1.85,1.85,.32,.09,.79,.11,1.16-.26l.11,.16c-.26,.26-.52,.41-.88,.41Z"/><path d="M10.11,8.39c-1.08,0-1.58-1.09-1.58-2.15,0-.56,.14-1.09,.38-1.49,.29-.46,.7-.71,1.19-.71v.25c-.51,0-.81,.32-.98,.59-.22,.36-.34,.84-.34,1.36,0,.94,.41,1.94,1.32,1.94v.2Z"/></g><g><path d="M6.25,11.68c-1.06,0-2.19-.49-2.19-1.57h.25c0,.91,1.01,1.32,1.94,1.32s1.94-.41,1.94-1.32h.2c0,1.09-1.09,1.57-2.15,1.57Z"/><path d="M7.99,9.32c-.15,0-.3-.02-.46-.06-.9-.24-1.78-1.13-2.02-2.02-.15-.56-.04-1.04,.33-1.4l.18,.18c-.37,.37-.35,.84-.26,1.16,.22,.8,1.04,1.63,1.85,1.85,.32,.09,.79,.11,1.16-.26l.11,.16c-.26,.26-.52,.41-.88,.41Z"/><path d="M10.12,8.4c-1.08,0-1.58-1.09-1.58-2.15,0-.56,.14-1.09,.38-1.49,.29-.46,.7-.71,1.19-.71v.25c-.51,0-.81,.32-.98,.59-.22,.36-.34,.84-.34,1.36,0,.94,.41,1.94,1.32,1.94v.2Z"/></g><g><path d="M6.26,11.7c-1.06,0-2.19-.49-2.19-1.57h.25c0,.91,1.01,1.32,1.94,1.32s1.94-.41,1.94-1.32h.2c0,1.09-1.09,1.57-2.15,1.57Z"/><path d="M8,9.34c-.15,0-.3-.02-.46-.06-.9-.24-1.78-1.13-2.02-2.02-.15-.56-.04-1.04,.33-1.4l.18,.18c-.37,.37-.35,.84-.26,1.16,.22,.8,1.04,1.63,1.85,1.85,.32,.09,.79,.11,1.16-.26l.11,.16c-.26,.26-.51,.41-.88,.41Z"/><path d="M10.13,8.41c-1.08,0-1.58-1.09-1.58-2.15,0-.56,.14-1.09,.38-1.49,.29-.46,.7-.71,1.19-.71v.25c-.51,0-.81,.32-.98,.59-.22,.36-.34,.84-.34,1.36,0,.94,.41,1.94,1.32,1.94v.2Z"/></g><g><path d="M6.28,11.71c-1.06,0-2.19-.49-2.19-1.57h.25c0,.91,1.01,1.32,1.94,1.32s1.94-.41,1.94-1.32h.2c0,1.09-1.09,1.57-2.15,1.57Z"/><path d="M8.01,9.35c-.15,0-.3-.02-.46-.06-.9-.24-1.78-1.13-2.02-2.02-.15-.56-.04-1.04,.33-1.4l.18,.18c-.37,.37-.35,.84-.26,1.16,.22,.8,1.04,1.63,1.85,1.85,.32,.09,.79,.11,1.16-.26l.11,.16c-.26,.26-.51,.41-.88,.41Z"/><path d="M10.15,8.42c-1.08,0-1.58-1.09-1.58-2.15,0-.56,.14-1.09,.38-1.49,.29-.46,.7-.71,1.19-.71v.25c-.51,0-.81,.32-.98,.59-.22,.36-.34,.84-.34,1.36,0,.94,.41,1.94,1.32,1.94v.2Z"/></g><g><path d="M6.29,11.72c-1.06,0-2.19-.49-2.19-1.57h.25c0,.91,1.01,1.32,1.94,1.32s1.94-.41,1.94-1.32h.2c0,1.09-1.09,1.57-2.14,1.57Z"/><path d="M8.02,9.36c-.15,0-.3-.02-.46-.06-.9-.24-1.78-1.13-2.02-2.02-.15-.56-.04-1.04,.33-1.4l.18,.18c-.37,.37-.35,.84-.26,1.16,.22,.8,1.04,1.63,1.85,1.85,.32,.09,.79,.11,1.16-.26l.11,.16c-.26,.26-.51,.41-.88,.41Z"/><path d="M10.16,8.43c-1.08,0-1.58-1.09-1.58-2.14,0-.56,.14-1.09,.38-1.49,.29-.46,.7-.71,1.19-.71v.25c-.51,0-.81,.32-.98,.59-.22,.36-.34,.84-.34,1.36,0,.94,.41,1.94,1.32,1.94v.2Z"/></g><g><path d="M6.3,11.73c-1.06,0-2.19-.49-2.19-1.57h.25c0,.91,1.01,1.32,1.94,1.32s1.94-.41,1.94-1.32h.2c0,1.09-1.09,1.57-2.14,1.57Z"/><path d="M8.03,9.37c-.15,0-.3-.02-.46-.06-.9-.24-1.78-1.13-2.02-2.02-.15-.56-.04-1.04,.33-1.4l.18,.18c-.37,.37-.35,.84-.26,1.16,.22,.8,1.04,1.63,1.85,1.85,.32,.09,.79,.11,1.16-.26l.11,.16c-.26,.26-.51,.41-.88,.41Z"/><path d="M10.17,8.44c-1.08,0-1.58-1.09-1.58-2.14,0-.56,.14-1.09,.38-1.49,.29-.46,.7-.71,1.19-.71v.25c-.51,0-.81,.32-.98,.59-.22,.36-.34,.84-.34,1.36,0,.94,.41,1.94,1.32,1.94v.2Z"/></g><g><path d="M6.31,11.74c-1.06,0-2.19-.49-2.19-1.57h.25c0,.91,1.01,1.32,1.94,1.32s1.94-.41,1.94-1.32h.2c0,1.09-1.09,1.57-2.14,1.57Z"/><path d="M8.05,9.38c-.15,0-.3-.02-.46-.06-.9-.24-1.78-1.13-2.02-2.02-.15-.56-.04-1.04,.33-1.4l.18,.18c-.37,.37-.35,.84-.26,1.16,.22,.8,1.04,1.63,1.85,1.85,.32,.09,.79,.11,1.16-.26l.11,.16c-.26,.26-.51,.41-.88,.41Z"/><path d="M10.18,8.46c-1.08,0-1.58-1.09-1.58-2.14,0-.56,.14-1.09,.38-1.49,.29-.46,.7-.71,1.19-.71v.25c-.51,0-.81,.32-.98,.59-.22,.36-.34,.84-.34,1.36,0,.94,.41,1.94,1.32,1.94v.2Z"/></g><g><path d="M6.32,11.76c-1.06,0-2.19-.49-2.19-1.57h.25c0,.91,1.01,1.32,1.94,1.32s1.94-.41,1.94-1.32h.2c0,1.09-1.09,1.57-2.14,1.57Z"/><path d="M8.06,9.4c-.15,0-.3-.02-.46-.06-.9-.24-1.78-1.13-2.02-2.02-.15-.56-.04-1.04,.33-1.4l.18,.18c-.37,.37-.35,.84-.26,1.16,.22,.8,1.04,1.63,1.85,1.85,.32,.09,.79,.11,1.16-.26l.11,.16c-.26,.26-.51,.41-.88,.41Z"/><path d="M10.19,8.47c-1.08,0-1.58-1.09-1.58-2.14,0-.56,.14-1.09,.38-1.49,.29-.46,.7-.71,1.19-.71v.25c-.51,0-.81,.32-.98,.59-.22,.36-.34,.84-.34,1.36,0,.94,.41,1.94,1.32,1.94v.2Z"/></g><g><path d="M6.34,11.77c-1.06,0-2.19-.49-2.19-1.57h.25c0,.91,1.01,1.32,1.94,1.32s1.94-.41,1.94-1.32h.2c0,1.09-1.09,1.57-2.14,1.57Z"/><path d="M8.07,9.41c-.15,0-.3-.02-.46-.06-.9-.24-1.78-1.13-2.02-2.02-.15-.56-.04-1.04,.33-1.4l.18,.18c-.37,.37-.35,.84-.26,1.16,.22,.8,1.04,1.63,1.85,1.85,.32,.09,.79,.11,1.16-.26l.11,.16c-.26,.26-.51,.41-.88,.41Z"/><path d="M10.21,8.48c-1.08,0-1.58-1.09-1.58-2.14,0-.56,.14-1.09,.38-1.49,.29-.46,.7-.71,1.19-.71v.25c-.51,0-.81,.32-.98,.59-.22,.36-.34,.84-.34,1.36,0,.94,.41,1.94,1.32,1.94v.2Z"/></g><g><path d="M6.35,11.78c-1.06,0-2.19-.49-2.19-1.57h.25c0,.91,1.01,1.32,1.94,1.32s1.94-.41,1.94-1.32h.2c0,1.09-1.09,1.57-2.14,1.57Z"/><path d="M8.08,9.42c-.15,0-.3-.02-.46-.06-.9-.24-1.78-1.13-2.02-2.02-.15-.56-.04-1.04,.33-1.4l.18,.18c-.37,.37-.35,.84-.26,1.16,.22,.8,1.04,1.63,1.85,1.85,.32,.09,.79,.11,1.16-.26l.11,.16c-.26,.26-.51,.41-.87,.41Z"/><path d="M10.22,8.49c-1.08,0-1.58-1.09-1.58-2.14,0-.56,.14-1.09,.38-1.49,.29-.46,.7-.71,1.19-.71v.25c-.51,0-.81,.32-.98,.59-.22,.36-.34,.84-.34,1.36,0,.94,.41,1.94,1.32,1.94v.2Z"/></g><g><path d="M6.36,11.79c-1.06,0-2.19-.49-2.19-1.57h.25c0,.91,1.01,1.32,1.94,1.32s1.94-.41,1.94-1.32h.2c0,1.09-1.09,1.57-2.14,1.57Z"/><path d="M8.09,9.43c-.15,0-.3-.02-.46-.06-.9-.24-1.78-1.13-2.02-2.02-.15-.56-.04-1.04,.33-1.4l.18,.18c-.37,.37-.35,.84-.26,1.16,.22,.8,1.04,1.63,1.85,1.85,.32,.09,.79,.11,1.16-.26l.1,.16c-.26,.26-.51,.41-.87,.41Z"/><path d="M10.23,8.5c-1.08,0-1.58-1.09-1.58-2.14,0-.56,.14-1.09,.38-1.49,.29-.46,.7-.71,1.19-.71v.25c-.51,0-.81,.32-.98,.59-.22,.36-.34,.84-.34,1.36,0,.94,.41,1.94,1.32,1.94v.2Z"/></g><g><path d="M6.37,11.8c-1.06,0-2.19-.49-2.19-1.57h.25c0,.91,1.01,1.32,1.94,1.32s1.94-.41,1.94-1.32h.2c0,1.09-1.09,1.57-2.14,1.57Z"/><path d="M8.11,9.44c-.15,0-.3-.02-.46-.06-.9-.24-1.78-1.13-2.02-2.02-.15-.56-.04-1.04,.33-1.4l.18,.18c-.37,.37-.35,.84-.26,1.16,.22,.8,1.04,1.63,1.85,1.85,.32,.09,.79,.11,1.16-.26l.1,.16c-.26,.26-.51,.41-.87,.41Z"/><path d="M10.24,8.51c-1.08,0-1.58-1.09-1.58-2.14,0-.56,.14-1.09,.38-1.49,.29-.46,.7-.71,1.19-.71v.25c-.51,0-.81,.32-.98,.59-.22,.36-.34,.84-.34,1.36,0,.94,.41,1.94,1.32,1.94v.2Z"/></g></g><circle class="cls-1" cx="10.23" cy="10.23" r="1.82"/><path d="M9.05,7.1c-1.07,0-1.94,.87-1.94,1.94s.87,1.94,1.94,1.94,1.94-.87,1.94-1.94-.87-1.94-1.94-1.94Zm-.03,3.74c-.18,0-.36-.04-.52-.09-.05-.17-.09-.34-.09-.52,0-1.01,.81-1.82,1.82-1.82,.18,0,.36,.04,.52,.09,.05,.17,.09,.34,.09,.52,0,1.01-.81,1.82-1.82,1.82Z"/><path d="M9.01,11.59l-.08-.06-.53-.79s-.35-.33-.56-.54l-.18,.18c.36,.36,.35,.8,.28,1.11-.1,.41-.35,.83-.72,1.2s-.79,.62-1.2,.72c-.31,.07-.75,.08-1.11-.28l-.18,.18,1.21,1.21c.26,.26,.58,.39,.95,.39,.15,0,.3-.02,.46-.06,.9-.24,1.79-1.13,2.02-2.02,.15-.56,0-.86-.37-1.23Z"/></g></g></svg>